%TF.GenerationSoftware,KiCad,Pcbnew,6.0.11-3.fc37*%
%TF.CreationDate,2023-03-28T23:22:27+01:00*%
%TF.ProjectId,ISS,4953532e-6b69-4636-9164-5f7063625858,1*%
%TF.SameCoordinates,Original*%
%TF.FileFunction,Legend,Top*%
%TF.FilePolarity,Positive*%
%FSLAX46Y46*%
G04 Gerber Fmt 4.6, Leading zero omitted, Abs format (unit mm)*
G04 Created by KiCad (PCBNEW 6.0.11-3.fc37) date 2023-03-28 23:22:27*
%MOMM*%
%LPD*%
G01*
G04 APERTURE LIST*
%ADD10C,0.120000*%
G04 APERTURE END LIST*
D10*
%TO.C,J107*%
X24371428Y-121661904D02*
X24371428Y-122233333D01*
X24333333Y-122347619D01*
X24257142Y-122423809D01*
X24142857Y-122461904D01*
X24066666Y-122461904D01*
X25171428Y-122461904D02*
X24714285Y-122461904D01*
X24942857Y-122461904D02*
X24942857Y-121661904D01*
X24866666Y-121776190D01*
X24790476Y-121852380D01*
X24714285Y-121890476D01*
X25666666Y-121661904D02*
X25742857Y-121661904D01*
X25819047Y-121700000D01*
X25857142Y-121738095D01*
X25895238Y-121814285D01*
X25933333Y-121966666D01*
X25933333Y-122157142D01*
X25895238Y-122309523D01*
X25857142Y-122385714D01*
X25819047Y-122423809D01*
X25742857Y-122461904D01*
X25666666Y-122461904D01*
X25590476Y-122423809D01*
X25552380Y-122385714D01*
X25514285Y-122309523D01*
X25476190Y-122157142D01*
X25476190Y-121966666D01*
X25514285Y-121814285D01*
X25552380Y-121738095D01*
X25590476Y-121700000D01*
X25666666Y-121661904D01*
X26200000Y-121661904D02*
X26733333Y-121661904D01*
X26390476Y-122461904D01*
%TO.C,J105*%
X178384358Y-63161001D02*
X178384358Y-60748001D01*
X159685358Y-63650001D02*
X159685358Y-36350001D01*
X163563358Y-43755001D02*
X160223358Y-43730001D01*
X187085358Y-36350001D02*
X187085358Y-63650001D01*
X168605358Y-60748001D02*
X178384358Y-60748001D01*
X163563358Y-60355001D02*
X160477358Y-60355001D01*
X159685358Y-36350001D02*
X187085358Y-36350001D01*
X186663358Y-43755001D02*
X186663358Y-60355001D01*
X178384358Y-63161001D02*
X168605358Y-63161001D01*
X160223358Y-43730001D02*
X160223358Y-60367001D01*
X187085358Y-63650001D02*
X159685358Y-63650001D01*
X168605358Y-63161001D02*
X168605358Y-60748001D01*
X186663358Y-60355001D02*
X163563358Y-60355001D01*
X163563358Y-43755001D02*
X186663358Y-43755001D01*
X160223358Y-60367001D02*
X160477358Y-60355001D01*
%TO.C,J5*%
X144514642Y-36350001D02*
X144514642Y-63650001D01*
X135813642Y-63161001D02*
X126034642Y-63161001D01*
X126034642Y-60748001D02*
X135813642Y-60748001D01*
X144514642Y-63650001D02*
X117114642Y-63650001D01*
X117114642Y-36350001D02*
X144514642Y-36350001D01*
X144092642Y-43755001D02*
X144092642Y-60355001D01*
X117114642Y-63650001D02*
X117114642Y-36350001D01*
X117652642Y-43730001D02*
X117652642Y-60367001D01*
X135813642Y-63161001D02*
X135813642Y-60748001D01*
X120992642Y-43755001D02*
X144092642Y-43755001D01*
X144092642Y-60355001D02*
X120992642Y-60355001D01*
X126034642Y-63161001D02*
X126034642Y-60748001D01*
X120992642Y-60355001D02*
X117906642Y-60355001D01*
X117652642Y-60367001D02*
X117906642Y-60355001D01*
X120992642Y-43755001D02*
X117652642Y-43730001D01*
%TD*%
M02*
