%TF.GenerationSoftware,KiCad,Pcbnew,6.0.11-3.fc37*%
%TF.CreationDate,2023-03-28T23:22:27+01:00*%
%TF.ProjectId,ISS,4953532e-6b69-4636-9164-5f7063625858,1*%
%TF.SameCoordinates,Original*%
%TF.FileFunction,Soldermask,Bot*%
%TF.FilePolarity,Negative*%
%FSLAX46Y46*%
G04 Gerber Fmt 4.6, Leading zero omitted, Abs format (unit mm)*
G04 Created by KiCad (PCBNEW 6.0.11-3.fc37) date 2023-03-28 23:22:27*
%MOMM*%
%LPD*%
G01*
G04 APERTURE LIST*
G04 Aperture macros list*
%AMRoundRect*
0 Rectangle with rounded corners*
0 $1 Rounding radius*
0 $2 $3 $4 $5 $6 $7 $8 $9 X,Y pos of 4 corners*
0 Add a 4 corners polygon primitive as box body*
4,1,4,$2,$3,$4,$5,$6,$7,$8,$9,$2,$3,0*
0 Add four circle primitives for the rounded corners*
1,1,$1+$1,$2,$3*
1,1,$1+$1,$4,$5*
1,1,$1+$1,$6,$7*
1,1,$1+$1,$8,$9*
0 Add four rect primitives between the rounded corners*
20,1,$1+$1,$2,$3,$4,$5,0*
20,1,$1+$1,$4,$5,$6,$7,0*
20,1,$1+$1,$6,$7,$8,$9,0*
20,1,$1+$1,$8,$9,$2,$3,0*%
%AMFreePoly0*
4,1,166,0.020058,1.757995,0.020257,1.757911,0.020461,1.757976,0.088018,1.752135,0.088703,1.751779,0.089476,1.751783,0.139364,1.731428,0.139894,1.730904,0.140610,1.730694,0.193315,1.688270,0.193405,1.688105,0.193581,1.688040,0.197418,1.684480,0.197511,1.684278,0.197711,1.684184,0.237988,1.640018,0.238176,1.639497,0.238616,1.639161,0.268004,1.588587,0.268081,1.588015,
0.268452,1.587571,0.288568,1.523423,0.288531,1.523009,0.288744,1.522653,0.301203,1.437765,0.301145,1.437536,0.301248,1.437323,0.307665,1.324527,0.307627,1.324417,0.307673,1.324310,0.309662,1.176443,0.309650,1.176413,0.309662,1.176384,0.310158,0.911500,1.194167,0.911500,1.197703,0.910036,1.199167,0.906500,1.199167,0.022499,1.495796,0.022467,1.506662,0.022458,
1.506700,0.022442,1.506738,0.022457,1.649011,0.020176,1.649146,0.020117,1.649286,0.020164,1.757033,0.012493,1.757301,0.012359,1.757596,0.012421,1.838017,-0.002603,1.838452,-0.002886,1.838971,-0.002882,1.899266,-0.027221,1.899747,-0.027694,1.900400,-0.027862,1.947771,-0.063482,1.948063,-0.063976,1.948571,-0.064236,1.990217,-0.113101,1.990285,-0.113312,1.990475,-0.113430,
1.992348,-0.116042,1.992478,-0.116599,1.992887,-0.117000,2.025841,-0.194540,2.025848,-0.195284,2.026209,-0.195938,2.036881,-0.290914,2.036713,-0.291497,2.036875,-0.292081,2.025266,-0.386682,2.024893,-0.387342,2.024874,-0.388100,1.990983,-0.464517,1.990570,-0.464910,1.990433,-0.465462,1.987695,-0.469164,1.987512,-0.469274,1.987443,-0.469479,1.945640,-0.517402,1.945114,-0.517663,
1.944807,-0.518163,1.896800,-0.552972,1.896148,-0.553128,1.895662,-0.553590,1.834251,-0.577250,1.833747,-0.577237,1.833322,-0.577508,1.751306,-0.591981,1.751024,-0.591919,1.750766,-0.592046,1.640946,-0.599297,1.640815,-0.599253,1.640686,-0.599308,1.495861,-0.601301,1.495826,-0.601287,1.495793,-0.601301,1.199167,-0.601333,1.199167,-1.485334,1.197703,-1.488870,1.194167,-1.490334,
0.522913,-1.490334,0.521253,-1.489647,0.519562,-1.489046,0.519503,-1.488922,0.519377,-1.488870,0.518692,-1.487215,0.517919,-1.485589,0.506624,-1.264275,0.499108,-1.163464,0.478323,-1.036722,0.443359,-0.936733,0.390674,-0.854060,0.316490,-0.779339,0.255447,-0.735253,0.146544,-0.683217,0.033509,-0.655119,-0.068740,-0.655629,-0.135338,-0.673389,-0.238681,-0.719268,-0.332687,-0.779982,
-0.400931,-0.846014,-0.450965,-0.924243,-0.488430,-1.021366,-0.509031,-1.138798,-0.515333,-1.287006,-0.515333,-1.485334,-0.516797,-1.488870,-0.520333,-1.490334,-1.197666,-1.490334,-1.201202,-1.488870,-1.202666,-1.485334,-1.202666,0.906500,-1.201202,0.910036,-1.197666,0.911500,-0.313666,0.911500,-0.313666,1.214096,-0.313664,1.214101,-0.313666,1.214107,-0.313587,1.250005,-0.313569,1.250049,
-0.313586,1.250094,-0.310762,1.390822,-0.310701,1.390960,-0.310748,1.391103,-0.302616,1.497548,-0.302480,1.497816,-0.302541,1.498113,-0.287382,1.576784,-0.287089,1.577228,-0.287088,1.577760,-0.263184,1.635165,-0.262667,1.635681,-0.262461,1.636380,-0.228092,1.679028,-0.227512,1.679345,-0.227171,1.679912,-0.180620,1.714311,-0.180051,1.714453,-0.179642,1.714876,-0.115982,1.742538,
-0.115255,1.742551,-0.114626,1.742911,0.003216,1.758046,0.003555,1.757954,0.003881,1.758087,0.020058,1.757995,0.020058,1.757995,$1*%
%AMFreePoly1*
4,1,128,-0.871261,1.560816,-0.869562,1.560212,-0.869503,1.560088,-0.869377,1.560036,-0.868692,1.558381,-0.867919,1.556755,-0.856627,1.335491,-0.849762,1.240862,-0.829824,1.113826,-0.796076,1.013398,-0.744944,0.929810,-0.672657,0.853379,-0.603063,0.802743,-0.495491,0.753051,-0.382969,0.726071,-0.281264,0.726793,-0.214663,0.744555,-0.111318,0.790433,-0.017310,0.851149,0.050931,0.917180,
0.100965,0.995409,0.138431,1.092531,0.159031,1.209964,0.165334,1.358195,0.165334,1.556500,0.166798,1.560036,0.170334,1.561500,0.847667,1.561500,0.851203,1.560036,0.852667,1.556500,0.852667,-0.835334,0.851203,-0.838870,0.847667,-0.840334,-0.036333,-0.840334,-0.036333,-1.142930,-0.036345,-1.142959,-0.036333,-1.142988,-0.037972,-1.285629,-0.038012,-1.285721,-0.037978,-1.285815,
-0.043324,-1.395247,-0.043407,-1.395423,-0.043355,-1.395610,-0.052828,-1.473166,-0.053018,-1.473502,-0.052970,-1.473887,-0.066988,-1.524794,-0.067270,-1.525157,-0.067294,-1.525616,-0.077562,-1.547195,-0.078057,-1.547642,-0.078260,-1.548276,-0.141244,-1.622740,-0.142148,-1.623206,-0.142810,-1.623975,-0.234752,-1.670358,-0.235594,-1.670421,-0.236325,-1.670848,-0.353173,-1.686875,-0.353535,-1.686780,
-0.353881,-1.686921,-0.370058,-1.686829,-0.370257,-1.686745,-0.370461,-1.686810,-0.438018,-1.680970,-0.438702,-1.680615,-0.439476,-1.680619,-0.489364,-1.660263,-0.489894,-1.659739,-0.490610,-1.659529,-0.543314,-1.617104,-0.543404,-1.616940,-0.543579,-1.616875,-0.547417,-1.613315,-0.547510,-1.613113,-0.547712,-1.613018,-0.587987,-1.568852,-0.588175,-1.568331,-0.588615,-1.567995,-0.618004,-1.517421,
-0.618081,-1.516849,-0.618452,-1.516405,-0.638568,-1.452257,-0.638531,-1.451843,-0.638744,-1.451487,-0.651203,-1.366599,-0.651145,-1.366370,-0.651248,-1.366157,-0.657664,-1.253362,-0.657626,-1.253252,-0.657672,-1.253145,-0.659662,-1.105276,-0.659650,-1.105246,-0.659662,-1.105218,-0.660157,-0.840334,-1.544166,-0.840334,-1.547702,-0.838870,-1.549166,-0.835334,-1.549166,-0.158000,-1.547702,-0.154464,
-1.544166,-0.153000,-1.357529,-0.153000,-1.347293,-0.152956,-1.241079,-0.148160,-1.140550,-0.136853,-1.064303,-0.121114,-0.963545,-0.076020,-0.859656,0.006728,-0.776909,0.113267,-0.722265,0.234314,-0.702552,0.360635,-0.717185,0.469067,-0.767325,0.591463,-0.846521,0.700617,-0.947819,0.787260,-1.064520,0.842370,-1.070077,0.843951,-1.149912,0.859398,-1.251836,0.870138,-1.357593,0.874166,
-1.544166,0.874166,-1.547702,0.875630,-1.549166,0.879166,-1.549166,1.556500,-1.547702,1.560036,-1.544166,1.561500,-0.872913,1.561500,-0.871261,1.560816,-0.871261,1.560816,$1*%
G04 Aperture macros list end*
%ADD10C,0.010000*%
%ADD11C,5.600000*%
%ADD12O,1.600000X2.000000*%
%ADD13C,0.500000*%
%ADD14C,3.987800*%
%ADD15C,3.048000*%
%ADD16C,1.750000*%
%ADD17RoundRect,0.250000X1.025000X1.000000X-1.025000X1.000000X-1.025000X-1.000000X1.025000X-1.000000X0*%
%ADD18RoundRect,0.140000X-0.170000X0.140000X-0.170000X-0.140000X0.170000X-0.140000X0.170000X0.140000X0*%
%ADD19C,1.500000*%
%ADD20RoundRect,0.140000X0.170000X-0.140000X0.170000X0.140000X-0.170000X0.140000X-0.170000X-0.140000X0*%
%ADD21RoundRect,0.150000X-0.150000X0.587500X-0.150000X-0.587500X0.150000X-0.587500X0.150000X0.587500X0*%
%ADD22RoundRect,0.105000X-0.245000X-0.245000X0.245000X-0.245000X0.245000X0.245000X-0.245000X0.245000X0*%
%ADD23C,1.200000*%
%ADD24C,3.400000*%
%ADD25C,1.700000*%
%ADD26RoundRect,0.260000X1.065000X1.040000X-1.065000X1.040000X-1.065000X-1.040000X1.065000X-1.040000X0*%
%ADD27C,4.400000*%
%ADD28RoundRect,0.150000X0.150000X-0.475000X0.150000X0.475000X-0.150000X0.475000X-0.150000X-0.475000X0*%
%ADD29RoundRect,0.105000X0.245000X0.245000X-0.245000X0.245000X-0.245000X-0.245000X0.245000X-0.245000X0*%
%ADD30RoundRect,0.135000X-0.185000X0.135000X-0.185000X-0.135000X0.185000X-0.135000X0.185000X0.135000X0*%
%ADD31RoundRect,0.150000X0.150000X-0.587500X0.150000X0.587500X-0.150000X0.587500X-0.150000X-0.587500X0*%
%ADD32RoundRect,0.250000X0.450000X-0.262500X0.450000X0.262500X-0.450000X0.262500X-0.450000X-0.262500X0*%
%ADD33RoundRect,0.250000X0.262500X0.450000X-0.262500X0.450000X-0.262500X-0.450000X0.262500X-0.450000X0*%
%ADD34RoundRect,0.250000X1.248893X0.700636X-0.731255X1.231215X-1.248893X-0.700636X0.731255X-1.231215X0*%
%ADD35RoundRect,0.250000X-0.450000X0.262500X-0.450000X-0.262500X0.450000X-0.262500X0.450000X0.262500X0*%
%ADD36RoundRect,0.140000X-0.140000X-0.170000X0.140000X-0.170000X0.140000X0.170000X-0.140000X0.170000X0*%
%ADD37R,0.900000X1.200000*%
%ADD38C,1.100000*%
%ADD39C,1.600000*%
%ADD40R,0.300000X1.550000*%
%ADD41R,1.200000X2.750000*%
%ADD42RoundRect,0.250000X-0.262500X-0.450000X0.262500X-0.450000X0.262500X0.450000X-0.262500X0.450000X0*%
%ADD43C,0.650000*%
%ADD44R,1.100000X0.540000*%
%ADD45R,1.100000X0.300000*%
%ADD46O,2.250000X1.200000*%
%ADD47RoundRect,0.250000X0.731255X1.231215X-1.248893X0.700636X-0.731255X-1.231215X1.248893X-0.700636X0*%
%ADD48RoundRect,0.250000X0.700636X-1.248893X1.231215X0.731255X-0.700636X1.248893X-1.231215X-0.731255X0*%
%ADD49R,0.300000X0.800000*%
%ADD50R,0.950000X1.000000*%
%ADD51RoundRect,0.135000X-0.135000X-0.185000X0.135000X-0.185000X0.135000X0.185000X-0.135000X0.185000X0*%
%ADD52RoundRect,0.150000X0.007167X0.606304X-0.296945X-0.528659X-0.007167X-0.606304X0.296945X0.528659X0*%
%ADD53RoundRect,0.260000X1.297883X0.728921X-0.759539X1.280205X-1.297883X-0.728921X0.759539X-1.280205X0*%
%ADD54FreePoly0,180.000000*%
%ADD55FreePoly1,180.000000*%
%ADD56RoundRect,0.250000X-0.250000X-1.500000X0.250000X-1.500000X0.250000X1.500000X-0.250000X1.500000X0*%
%ADD57RoundRect,0.250001X-0.499999X-1.449999X0.499999X-1.449999X0.499999X1.449999X-0.499999X1.449999X0*%
%ADD58R,1.700000X1.700000*%
%ADD59O,1.700000X1.700000*%
%ADD60RoundRect,0.150000X-0.296945X0.528659X0.007167X-0.606304X0.296945X-0.528659X-0.007167X0.606304X0*%
%ADD61RoundRect,0.105000X0.300062X0.173241X-0.173241X0.300062X-0.300062X-0.173241X0.173241X-0.300062X0*%
%ADD62RoundRect,0.260000X0.759539X1.280205X-1.297883X0.728921X-0.759539X-1.280205X1.297883X-0.728921X0*%
%ADD63RoundRect,0.105000X-0.173241X-0.300062X0.300062X-0.173241X0.173241X0.300062X-0.300062X0.173241X0*%
%ADD64R,0.800000X0.300000*%
%ADD65R,1.000000X0.950000*%
%ADD66RoundRect,0.135000X0.185000X-0.135000X0.185000X0.135000X-0.185000X0.135000X-0.185000X-0.135000X0*%
%ADD67RoundRect,0.250000X-1.231215X0.731255X-0.700636X-1.248893X1.231215X-0.731255X0.700636X1.248893X0*%
%ADD68C,0.850000*%
%ADD69RoundRect,0.090000X0.535000X-0.210000X0.535000X0.210000X-0.535000X0.210000X-0.535000X-0.210000X0*%
%ADD70RoundRect,0.105000X-0.245000X-0.445000X0.245000X-0.445000X0.245000X0.445000X-0.245000X0.445000X0*%
%ADD71RoundRect,0.140000X0.140000X0.170000X-0.140000X0.170000X-0.140000X-0.170000X0.140000X-0.170000X0*%
%ADD72RoundRect,0.150000X-0.587500X-0.150000X0.587500X-0.150000X0.587500X0.150000X-0.587500X0.150000X0*%
%ADD73FreePoly0,0.000000*%
%ADD74FreePoly1,0.000000*%
%ADD75RoundRect,0.090000X-0.535000X0.210000X-0.535000X-0.210000X0.535000X-0.210000X0.535000X0.210000X0*%
%ADD76RoundRect,0.105000X0.245000X0.445000X-0.245000X0.445000X-0.245000X-0.445000X0.245000X-0.445000X0*%
G04 APERTURE END LIST*
%TO.C,Ref\u002A\u002A*%
G36*
X183339908Y-14991547D02*
G01*
X183473759Y-14993062D01*
X183577376Y-14997011D01*
X183658760Y-15003962D01*
X183725912Y-15014485D01*
X183786833Y-15029148D01*
X183964764Y-15089782D01*
X184168993Y-15192160D01*
X184343169Y-15320089D01*
X184485213Y-15471654D01*
X184593046Y-15644939D01*
X184664590Y-15838030D01*
X184670175Y-15861035D01*
X184691832Y-16008706D01*
X184696237Y-16170996D01*
X184683677Y-16330022D01*
X184654441Y-16467900D01*
X184612075Y-16575887D01*
X184515852Y-16732526D01*
X184387407Y-16871153D01*
X184232333Y-16986121D01*
X184056223Y-17071784D01*
X184050955Y-17073705D01*
X183983655Y-17094318D01*
X183888022Y-17119195D01*
X183776030Y-17145372D01*
X183659654Y-17169890D01*
X183593328Y-17183660D01*
X183399131Y-17233375D01*
X183246410Y-17288998D01*
X183134807Y-17350680D01*
X183063960Y-17418570D01*
X183061233Y-17422524D01*
X183026808Y-17501706D01*
X183008219Y-17603173D01*
X183007124Y-17710357D01*
X183025176Y-17806689D01*
X183061300Y-17882192D01*
X183141399Y-17977298D01*
X183249480Y-18056457D01*
X183377339Y-18112545D01*
X183459815Y-18133140D01*
X183600394Y-18152439D01*
X183748578Y-18157947D01*
X183888613Y-18149320D01*
X184004746Y-18126216D01*
X184101586Y-18088423D01*
X184210611Y-18015012D01*
X184286806Y-17916672D01*
X184331722Y-17791182D01*
X184346911Y-17636317D01*
X184346932Y-17626265D01*
X184344730Y-17533305D01*
X184339019Y-17447972D01*
X184330916Y-17387609D01*
X184314082Y-17308234D01*
X185034860Y-17308234D01*
X185047615Y-17366442D01*
X185058310Y-17411939D01*
X185069928Y-17454778D01*
X185077280Y-17498224D01*
X185081284Y-17578080D01*
X185080845Y-17678265D01*
X185076458Y-17787117D01*
X185068622Y-17892976D01*
X185057833Y-17984180D01*
X185044589Y-18049067D01*
X185004112Y-18162311D01*
X184905334Y-18345333D01*
X184774266Y-18502412D01*
X184612965Y-18631705D01*
X184423488Y-18731366D01*
X184207891Y-18799550D01*
X184128335Y-18812006D01*
X184010329Y-18821048D01*
X183871065Y-18825297D01*
X183721115Y-18824949D01*
X183571053Y-18820197D01*
X183431451Y-18811237D01*
X183312881Y-18798262D01*
X183225917Y-18781469D01*
X183201524Y-18774540D01*
X182981516Y-18692036D01*
X182783084Y-18581050D01*
X182610793Y-18445118D01*
X182469206Y-18287778D01*
X182362888Y-18112567D01*
X182362050Y-18110805D01*
X182301309Y-17962729D01*
X182263256Y-17816374D01*
X182245351Y-17657980D01*
X182245058Y-17473786D01*
X182247715Y-17413478D01*
X182254838Y-17322483D01*
X182267073Y-17252296D01*
X182287339Y-17188764D01*
X182318560Y-17117734D01*
X182327541Y-17099405D01*
X182428140Y-16946429D01*
X182562924Y-16814460D01*
X182727381Y-16708019D01*
X182773862Y-16684520D01*
X182861952Y-16644350D01*
X182952264Y-16610422D01*
X183054705Y-16579583D01*
X183179184Y-16548683D01*
X183335606Y-16514570D01*
X183385899Y-16503829D01*
X183543921Y-16465867D01*
X183666828Y-16427507D01*
X183760181Y-16385866D01*
X183829544Y-16338061D01*
X183880479Y-16281208D01*
X183918547Y-16212424D01*
X183945153Y-16124743D01*
X183944429Y-16015107D01*
X183907118Y-15913179D01*
X183836457Y-15822829D01*
X183735679Y-15747929D01*
X183608021Y-15692347D01*
X183456717Y-15659953D01*
X183311845Y-15651276D01*
X183146613Y-15665969D01*
X183003454Y-15707731D01*
X182886907Y-15775128D01*
X182801508Y-15866729D01*
X182785038Y-15894809D01*
X182746404Y-16002860D01*
X182732276Y-16122502D01*
X182745599Y-16234366D01*
X182767421Y-16313401D01*
X182400897Y-16313401D01*
X182034373Y-16313400D01*
X182009645Y-16138776D01*
X182001452Y-16068351D01*
X182000652Y-15884573D01*
X182034205Y-15711666D01*
X182104106Y-15536908D01*
X182128980Y-15489859D01*
X182227986Y-15349904D01*
X182355689Y-15231632D01*
X182516041Y-15131866D01*
X182712993Y-15047429D01*
X182763181Y-15030044D01*
X182814808Y-15015076D01*
X182867834Y-15004647D01*
X182930446Y-14997918D01*
X183010832Y-14994049D01*
X183117177Y-14992199D01*
X183257667Y-14991528D01*
X183339908Y-14991547D01*
G37*
D10*
X183339908Y-14991547D02*
X183473759Y-14993062D01*
X183577376Y-14997011D01*
X183658760Y-15003962D01*
X183725912Y-15014485D01*
X183786833Y-15029148D01*
X183964764Y-15089782D01*
X184168993Y-15192160D01*
X184343169Y-15320089D01*
X184485213Y-15471654D01*
X184593046Y-15644939D01*
X184664590Y-15838030D01*
X184670175Y-15861035D01*
X184691832Y-16008706D01*
X184696237Y-16170996D01*
X184683677Y-16330022D01*
X184654441Y-16467900D01*
X184612075Y-16575887D01*
X184515852Y-16732526D01*
X184387407Y-16871153D01*
X184232333Y-16986121D01*
X184056223Y-17071784D01*
X184050955Y-17073705D01*
X183983655Y-17094318D01*
X183888022Y-17119195D01*
X183776030Y-17145372D01*
X183659654Y-17169890D01*
X183593328Y-17183660D01*
X183399131Y-17233375D01*
X183246410Y-17288998D01*
X183134807Y-17350680D01*
X183063960Y-17418570D01*
X183061233Y-17422524D01*
X183026808Y-17501706D01*
X183008219Y-17603173D01*
X183007124Y-17710357D01*
X183025176Y-17806689D01*
X183061300Y-17882192D01*
X183141399Y-17977298D01*
X183249480Y-18056457D01*
X183377339Y-18112545D01*
X183459815Y-18133140D01*
X183600394Y-18152439D01*
X183748578Y-18157947D01*
X183888613Y-18149320D01*
X184004746Y-18126216D01*
X184101586Y-18088423D01*
X184210611Y-18015012D01*
X184286806Y-17916672D01*
X184331722Y-17791182D01*
X184346911Y-17636317D01*
X184346932Y-17626265D01*
X184344730Y-17533305D01*
X184339019Y-17447972D01*
X184330916Y-17387609D01*
X184314082Y-17308234D01*
X185034860Y-17308234D01*
X185047615Y-17366442D01*
X185058310Y-17411939D01*
X185069928Y-17454778D01*
X185077280Y-17498224D01*
X185081284Y-17578080D01*
X185080845Y-17678265D01*
X185076458Y-17787117D01*
X185068622Y-17892976D01*
X185057833Y-17984180D01*
X185044589Y-18049067D01*
X185004112Y-18162311D01*
X184905334Y-18345333D01*
X184774266Y-18502412D01*
X184612965Y-18631705D01*
X184423488Y-18731366D01*
X184207891Y-18799550D01*
X184128335Y-18812006D01*
X184010329Y-18821048D01*
X183871065Y-18825297D01*
X183721115Y-18824949D01*
X183571053Y-18820197D01*
X183431451Y-18811237D01*
X183312881Y-18798262D01*
X183225917Y-18781469D01*
X183201524Y-18774540D01*
X182981516Y-18692036D01*
X182783084Y-18581050D01*
X182610793Y-18445118D01*
X182469206Y-18287778D01*
X182362888Y-18112567D01*
X182362050Y-18110805D01*
X182301309Y-17962729D01*
X182263256Y-17816374D01*
X182245351Y-17657980D01*
X182245058Y-17473786D01*
X182247715Y-17413478D01*
X182254838Y-17322483D01*
X182267073Y-17252296D01*
X182287339Y-17188764D01*
X182318560Y-17117734D01*
X182327541Y-17099405D01*
X182428140Y-16946429D01*
X182562924Y-16814460D01*
X182727381Y-16708019D01*
X182773862Y-16684520D01*
X182861952Y-16644350D01*
X182952264Y-16610422D01*
X183054705Y-16579583D01*
X183179184Y-16548683D01*
X183335606Y-16514570D01*
X183385899Y-16503829D01*
X183543921Y-16465867D01*
X183666828Y-16427507D01*
X183760181Y-16385866D01*
X183829544Y-16338061D01*
X183880479Y-16281208D01*
X183918547Y-16212424D01*
X183945153Y-16124743D01*
X183944429Y-16015107D01*
X183907118Y-15913179D01*
X183836457Y-15822829D01*
X183735679Y-15747929D01*
X183608021Y-15692347D01*
X183456717Y-15659953D01*
X183311845Y-15651276D01*
X183146613Y-15665969D01*
X183003454Y-15707731D01*
X182886907Y-15775128D01*
X182801508Y-15866729D01*
X182785038Y-15894809D01*
X182746404Y-16002860D01*
X182732276Y-16122502D01*
X182745599Y-16234366D01*
X182767421Y-16313401D01*
X182400897Y-16313401D01*
X182034373Y-16313400D01*
X182009645Y-16138776D01*
X182001452Y-16068351D01*
X182000652Y-15884573D01*
X182034205Y-15711666D01*
X182104106Y-15536908D01*
X182128980Y-15489859D01*
X182227986Y-15349904D01*
X182355689Y-15231632D01*
X182516041Y-15131866D01*
X182712993Y-15047429D01*
X182763181Y-15030044D01*
X182814808Y-15015076D01*
X182867834Y-15004647D01*
X182930446Y-14997918D01*
X183010832Y-14994049D01*
X183117177Y-14992199D01*
X183257667Y-14991528D01*
X183339908Y-14991547D01*
G36*
X187745000Y-15719875D02*
G01*
X187315462Y-15725596D01*
X186885923Y-15731317D01*
X187112551Y-16800234D01*
X187123888Y-16853700D01*
X187168135Y-17062267D01*
X187210182Y-17260302D01*
X187249091Y-17443393D01*
X187283922Y-17607128D01*
X187313736Y-17747096D01*
X187337595Y-17858884D01*
X187354560Y-17938081D01*
X187363691Y-17980276D01*
X187388203Y-18091401D01*
X188231833Y-18091401D01*
X188231833Y-18768734D01*
X185818833Y-18768734D01*
X185818833Y-18091401D01*
X186242167Y-18091401D01*
X186268488Y-18091390D01*
X186394472Y-18091044D01*
X186503403Y-18090264D01*
X186588961Y-18089128D01*
X186644827Y-18087717D01*
X186664680Y-18086109D01*
X186662159Y-18074047D01*
X186651669Y-18024420D01*
X186633752Y-17939855D01*
X186609193Y-17824054D01*
X186578778Y-17680717D01*
X186543293Y-17513549D01*
X186503524Y-17326249D01*
X186460255Y-17122521D01*
X186414272Y-16906067D01*
X186164685Y-15731317D01*
X185310833Y-15719857D01*
X185310833Y-15043401D01*
X187745000Y-15043401D01*
X187745000Y-15719875D01*
G37*
X187745000Y-15719875D02*
X187315462Y-15725596D01*
X186885923Y-15731317D01*
X187112551Y-16800234D01*
X187123888Y-16853700D01*
X187168135Y-17062267D01*
X187210182Y-17260302D01*
X187249091Y-17443393D01*
X187283922Y-17607128D01*
X187313736Y-17747096D01*
X187337595Y-17858884D01*
X187354560Y-17938081D01*
X187363691Y-17980276D01*
X187388203Y-18091401D01*
X188231833Y-18091401D01*
X188231833Y-18768734D01*
X185818833Y-18768734D01*
X185818833Y-18091401D01*
X186242167Y-18091401D01*
X186268488Y-18091390D01*
X186394472Y-18091044D01*
X186503403Y-18090264D01*
X186588961Y-18089128D01*
X186644827Y-18087717D01*
X186664680Y-18086109D01*
X186662159Y-18074047D01*
X186651669Y-18024420D01*
X186633752Y-17939855D01*
X186609193Y-17824054D01*
X186578778Y-17680717D01*
X186543293Y-17513549D01*
X186503524Y-17326249D01*
X186460255Y-17122521D01*
X186414272Y-16906067D01*
X186164685Y-15731317D01*
X185310833Y-15719857D01*
X185310833Y-15043401D01*
X187745000Y-15043401D01*
X187745000Y-15719875D01*
G36*
X180169185Y-14992301D02*
G01*
X180312718Y-14997063D01*
X180431188Y-15007588D01*
X180533849Y-15025564D01*
X180629957Y-15052677D01*
X180728767Y-15090614D01*
X180839531Y-15141062D01*
X180853741Y-15148015D01*
X180995326Y-15234011D01*
X181128968Y-15343133D01*
X181243446Y-15465068D01*
X181327538Y-15589505D01*
X181338524Y-15610690D01*
X181411875Y-15796364D01*
X181452300Y-15991843D01*
X181460053Y-16189546D01*
X181435387Y-16381891D01*
X181378554Y-16561297D01*
X181289808Y-16720182D01*
X181235879Y-16789420D01*
X181141682Y-16884609D01*
X181031572Y-16965043D01*
X180900272Y-17033300D01*
X180742508Y-17091957D01*
X180553003Y-17143590D01*
X180326481Y-17190778D01*
X180256308Y-17205529D01*
X180112448Y-17247180D01*
X179987478Y-17298939D01*
X179889211Y-17357253D01*
X179825460Y-17418570D01*
X179822733Y-17422524D01*
X179788308Y-17501706D01*
X179769719Y-17603173D01*
X179768624Y-17710357D01*
X179786676Y-17806689D01*
X179822820Y-17882212D01*
X179902919Y-17977303D01*
X180010993Y-18056483D01*
X180138839Y-18112627D01*
X180223192Y-18133699D01*
X180363897Y-18153024D01*
X180511691Y-18158520D01*
X180650999Y-18149840D01*
X180766246Y-18126635D01*
X180863227Y-18088451D01*
X180972316Y-18014780D01*
X181048453Y-17916430D01*
X181093273Y-17791057D01*
X181108411Y-17636317D01*
X181108432Y-17626265D01*
X181106230Y-17533305D01*
X181100519Y-17447972D01*
X181092416Y-17387609D01*
X181075582Y-17308234D01*
X181434948Y-17308234D01*
X181437975Y-17308233D01*
X181572047Y-17307729D01*
X181670003Y-17308789D01*
X181737885Y-17315145D01*
X181781734Y-17330529D01*
X181807589Y-17358673D01*
X181821491Y-17403309D01*
X181829482Y-17468168D01*
X181837602Y-17556981D01*
X181844903Y-17752548D01*
X181820032Y-17973177D01*
X181759454Y-18173420D01*
X181664554Y-18351297D01*
X181536714Y-18504828D01*
X181377318Y-18632034D01*
X181187749Y-18730934D01*
X180969391Y-18799550D01*
X180889835Y-18812006D01*
X180771829Y-18821048D01*
X180632565Y-18825297D01*
X180482615Y-18824949D01*
X180332553Y-18820197D01*
X180192951Y-18811237D01*
X180074381Y-18798262D01*
X179987417Y-18781469D01*
X179963024Y-18774540D01*
X179743016Y-18692036D01*
X179544584Y-18581050D01*
X179372293Y-18445118D01*
X179230706Y-18287778D01*
X179124388Y-18112567D01*
X179123550Y-18110805D01*
X179062809Y-17962729D01*
X179024756Y-17816374D01*
X179006851Y-17657980D01*
X179006558Y-17473786D01*
X179009215Y-17413478D01*
X179016338Y-17322483D01*
X179028573Y-17252296D01*
X179048839Y-17188764D01*
X179080060Y-17117734D01*
X179089041Y-17099405D01*
X179189640Y-16946429D01*
X179324424Y-16814460D01*
X179488881Y-16708019D01*
X179535362Y-16684520D01*
X179623452Y-16644350D01*
X179713764Y-16610422D01*
X179816205Y-16579583D01*
X179940684Y-16548683D01*
X180097106Y-16514570D01*
X180147399Y-16503829D01*
X180305421Y-16465867D01*
X180428328Y-16427507D01*
X180521681Y-16385866D01*
X180591044Y-16338061D01*
X180641979Y-16281208D01*
X180680047Y-16212424D01*
X180703929Y-16141124D01*
X180710167Y-16031988D01*
X180680172Y-15931438D01*
X180617573Y-15842190D01*
X180525999Y-15766958D01*
X180409078Y-15708458D01*
X180270440Y-15669406D01*
X180113712Y-15652517D01*
X179942524Y-15660506D01*
X179794087Y-15695310D01*
X179671793Y-15758777D01*
X179579046Y-15847086D01*
X179518757Y-15956474D01*
X179493834Y-16083180D01*
X179507187Y-16223442D01*
X179527834Y-16313401D01*
X179159667Y-16313401D01*
X179125291Y-16313366D01*
X178993379Y-16312269D01*
X178898405Y-16309394D01*
X178835967Y-16304426D01*
X178801660Y-16297047D01*
X178791081Y-16286942D01*
X178788141Y-16254941D01*
X178780551Y-16193853D01*
X178770000Y-16117609D01*
X178760134Y-15955929D01*
X178783758Y-15763735D01*
X178844241Y-15582725D01*
X178939018Y-15418336D01*
X179065524Y-15276007D01*
X179221194Y-15161173D01*
X179290381Y-15125140D01*
X179382381Y-15083725D01*
X179474493Y-15047429D01*
X179524681Y-15030044D01*
X179576308Y-15015076D01*
X179629334Y-15004647D01*
X179691946Y-14997918D01*
X179772332Y-14994049D01*
X179878677Y-14992199D01*
X180019167Y-14991528D01*
X180169185Y-14992301D01*
G37*
X180169185Y-14992301D02*
X180312718Y-14997063D01*
X180431188Y-15007588D01*
X180533849Y-15025564D01*
X180629957Y-15052677D01*
X180728767Y-15090614D01*
X180839531Y-15141062D01*
X180853741Y-15148015D01*
X180995326Y-15234011D01*
X181128968Y-15343133D01*
X181243446Y-15465068D01*
X181327538Y-15589505D01*
X181338524Y-15610690D01*
X181411875Y-15796364D01*
X181452300Y-15991843D01*
X181460053Y-16189546D01*
X181435387Y-16381891D01*
X181378554Y-16561297D01*
X181289808Y-16720182D01*
X181235879Y-16789420D01*
X181141682Y-16884609D01*
X181031572Y-16965043D01*
X180900272Y-17033300D01*
X180742508Y-17091957D01*
X180553003Y-17143590D01*
X180326481Y-17190778D01*
X180256308Y-17205529D01*
X180112448Y-17247180D01*
X179987478Y-17298939D01*
X179889211Y-17357253D01*
X179825460Y-17418570D01*
X179822733Y-17422524D01*
X179788308Y-17501706D01*
X179769719Y-17603173D01*
X179768624Y-17710357D01*
X179786676Y-17806689D01*
X179822820Y-17882212D01*
X179902919Y-17977303D01*
X180010993Y-18056483D01*
X180138839Y-18112627D01*
X180223192Y-18133699D01*
X180363897Y-18153024D01*
X180511691Y-18158520D01*
X180650999Y-18149840D01*
X180766246Y-18126635D01*
X180863227Y-18088451D01*
X180972316Y-18014780D01*
X181048453Y-17916430D01*
X181093273Y-17791057D01*
X181108411Y-17636317D01*
X181108432Y-17626265D01*
X181106230Y-17533305D01*
X181100519Y-17447972D01*
X181092416Y-17387609D01*
X181075582Y-17308234D01*
X181434948Y-17308234D01*
X181437975Y-17308233D01*
X181572047Y-17307729D01*
X181670003Y-17308789D01*
X181737885Y-17315145D01*
X181781734Y-17330529D01*
X181807589Y-17358673D01*
X181821491Y-17403309D01*
X181829482Y-17468168D01*
X181837602Y-17556981D01*
X181844903Y-17752548D01*
X181820032Y-17973177D01*
X181759454Y-18173420D01*
X181664554Y-18351297D01*
X181536714Y-18504828D01*
X181377318Y-18632034D01*
X181187749Y-18730934D01*
X180969391Y-18799550D01*
X180889835Y-18812006D01*
X180771829Y-18821048D01*
X180632565Y-18825297D01*
X180482615Y-18824949D01*
X180332553Y-18820197D01*
X180192951Y-18811237D01*
X180074381Y-18798262D01*
X179987417Y-18781469D01*
X179963024Y-18774540D01*
X179743016Y-18692036D01*
X179544584Y-18581050D01*
X179372293Y-18445118D01*
X179230706Y-18287778D01*
X179124388Y-18112567D01*
X179123550Y-18110805D01*
X179062809Y-17962729D01*
X179024756Y-17816374D01*
X179006851Y-17657980D01*
X179006558Y-17473786D01*
X179009215Y-17413478D01*
X179016338Y-17322483D01*
X179028573Y-17252296D01*
X179048839Y-17188764D01*
X179080060Y-17117734D01*
X179089041Y-17099405D01*
X179189640Y-16946429D01*
X179324424Y-16814460D01*
X179488881Y-16708019D01*
X179535362Y-16684520D01*
X179623452Y-16644350D01*
X179713764Y-16610422D01*
X179816205Y-16579583D01*
X179940684Y-16548683D01*
X180097106Y-16514570D01*
X180147399Y-16503829D01*
X180305421Y-16465867D01*
X180428328Y-16427507D01*
X180521681Y-16385866D01*
X180591044Y-16338061D01*
X180641979Y-16281208D01*
X180680047Y-16212424D01*
X180703929Y-16141124D01*
X180710167Y-16031988D01*
X180680172Y-15931438D01*
X180617573Y-15842190D01*
X180525999Y-15766958D01*
X180409078Y-15708458D01*
X180270440Y-15669406D01*
X180113712Y-15652517D01*
X179942524Y-15660506D01*
X179794087Y-15695310D01*
X179671793Y-15758777D01*
X179579046Y-15847086D01*
X179518757Y-15956474D01*
X179493834Y-16083180D01*
X179507187Y-16223442D01*
X179527834Y-16313401D01*
X179159667Y-16313401D01*
X179125291Y-16313366D01*
X178993379Y-16312269D01*
X178898405Y-16309394D01*
X178835967Y-16304426D01*
X178801660Y-16297047D01*
X178791081Y-16286942D01*
X178788141Y-16254941D01*
X178780551Y-16193853D01*
X178770000Y-16117609D01*
X178760134Y-15955929D01*
X178783758Y-15763735D01*
X178844241Y-15582725D01*
X178939018Y-15418336D01*
X179065524Y-15276007D01*
X179221194Y-15161173D01*
X179290381Y-15125140D01*
X179382381Y-15083725D01*
X179474493Y-15047429D01*
X179524681Y-15030044D01*
X179576308Y-15015076D01*
X179629334Y-15004647D01*
X179691946Y-14997918D01*
X179772332Y-14994049D01*
X179878677Y-14992199D01*
X180019167Y-14991528D01*
X180169185Y-14992301D01*
G36*
X140289908Y-14991547D02*
G01*
X140423759Y-14993062D01*
X140527376Y-14997011D01*
X140608760Y-15003962D01*
X140675912Y-15014485D01*
X140736833Y-15029148D01*
X140914764Y-15089782D01*
X141118993Y-15192160D01*
X141293169Y-15320089D01*
X141435213Y-15471654D01*
X141543046Y-15644939D01*
X141614590Y-15838030D01*
X141620175Y-15861035D01*
X141641832Y-16008706D01*
X141646237Y-16170996D01*
X141633677Y-16330022D01*
X141604441Y-16467900D01*
X141562075Y-16575887D01*
X141465852Y-16732526D01*
X141337407Y-16871153D01*
X141182333Y-16986121D01*
X141006223Y-17071784D01*
X141000955Y-17073705D01*
X140933655Y-17094318D01*
X140838022Y-17119195D01*
X140726030Y-17145372D01*
X140609654Y-17169890D01*
X140543328Y-17183660D01*
X140349131Y-17233375D01*
X140196410Y-17288998D01*
X140084807Y-17350680D01*
X140013960Y-17418570D01*
X140011233Y-17422524D01*
X139976808Y-17501706D01*
X139958219Y-17603173D01*
X139957124Y-17710357D01*
X139975176Y-17806689D01*
X140011300Y-17882192D01*
X140091399Y-17977298D01*
X140199480Y-18056457D01*
X140327339Y-18112545D01*
X140409815Y-18133140D01*
X140550394Y-18152439D01*
X140698578Y-18157947D01*
X140838613Y-18149320D01*
X140954746Y-18126216D01*
X141051586Y-18088423D01*
X141160611Y-18015012D01*
X141236806Y-17916672D01*
X141281722Y-17791182D01*
X141296911Y-17636317D01*
X141296932Y-17626265D01*
X141294730Y-17533305D01*
X141289019Y-17447972D01*
X141280916Y-17387609D01*
X141264082Y-17308234D01*
X141984860Y-17308234D01*
X141997615Y-17366442D01*
X142008310Y-17411939D01*
X142019928Y-17454778D01*
X142027280Y-17498224D01*
X142031284Y-17578080D01*
X142030845Y-17678265D01*
X142026458Y-17787117D01*
X142018622Y-17892976D01*
X142007833Y-17984180D01*
X141994589Y-18049067D01*
X141954112Y-18162311D01*
X141855334Y-18345333D01*
X141724266Y-18502412D01*
X141562965Y-18631705D01*
X141373488Y-18731366D01*
X141157891Y-18799550D01*
X141078335Y-18812006D01*
X140960329Y-18821048D01*
X140821065Y-18825297D01*
X140671115Y-18824949D01*
X140521053Y-18820197D01*
X140381451Y-18811237D01*
X140262881Y-18798262D01*
X140175917Y-18781469D01*
X140151524Y-18774540D01*
X139931516Y-18692036D01*
X139733084Y-18581050D01*
X139560793Y-18445118D01*
X139419206Y-18287778D01*
X139312888Y-18112567D01*
X139312050Y-18110805D01*
X139251309Y-17962729D01*
X139213256Y-17816374D01*
X139195351Y-17657980D01*
X139195058Y-17473786D01*
X139197715Y-17413478D01*
X139204838Y-17322483D01*
X139217073Y-17252296D01*
X139237339Y-17188764D01*
X139268560Y-17117734D01*
X139277541Y-17099405D01*
X139378140Y-16946429D01*
X139512924Y-16814460D01*
X139677381Y-16708019D01*
X139723862Y-16684520D01*
X139811952Y-16644350D01*
X139902264Y-16610422D01*
X140004705Y-16579583D01*
X140129184Y-16548683D01*
X140285606Y-16514570D01*
X140335899Y-16503829D01*
X140493921Y-16465867D01*
X140616828Y-16427507D01*
X140710181Y-16385866D01*
X140779544Y-16338061D01*
X140830479Y-16281208D01*
X140868547Y-16212424D01*
X140895153Y-16124743D01*
X140894429Y-16015107D01*
X140857118Y-15913179D01*
X140786457Y-15822829D01*
X140685679Y-15747929D01*
X140558021Y-15692347D01*
X140406717Y-15659953D01*
X140261845Y-15651276D01*
X140096613Y-15665969D01*
X139953454Y-15707731D01*
X139836907Y-15775128D01*
X139751508Y-15866729D01*
X139735038Y-15894809D01*
X139696404Y-16002860D01*
X139682276Y-16122502D01*
X139695599Y-16234366D01*
X139717421Y-16313401D01*
X139350897Y-16313401D01*
X138984373Y-16313400D01*
X138959645Y-16138776D01*
X138951452Y-16068351D01*
X138950652Y-15884573D01*
X138984205Y-15711666D01*
X139054106Y-15536908D01*
X139078980Y-15489859D01*
X139177986Y-15349904D01*
X139305689Y-15231632D01*
X139466041Y-15131866D01*
X139662993Y-15047429D01*
X139713181Y-15030044D01*
X139764808Y-15015076D01*
X139817834Y-15004647D01*
X139880446Y-14997918D01*
X139960832Y-14994049D01*
X140067177Y-14992199D01*
X140207667Y-14991528D01*
X140289908Y-14991547D01*
G37*
X140289908Y-14991547D02*
X140423759Y-14993062D01*
X140527376Y-14997011D01*
X140608760Y-15003962D01*
X140675912Y-15014485D01*
X140736833Y-15029148D01*
X140914764Y-15089782D01*
X141118993Y-15192160D01*
X141293169Y-15320089D01*
X141435213Y-15471654D01*
X141543046Y-15644939D01*
X141614590Y-15838030D01*
X141620175Y-15861035D01*
X141641832Y-16008706D01*
X141646237Y-16170996D01*
X141633677Y-16330022D01*
X141604441Y-16467900D01*
X141562075Y-16575887D01*
X141465852Y-16732526D01*
X141337407Y-16871153D01*
X141182333Y-16986121D01*
X141006223Y-17071784D01*
X141000955Y-17073705D01*
X140933655Y-17094318D01*
X140838022Y-17119195D01*
X140726030Y-17145372D01*
X140609654Y-17169890D01*
X140543328Y-17183660D01*
X140349131Y-17233375D01*
X140196410Y-17288998D01*
X140084807Y-17350680D01*
X140013960Y-17418570D01*
X140011233Y-17422524D01*
X139976808Y-17501706D01*
X139958219Y-17603173D01*
X139957124Y-17710357D01*
X139975176Y-17806689D01*
X140011300Y-17882192D01*
X140091399Y-17977298D01*
X140199480Y-18056457D01*
X140327339Y-18112545D01*
X140409815Y-18133140D01*
X140550394Y-18152439D01*
X140698578Y-18157947D01*
X140838613Y-18149320D01*
X140954746Y-18126216D01*
X141051586Y-18088423D01*
X141160611Y-18015012D01*
X141236806Y-17916672D01*
X141281722Y-17791182D01*
X141296911Y-17636317D01*
X141296932Y-17626265D01*
X141294730Y-17533305D01*
X141289019Y-17447972D01*
X141280916Y-17387609D01*
X141264082Y-17308234D01*
X141984860Y-17308234D01*
X141997615Y-17366442D01*
X142008310Y-17411939D01*
X142019928Y-17454778D01*
X142027280Y-17498224D01*
X142031284Y-17578080D01*
X142030845Y-17678265D01*
X142026458Y-17787117D01*
X142018622Y-17892976D01*
X142007833Y-17984180D01*
X141994589Y-18049067D01*
X141954112Y-18162311D01*
X141855334Y-18345333D01*
X141724266Y-18502412D01*
X141562965Y-18631705D01*
X141373488Y-18731366D01*
X141157891Y-18799550D01*
X141078335Y-18812006D01*
X140960329Y-18821048D01*
X140821065Y-18825297D01*
X140671115Y-18824949D01*
X140521053Y-18820197D01*
X140381451Y-18811237D01*
X140262881Y-18798262D01*
X140175917Y-18781469D01*
X140151524Y-18774540D01*
X139931516Y-18692036D01*
X139733084Y-18581050D01*
X139560793Y-18445118D01*
X139419206Y-18287778D01*
X139312888Y-18112567D01*
X139312050Y-18110805D01*
X139251309Y-17962729D01*
X139213256Y-17816374D01*
X139195351Y-17657980D01*
X139195058Y-17473786D01*
X139197715Y-17413478D01*
X139204838Y-17322483D01*
X139217073Y-17252296D01*
X139237339Y-17188764D01*
X139268560Y-17117734D01*
X139277541Y-17099405D01*
X139378140Y-16946429D01*
X139512924Y-16814460D01*
X139677381Y-16708019D01*
X139723862Y-16684520D01*
X139811952Y-16644350D01*
X139902264Y-16610422D01*
X140004705Y-16579583D01*
X140129184Y-16548683D01*
X140285606Y-16514570D01*
X140335899Y-16503829D01*
X140493921Y-16465867D01*
X140616828Y-16427507D01*
X140710181Y-16385866D01*
X140779544Y-16338061D01*
X140830479Y-16281208D01*
X140868547Y-16212424D01*
X140895153Y-16124743D01*
X140894429Y-16015107D01*
X140857118Y-15913179D01*
X140786457Y-15822829D01*
X140685679Y-15747929D01*
X140558021Y-15692347D01*
X140406717Y-15659953D01*
X140261845Y-15651276D01*
X140096613Y-15665969D01*
X139953454Y-15707731D01*
X139836907Y-15775128D01*
X139751508Y-15866729D01*
X139735038Y-15894809D01*
X139696404Y-16002860D01*
X139682276Y-16122502D01*
X139695599Y-16234366D01*
X139717421Y-16313401D01*
X139350897Y-16313401D01*
X138984373Y-16313400D01*
X138959645Y-16138776D01*
X138951452Y-16068351D01*
X138950652Y-15884573D01*
X138984205Y-15711666D01*
X139054106Y-15536908D01*
X139078980Y-15489859D01*
X139177986Y-15349904D01*
X139305689Y-15231632D01*
X139466041Y-15131866D01*
X139662993Y-15047429D01*
X139713181Y-15030044D01*
X139764808Y-15015076D01*
X139817834Y-15004647D01*
X139880446Y-14997918D01*
X139960832Y-14994049D01*
X140067177Y-14992199D01*
X140207667Y-14991528D01*
X140289908Y-14991547D01*
G36*
X137119185Y-14992301D02*
G01*
X137262718Y-14997063D01*
X137381188Y-15007588D01*
X137483849Y-15025564D01*
X137579957Y-15052677D01*
X137678767Y-15090614D01*
X137789531Y-15141062D01*
X137803741Y-15148015D01*
X137945326Y-15234011D01*
X138078968Y-15343133D01*
X138193446Y-15465068D01*
X138277538Y-15589505D01*
X138288524Y-15610690D01*
X138361875Y-15796364D01*
X138402300Y-15991843D01*
X138410053Y-16189546D01*
X138385387Y-16381891D01*
X138328554Y-16561297D01*
X138239808Y-16720182D01*
X138185879Y-16789420D01*
X138091682Y-16884609D01*
X137981572Y-16965043D01*
X137850272Y-17033300D01*
X137692508Y-17091957D01*
X137503003Y-17143590D01*
X137276481Y-17190778D01*
X137206308Y-17205529D01*
X137062448Y-17247180D01*
X136937478Y-17298939D01*
X136839211Y-17357253D01*
X136775460Y-17418570D01*
X136772733Y-17422524D01*
X136738308Y-17501706D01*
X136719719Y-17603173D01*
X136718624Y-17710357D01*
X136736676Y-17806689D01*
X136772820Y-17882212D01*
X136852919Y-17977303D01*
X136960993Y-18056483D01*
X137088839Y-18112627D01*
X137173192Y-18133699D01*
X137313897Y-18153024D01*
X137461691Y-18158520D01*
X137600999Y-18149840D01*
X137716246Y-18126635D01*
X137813227Y-18088451D01*
X137922316Y-18014780D01*
X137998453Y-17916430D01*
X138043273Y-17791057D01*
X138058411Y-17636317D01*
X138058432Y-17626265D01*
X138056230Y-17533305D01*
X138050519Y-17447972D01*
X138042416Y-17387609D01*
X138025582Y-17308234D01*
X138384948Y-17308234D01*
X138387975Y-17308233D01*
X138522047Y-17307729D01*
X138620003Y-17308789D01*
X138687885Y-17315145D01*
X138731734Y-17330529D01*
X138757589Y-17358673D01*
X138771491Y-17403309D01*
X138779482Y-17468168D01*
X138787602Y-17556981D01*
X138794903Y-17752548D01*
X138770032Y-17973177D01*
X138709454Y-18173420D01*
X138614554Y-18351297D01*
X138486714Y-18504828D01*
X138327318Y-18632034D01*
X138137749Y-18730934D01*
X137919391Y-18799550D01*
X137839835Y-18812006D01*
X137721829Y-18821048D01*
X137582565Y-18825297D01*
X137432615Y-18824949D01*
X137282553Y-18820197D01*
X137142951Y-18811237D01*
X137024381Y-18798262D01*
X136937417Y-18781469D01*
X136913024Y-18774540D01*
X136693016Y-18692036D01*
X136494584Y-18581050D01*
X136322293Y-18445118D01*
X136180706Y-18287778D01*
X136074388Y-18112567D01*
X136073550Y-18110805D01*
X136012809Y-17962729D01*
X135974756Y-17816374D01*
X135956851Y-17657980D01*
X135956558Y-17473786D01*
X135959215Y-17413478D01*
X135966338Y-17322483D01*
X135978573Y-17252296D01*
X135998839Y-17188764D01*
X136030060Y-17117734D01*
X136039041Y-17099405D01*
X136139640Y-16946429D01*
X136274424Y-16814460D01*
X136438881Y-16708019D01*
X136485362Y-16684520D01*
X136573452Y-16644350D01*
X136663764Y-16610422D01*
X136766205Y-16579583D01*
X136890684Y-16548683D01*
X137047106Y-16514570D01*
X137097399Y-16503829D01*
X137255421Y-16465867D01*
X137378328Y-16427507D01*
X137471681Y-16385866D01*
X137541044Y-16338061D01*
X137591979Y-16281208D01*
X137630047Y-16212424D01*
X137653929Y-16141124D01*
X137660167Y-16031988D01*
X137630172Y-15931438D01*
X137567573Y-15842190D01*
X137475999Y-15766958D01*
X137359078Y-15708458D01*
X137220440Y-15669406D01*
X137063712Y-15652517D01*
X136892524Y-15660506D01*
X136744087Y-15695310D01*
X136621793Y-15758777D01*
X136529046Y-15847086D01*
X136468757Y-15956474D01*
X136443834Y-16083180D01*
X136457187Y-16223442D01*
X136477834Y-16313401D01*
X136109667Y-16313401D01*
X136075291Y-16313366D01*
X135943379Y-16312269D01*
X135848405Y-16309394D01*
X135785967Y-16304426D01*
X135751660Y-16297047D01*
X135741081Y-16286942D01*
X135738141Y-16254941D01*
X135730551Y-16193853D01*
X135720000Y-16117609D01*
X135710134Y-15955929D01*
X135733758Y-15763735D01*
X135794241Y-15582725D01*
X135889018Y-15418336D01*
X136015524Y-15276007D01*
X136171194Y-15161173D01*
X136240381Y-15125140D01*
X136332381Y-15083725D01*
X136424493Y-15047429D01*
X136474681Y-15030044D01*
X136526308Y-15015076D01*
X136579334Y-15004647D01*
X136641946Y-14997918D01*
X136722332Y-14994049D01*
X136828677Y-14992199D01*
X136969167Y-14991528D01*
X137119185Y-14992301D01*
G37*
X137119185Y-14992301D02*
X137262718Y-14997063D01*
X137381188Y-15007588D01*
X137483849Y-15025564D01*
X137579957Y-15052677D01*
X137678767Y-15090614D01*
X137789531Y-15141062D01*
X137803741Y-15148015D01*
X137945326Y-15234011D01*
X138078968Y-15343133D01*
X138193446Y-15465068D01*
X138277538Y-15589505D01*
X138288524Y-15610690D01*
X138361875Y-15796364D01*
X138402300Y-15991843D01*
X138410053Y-16189546D01*
X138385387Y-16381891D01*
X138328554Y-16561297D01*
X138239808Y-16720182D01*
X138185879Y-16789420D01*
X138091682Y-16884609D01*
X137981572Y-16965043D01*
X137850272Y-17033300D01*
X137692508Y-17091957D01*
X137503003Y-17143590D01*
X137276481Y-17190778D01*
X137206308Y-17205529D01*
X137062448Y-17247180D01*
X136937478Y-17298939D01*
X136839211Y-17357253D01*
X136775460Y-17418570D01*
X136772733Y-17422524D01*
X136738308Y-17501706D01*
X136719719Y-17603173D01*
X136718624Y-17710357D01*
X136736676Y-17806689D01*
X136772820Y-17882212D01*
X136852919Y-17977303D01*
X136960993Y-18056483D01*
X137088839Y-18112627D01*
X137173192Y-18133699D01*
X137313897Y-18153024D01*
X137461691Y-18158520D01*
X137600999Y-18149840D01*
X137716246Y-18126635D01*
X137813227Y-18088451D01*
X137922316Y-18014780D01*
X137998453Y-17916430D01*
X138043273Y-17791057D01*
X138058411Y-17636317D01*
X138058432Y-17626265D01*
X138056230Y-17533305D01*
X138050519Y-17447972D01*
X138042416Y-17387609D01*
X138025582Y-17308234D01*
X138384948Y-17308234D01*
X138387975Y-17308233D01*
X138522047Y-17307729D01*
X138620003Y-17308789D01*
X138687885Y-17315145D01*
X138731734Y-17330529D01*
X138757589Y-17358673D01*
X138771491Y-17403309D01*
X138779482Y-17468168D01*
X138787602Y-17556981D01*
X138794903Y-17752548D01*
X138770032Y-17973177D01*
X138709454Y-18173420D01*
X138614554Y-18351297D01*
X138486714Y-18504828D01*
X138327318Y-18632034D01*
X138137749Y-18730934D01*
X137919391Y-18799550D01*
X137839835Y-18812006D01*
X137721829Y-18821048D01*
X137582565Y-18825297D01*
X137432615Y-18824949D01*
X137282553Y-18820197D01*
X137142951Y-18811237D01*
X137024381Y-18798262D01*
X136937417Y-18781469D01*
X136913024Y-18774540D01*
X136693016Y-18692036D01*
X136494584Y-18581050D01*
X136322293Y-18445118D01*
X136180706Y-18287778D01*
X136074388Y-18112567D01*
X136073550Y-18110805D01*
X136012809Y-17962729D01*
X135974756Y-17816374D01*
X135956851Y-17657980D01*
X135956558Y-17473786D01*
X135959215Y-17413478D01*
X135966338Y-17322483D01*
X135978573Y-17252296D01*
X135998839Y-17188764D01*
X136030060Y-17117734D01*
X136039041Y-17099405D01*
X136139640Y-16946429D01*
X136274424Y-16814460D01*
X136438881Y-16708019D01*
X136485362Y-16684520D01*
X136573452Y-16644350D01*
X136663764Y-16610422D01*
X136766205Y-16579583D01*
X136890684Y-16548683D01*
X137047106Y-16514570D01*
X137097399Y-16503829D01*
X137255421Y-16465867D01*
X137378328Y-16427507D01*
X137471681Y-16385866D01*
X137541044Y-16338061D01*
X137591979Y-16281208D01*
X137630047Y-16212424D01*
X137653929Y-16141124D01*
X137660167Y-16031988D01*
X137630172Y-15931438D01*
X137567573Y-15842190D01*
X137475999Y-15766958D01*
X137359078Y-15708458D01*
X137220440Y-15669406D01*
X137063712Y-15652517D01*
X136892524Y-15660506D01*
X136744087Y-15695310D01*
X136621793Y-15758777D01*
X136529046Y-15847086D01*
X136468757Y-15956474D01*
X136443834Y-16083180D01*
X136457187Y-16223442D01*
X136477834Y-16313401D01*
X136109667Y-16313401D01*
X136075291Y-16313366D01*
X135943379Y-16312269D01*
X135848405Y-16309394D01*
X135785967Y-16304426D01*
X135751660Y-16297047D01*
X135741081Y-16286942D01*
X135738141Y-16254941D01*
X135730551Y-16193853D01*
X135720000Y-16117609D01*
X135710134Y-15955929D01*
X135733758Y-15763735D01*
X135794241Y-15582725D01*
X135889018Y-15418336D01*
X136015524Y-15276007D01*
X136171194Y-15161173D01*
X136240381Y-15125140D01*
X136332381Y-15083725D01*
X136424493Y-15047429D01*
X136474681Y-15030044D01*
X136526308Y-15015076D01*
X136579334Y-15004647D01*
X136641946Y-14997918D01*
X136722332Y-14994049D01*
X136828677Y-14992199D01*
X136969167Y-14991528D01*
X137119185Y-14992301D01*
G36*
X144695000Y-15719875D02*
G01*
X144265462Y-15725596D01*
X143835923Y-15731317D01*
X144062551Y-16800234D01*
X144073888Y-16853700D01*
X144118135Y-17062267D01*
X144160182Y-17260302D01*
X144199091Y-17443393D01*
X144233922Y-17607128D01*
X144263736Y-17747096D01*
X144287595Y-17858884D01*
X144304560Y-17938081D01*
X144313691Y-17980276D01*
X144338203Y-18091401D01*
X145181833Y-18091401D01*
X145181833Y-18768734D01*
X142768833Y-18768734D01*
X142768833Y-18091401D01*
X143192167Y-18091401D01*
X143218488Y-18091390D01*
X143344472Y-18091044D01*
X143453403Y-18090264D01*
X143538961Y-18089128D01*
X143594827Y-18087717D01*
X143614680Y-18086109D01*
X143612159Y-18074047D01*
X143601669Y-18024420D01*
X143583752Y-17939855D01*
X143559193Y-17824054D01*
X143528778Y-17680717D01*
X143493293Y-17513549D01*
X143453524Y-17326249D01*
X143410255Y-17122521D01*
X143364272Y-16906067D01*
X143114685Y-15731317D01*
X142260833Y-15719857D01*
X142260833Y-15043401D01*
X144695000Y-15043401D01*
X144695000Y-15719875D01*
G37*
X144695000Y-15719875D02*
X144265462Y-15725596D01*
X143835923Y-15731317D01*
X144062551Y-16800234D01*
X144073888Y-16853700D01*
X144118135Y-17062267D01*
X144160182Y-17260302D01*
X144199091Y-17443393D01*
X144233922Y-17607128D01*
X144263736Y-17747096D01*
X144287595Y-17858884D01*
X144304560Y-17938081D01*
X144313691Y-17980276D01*
X144338203Y-18091401D01*
X145181833Y-18091401D01*
X145181833Y-18768734D01*
X142768833Y-18768734D01*
X142768833Y-18091401D01*
X143192167Y-18091401D01*
X143218488Y-18091390D01*
X143344472Y-18091044D01*
X143453403Y-18090264D01*
X143538961Y-18089128D01*
X143594827Y-18087717D01*
X143614680Y-18086109D01*
X143612159Y-18074047D01*
X143601669Y-18024420D01*
X143583752Y-17939855D01*
X143559193Y-17824054D01*
X143528778Y-17680717D01*
X143493293Y-17513549D01*
X143453524Y-17326249D01*
X143410255Y-17122521D01*
X143364272Y-16906067D01*
X143114685Y-15731317D01*
X142260833Y-15719857D01*
X142260833Y-15043401D01*
X144695000Y-15043401D01*
X144695000Y-15719875D01*
%TO.C,LO101*%
G36*
X187827472Y-61417724D02*
G01*
X187865769Y-61436071D01*
X187930566Y-61470371D01*
X188014902Y-61516886D01*
X188111817Y-61571881D01*
X188383583Y-61728095D01*
X188389306Y-62138376D01*
X188395028Y-62548658D01*
X188114139Y-62712012D01*
X188060881Y-62742826D01*
X187968734Y-62795332D01*
X187892967Y-62837456D01*
X187840280Y-62865500D01*
X187817375Y-62875767D01*
X187814288Y-62861890D01*
X187810817Y-62810327D01*
X187807743Y-62725229D01*
X187805169Y-62611419D01*
X187803200Y-62473716D01*
X187801942Y-62316941D01*
X187801500Y-62145917D01*
X187801683Y-62036781D01*
X187802823Y-61863297D01*
X187804918Y-61712583D01*
X187807864Y-61588551D01*
X187811558Y-61495112D01*
X187815896Y-61436180D01*
X187820776Y-61415667D01*
X187827472Y-61417724D01*
G37*
X187827472Y-61417724D02*
X187865769Y-61436071D01*
X187930566Y-61470371D01*
X188014902Y-61516886D01*
X188111817Y-61571881D01*
X188383583Y-61728095D01*
X188389306Y-62138376D01*
X188395028Y-62548658D01*
X188114139Y-62712012D01*
X188060881Y-62742826D01*
X187968734Y-62795332D01*
X187892967Y-62837456D01*
X187840280Y-62865500D01*
X187817375Y-62875767D01*
X187814288Y-62861890D01*
X187810817Y-62810327D01*
X187807743Y-62725229D01*
X187805169Y-62611419D01*
X187803200Y-62473716D01*
X187801942Y-62316941D01*
X187801500Y-62145917D01*
X187801683Y-62036781D01*
X187802823Y-61863297D01*
X187804918Y-61712583D01*
X187807864Y-61588551D01*
X187811558Y-61495112D01*
X187815896Y-61436180D01*
X187820776Y-61415667D01*
X187827472Y-61417724D01*
G36*
X189186523Y-61429609D02*
G01*
X189189774Y-61481251D01*
X189192653Y-61566422D01*
X189195064Y-61680299D01*
X189196907Y-61818057D01*
X189198085Y-61974871D01*
X189198500Y-62145917D01*
X189198278Y-62287856D01*
X189197457Y-62447515D01*
X189196103Y-62588964D01*
X189194292Y-62707379D01*
X189192102Y-62797933D01*
X189189608Y-62855804D01*
X189186888Y-62876167D01*
X189178991Y-62872933D01*
X189139966Y-62852547D01*
X189074581Y-62816529D01*
X188989391Y-62768510D01*
X188890950Y-62712125D01*
X188606623Y-62548084D01*
X188605833Y-61735720D01*
X188887301Y-61575693D01*
X188940077Y-61545836D01*
X189032486Y-61494331D01*
X189108362Y-61453048D01*
X189160985Y-61425617D01*
X189183634Y-61415667D01*
X189186523Y-61429609D01*
G37*
X189186523Y-61429609D02*
X189189774Y-61481251D01*
X189192653Y-61566422D01*
X189195064Y-61680299D01*
X189196907Y-61818057D01*
X189198085Y-61974871D01*
X189198500Y-62145917D01*
X189198278Y-62287856D01*
X189197457Y-62447515D01*
X189196103Y-62588964D01*
X189194292Y-62707379D01*
X189192102Y-62797933D01*
X189189608Y-62855804D01*
X189186888Y-62876167D01*
X189178991Y-62872933D01*
X189139966Y-62852547D01*
X189074581Y-62816529D01*
X188989391Y-62768510D01*
X188890950Y-62712125D01*
X188606623Y-62548084D01*
X188605833Y-61735720D01*
X188887301Y-61575693D01*
X188940077Y-61545836D01*
X189032486Y-61494331D01*
X189108362Y-61453048D01*
X189160985Y-61425617D01*
X189183634Y-61415667D01*
X189186523Y-61429609D01*
G36*
X190124886Y-59026899D02*
G01*
X190168978Y-59046608D01*
X190234872Y-59080862D01*
X190315193Y-59125313D01*
X190402570Y-59175612D01*
X190489628Y-59227413D01*
X190568997Y-59276367D01*
X190633301Y-59318126D01*
X190675169Y-59348342D01*
X190687228Y-59362669D01*
X190671473Y-59372715D01*
X190621733Y-59402445D01*
X190541380Y-59449725D01*
X190433705Y-59512640D01*
X190301998Y-59589276D01*
X190149550Y-59677718D01*
X189979652Y-59776053D01*
X189795594Y-59882366D01*
X189600666Y-59994743D01*
X189434550Y-60090202D01*
X189247948Y-60196888D01*
X189074610Y-60295409D01*
X188917873Y-60383899D01*
X188781075Y-60460491D01*
X188667551Y-60523319D01*
X188580639Y-60570513D01*
X188523676Y-60600209D01*
X188500000Y-60610539D01*
X188487108Y-60605752D01*
X188440440Y-60582342D01*
X188364265Y-60541456D01*
X188262486Y-60485350D01*
X188139005Y-60416277D01*
X187997727Y-60336491D01*
X187842553Y-60248246D01*
X187677388Y-60153797D01*
X187506134Y-60055397D01*
X187332694Y-59955302D01*
X187160972Y-59855764D01*
X186994871Y-59759038D01*
X186838293Y-59667378D01*
X186695142Y-59583039D01*
X186569321Y-59508274D01*
X186464733Y-59445338D01*
X186385282Y-59396484D01*
X186334870Y-59363967D01*
X186317400Y-59350041D01*
X186317905Y-59348665D01*
X186340764Y-59329120D01*
X186391878Y-59294801D01*
X186463383Y-59250266D01*
X186547414Y-59200074D01*
X186636104Y-59148785D01*
X186721590Y-59100957D01*
X186796006Y-59061150D01*
X186851486Y-59033922D01*
X186880166Y-59023834D01*
X186891011Y-59027953D01*
X186935695Y-59050442D01*
X187010675Y-59090610D01*
X187112057Y-59146294D01*
X187235948Y-59215334D01*
X187378454Y-59295568D01*
X187535682Y-59384835D01*
X187703739Y-59480975D01*
X188499927Y-59938117D01*
X189295773Y-59480975D01*
X189403219Y-59419367D01*
X189564403Y-59327377D01*
X189712068Y-59243618D01*
X189842357Y-59170250D01*
X189951414Y-59109429D01*
X190035384Y-59063315D01*
X190090410Y-59034063D01*
X190112638Y-59023834D01*
X190124886Y-59026899D01*
G37*
X190124886Y-59026899D02*
X190168978Y-59046608D01*
X190234872Y-59080862D01*
X190315193Y-59125313D01*
X190402570Y-59175612D01*
X190489628Y-59227413D01*
X190568997Y-59276367D01*
X190633301Y-59318126D01*
X190675169Y-59348342D01*
X190687228Y-59362669D01*
X190671473Y-59372715D01*
X190621733Y-59402445D01*
X190541380Y-59449725D01*
X190433705Y-59512640D01*
X190301998Y-59589276D01*
X190149550Y-59677718D01*
X189979652Y-59776053D01*
X189795594Y-59882366D01*
X189600666Y-59994743D01*
X189434550Y-60090202D01*
X189247948Y-60196888D01*
X189074610Y-60295409D01*
X188917873Y-60383899D01*
X188781075Y-60460491D01*
X188667551Y-60523319D01*
X188580639Y-60570513D01*
X188523676Y-60600209D01*
X188500000Y-60610539D01*
X188487108Y-60605752D01*
X188440440Y-60582342D01*
X188364265Y-60541456D01*
X188262486Y-60485350D01*
X188139005Y-60416277D01*
X187997727Y-60336491D01*
X187842553Y-60248246D01*
X187677388Y-60153797D01*
X187506134Y-60055397D01*
X187332694Y-59955302D01*
X187160972Y-59855764D01*
X186994871Y-59759038D01*
X186838293Y-59667378D01*
X186695142Y-59583039D01*
X186569321Y-59508274D01*
X186464733Y-59445338D01*
X186385282Y-59396484D01*
X186334870Y-59363967D01*
X186317400Y-59350041D01*
X186317905Y-59348665D01*
X186340764Y-59329120D01*
X186391878Y-59294801D01*
X186463383Y-59250266D01*
X186547414Y-59200074D01*
X186636104Y-59148785D01*
X186721590Y-59100957D01*
X186796006Y-59061150D01*
X186851486Y-59033922D01*
X186880166Y-59023834D01*
X186891011Y-59027953D01*
X186935695Y-59050442D01*
X187010675Y-59090610D01*
X187112057Y-59146294D01*
X187235948Y-59215334D01*
X187378454Y-59295568D01*
X187535682Y-59384835D01*
X187703739Y-59480975D01*
X188499927Y-59938117D01*
X189295773Y-59480975D01*
X189403219Y-59419367D01*
X189564403Y-59327377D01*
X189712068Y-59243618D01*
X189842357Y-59170250D01*
X189951414Y-59109429D01*
X190035384Y-59063315D01*
X190090410Y-59034063D01*
X190112638Y-59023834D01*
X190124886Y-59026899D01*
G36*
X190798975Y-59562523D02*
G01*
X190802132Y-59607419D01*
X190804567Y-59682809D01*
X190806078Y-59781666D01*
X190806461Y-59896959D01*
X190805755Y-60240917D01*
X190003475Y-60685417D01*
X190003154Y-61617220D01*
X190002833Y-62549024D01*
X189732958Y-62710560D01*
X189689244Y-62736548D01*
X189596776Y-62790293D01*
X189519156Y-62833752D01*
X189463481Y-62863005D01*
X189436847Y-62874131D01*
X189433275Y-62872089D01*
X189427150Y-62853761D01*
X189421975Y-62813974D01*
X189417648Y-62749746D01*
X189414063Y-62658096D01*
X189411120Y-62536040D01*
X189408713Y-62380598D01*
X189406740Y-62188788D01*
X189405097Y-61957626D01*
X189399583Y-61039086D01*
X188965666Y-61290368D01*
X188887900Y-61335111D01*
X188770399Y-61401554D01*
X188667351Y-61458418D01*
X188584264Y-61502730D01*
X188526644Y-61531515D01*
X188500000Y-61541800D01*
X188487406Y-61537808D01*
X188440888Y-61515771D01*
X188366815Y-61477070D01*
X188270693Y-61424675D01*
X188158030Y-61361555D01*
X188034333Y-61290681D01*
X187600416Y-61039411D01*
X187594902Y-61957789D01*
X187594016Y-62084943D01*
X187592274Y-62269047D01*
X187590142Y-62436630D01*
X187587705Y-62583391D01*
X187585048Y-62705027D01*
X187582259Y-62797237D01*
X187579421Y-62855717D01*
X187576621Y-62876167D01*
X187568702Y-62873030D01*
X187529559Y-62852775D01*
X187464081Y-62816844D01*
X187378866Y-62768881D01*
X187280510Y-62712533D01*
X186997166Y-62548899D01*
X186995830Y-60685417D01*
X186203416Y-60236379D01*
X186197601Y-59894690D01*
X186196545Y-59816370D01*
X186196112Y-59711721D01*
X186196969Y-59628243D01*
X186199021Y-59572986D01*
X186202174Y-59553000D01*
X186202994Y-59553293D01*
X186228489Y-59566915D01*
X186286990Y-59599585D01*
X186375349Y-59649509D01*
X186490422Y-59714893D01*
X186629060Y-59793943D01*
X186788117Y-59884865D01*
X186964448Y-59985867D01*
X187154904Y-60095154D01*
X187356340Y-60210932D01*
X188500117Y-60868865D01*
X189642982Y-60210932D01*
X189676593Y-60191586D01*
X189876354Y-60076713D01*
X190064628Y-59968630D01*
X190238268Y-59869133D01*
X190394126Y-59780018D01*
X190529053Y-59703079D01*
X190639903Y-59640113D01*
X190723527Y-59592914D01*
X190776778Y-59563278D01*
X190796507Y-59553000D01*
X190798975Y-59562523D01*
G37*
X190798975Y-59562523D02*
X190802132Y-59607419D01*
X190804567Y-59682809D01*
X190806078Y-59781666D01*
X190806461Y-59896959D01*
X190805755Y-60240917D01*
X190003475Y-60685417D01*
X190003154Y-61617220D01*
X190002833Y-62549024D01*
X189732958Y-62710560D01*
X189689244Y-62736548D01*
X189596776Y-62790293D01*
X189519156Y-62833752D01*
X189463481Y-62863005D01*
X189436847Y-62874131D01*
X189433275Y-62872089D01*
X189427150Y-62853761D01*
X189421975Y-62813974D01*
X189417648Y-62749746D01*
X189414063Y-62658096D01*
X189411120Y-62536040D01*
X189408713Y-62380598D01*
X189406740Y-62188788D01*
X189405097Y-61957626D01*
X189399583Y-61039086D01*
X188965666Y-61290368D01*
X188887900Y-61335111D01*
X188770399Y-61401554D01*
X188667351Y-61458418D01*
X188584264Y-61502730D01*
X188526644Y-61531515D01*
X188500000Y-61541800D01*
X188487406Y-61537808D01*
X188440888Y-61515771D01*
X188366815Y-61477070D01*
X188270693Y-61424675D01*
X188158030Y-61361555D01*
X188034333Y-61290681D01*
X187600416Y-61039411D01*
X187594902Y-61957789D01*
X187594016Y-62084943D01*
X187592274Y-62269047D01*
X187590142Y-62436630D01*
X187587705Y-62583391D01*
X187585048Y-62705027D01*
X187582259Y-62797237D01*
X187579421Y-62855717D01*
X187576621Y-62876167D01*
X187568702Y-62873030D01*
X187529559Y-62852775D01*
X187464081Y-62816844D01*
X187378866Y-62768881D01*
X187280510Y-62712533D01*
X186997166Y-62548899D01*
X186995830Y-60685417D01*
X186203416Y-60236379D01*
X186197601Y-59894690D01*
X186196545Y-59816370D01*
X186196112Y-59711721D01*
X186196969Y-59628243D01*
X186199021Y-59572986D01*
X186202174Y-59553000D01*
X186202994Y-59553293D01*
X186228489Y-59566915D01*
X186286990Y-59599585D01*
X186375349Y-59649509D01*
X186490422Y-59714893D01*
X186629060Y-59793943D01*
X186788117Y-59884865D01*
X186964448Y-59985867D01*
X187154904Y-60095154D01*
X187356340Y-60210932D01*
X188500117Y-60868865D01*
X189642982Y-60210932D01*
X189676593Y-60191586D01*
X189876354Y-60076713D01*
X190064628Y-59968630D01*
X190238268Y-59869133D01*
X190394126Y-59780018D01*
X190529053Y-59703079D01*
X190639903Y-59640113D01*
X190723527Y-59592914D01*
X190776778Y-59563278D01*
X190796507Y-59553000D01*
X190798975Y-59562523D01*
%TO.C,LO1*%
G36*
X118323975Y-56937523D02*
G01*
X118327132Y-56982419D01*
X118329567Y-57057809D01*
X118331078Y-57156666D01*
X118331461Y-57271959D01*
X118330755Y-57615917D01*
X117528475Y-58060417D01*
X117528154Y-58992220D01*
X117527833Y-59924024D01*
X117257958Y-60085560D01*
X117214244Y-60111548D01*
X117121776Y-60165293D01*
X117044156Y-60208752D01*
X116988481Y-60238005D01*
X116961847Y-60249131D01*
X116958275Y-60247089D01*
X116952150Y-60228761D01*
X116946975Y-60188974D01*
X116942648Y-60124746D01*
X116939063Y-60033096D01*
X116936120Y-59911040D01*
X116933713Y-59755598D01*
X116931740Y-59563788D01*
X116930097Y-59332626D01*
X116924583Y-58414086D01*
X116490666Y-58665368D01*
X116412900Y-58710111D01*
X116295399Y-58776554D01*
X116192351Y-58833418D01*
X116109264Y-58877730D01*
X116051644Y-58906515D01*
X116025000Y-58916800D01*
X116012406Y-58912808D01*
X115965888Y-58890771D01*
X115891815Y-58852070D01*
X115795693Y-58799675D01*
X115683030Y-58736555D01*
X115559333Y-58665681D01*
X115125416Y-58414411D01*
X115119902Y-59332789D01*
X115119016Y-59459943D01*
X115117274Y-59644047D01*
X115115142Y-59811630D01*
X115112705Y-59958391D01*
X115110048Y-60080027D01*
X115107259Y-60172237D01*
X115104421Y-60230717D01*
X115101621Y-60251167D01*
X115093702Y-60248030D01*
X115054559Y-60227775D01*
X114989081Y-60191844D01*
X114903866Y-60143881D01*
X114805510Y-60087533D01*
X114522166Y-59923899D01*
X114520830Y-58060417D01*
X113728416Y-57611379D01*
X113722601Y-57269690D01*
X113721545Y-57191370D01*
X113721112Y-57086721D01*
X113721969Y-57003243D01*
X113724021Y-56947986D01*
X113727174Y-56928000D01*
X113727994Y-56928293D01*
X113753489Y-56941915D01*
X113811990Y-56974585D01*
X113900349Y-57024509D01*
X114015422Y-57089893D01*
X114154060Y-57168943D01*
X114313117Y-57259865D01*
X114489448Y-57360867D01*
X114679904Y-57470154D01*
X114881340Y-57585932D01*
X116025117Y-58243865D01*
X117167982Y-57585932D01*
X117201593Y-57566586D01*
X117401354Y-57451713D01*
X117589628Y-57343630D01*
X117763268Y-57244133D01*
X117919126Y-57155018D01*
X118054053Y-57078079D01*
X118164903Y-57015113D01*
X118248527Y-56967914D01*
X118301778Y-56938278D01*
X118321507Y-56928000D01*
X118323975Y-56937523D01*
G37*
X118323975Y-56937523D02*
X118327132Y-56982419D01*
X118329567Y-57057809D01*
X118331078Y-57156666D01*
X118331461Y-57271959D01*
X118330755Y-57615917D01*
X117528475Y-58060417D01*
X117528154Y-58992220D01*
X117527833Y-59924024D01*
X117257958Y-60085560D01*
X117214244Y-60111548D01*
X117121776Y-60165293D01*
X117044156Y-60208752D01*
X116988481Y-60238005D01*
X116961847Y-60249131D01*
X116958275Y-60247089D01*
X116952150Y-60228761D01*
X116946975Y-60188974D01*
X116942648Y-60124746D01*
X116939063Y-60033096D01*
X116936120Y-59911040D01*
X116933713Y-59755598D01*
X116931740Y-59563788D01*
X116930097Y-59332626D01*
X116924583Y-58414086D01*
X116490666Y-58665368D01*
X116412900Y-58710111D01*
X116295399Y-58776554D01*
X116192351Y-58833418D01*
X116109264Y-58877730D01*
X116051644Y-58906515D01*
X116025000Y-58916800D01*
X116012406Y-58912808D01*
X115965888Y-58890771D01*
X115891815Y-58852070D01*
X115795693Y-58799675D01*
X115683030Y-58736555D01*
X115559333Y-58665681D01*
X115125416Y-58414411D01*
X115119902Y-59332789D01*
X115119016Y-59459943D01*
X115117274Y-59644047D01*
X115115142Y-59811630D01*
X115112705Y-59958391D01*
X115110048Y-60080027D01*
X115107259Y-60172237D01*
X115104421Y-60230717D01*
X115101621Y-60251167D01*
X115093702Y-60248030D01*
X115054559Y-60227775D01*
X114989081Y-60191844D01*
X114903866Y-60143881D01*
X114805510Y-60087533D01*
X114522166Y-59923899D01*
X114520830Y-58060417D01*
X113728416Y-57611379D01*
X113722601Y-57269690D01*
X113721545Y-57191370D01*
X113721112Y-57086721D01*
X113721969Y-57003243D01*
X113724021Y-56947986D01*
X113727174Y-56928000D01*
X113727994Y-56928293D01*
X113753489Y-56941915D01*
X113811990Y-56974585D01*
X113900349Y-57024509D01*
X114015422Y-57089893D01*
X114154060Y-57168943D01*
X114313117Y-57259865D01*
X114489448Y-57360867D01*
X114679904Y-57470154D01*
X114881340Y-57585932D01*
X116025117Y-58243865D01*
X117167982Y-57585932D01*
X117201593Y-57566586D01*
X117401354Y-57451713D01*
X117589628Y-57343630D01*
X117763268Y-57244133D01*
X117919126Y-57155018D01*
X118054053Y-57078079D01*
X118164903Y-57015113D01*
X118248527Y-56967914D01*
X118301778Y-56938278D01*
X118321507Y-56928000D01*
X118323975Y-56937523D01*
G36*
X115352472Y-58792724D02*
G01*
X115390769Y-58811071D01*
X115455566Y-58845371D01*
X115539902Y-58891886D01*
X115636817Y-58946881D01*
X115908583Y-59103095D01*
X115914306Y-59513376D01*
X115920028Y-59923658D01*
X115639139Y-60087012D01*
X115585881Y-60117826D01*
X115493734Y-60170332D01*
X115417967Y-60212456D01*
X115365280Y-60240500D01*
X115342375Y-60250767D01*
X115339288Y-60236890D01*
X115335817Y-60185327D01*
X115332743Y-60100229D01*
X115330169Y-59986419D01*
X115328200Y-59848716D01*
X115326942Y-59691941D01*
X115326500Y-59520917D01*
X115326683Y-59411781D01*
X115327823Y-59238297D01*
X115329918Y-59087583D01*
X115332864Y-58963551D01*
X115336558Y-58870112D01*
X115340896Y-58811180D01*
X115345776Y-58790667D01*
X115352472Y-58792724D01*
G37*
X115352472Y-58792724D02*
X115390769Y-58811071D01*
X115455566Y-58845371D01*
X115539902Y-58891886D01*
X115636817Y-58946881D01*
X115908583Y-59103095D01*
X115914306Y-59513376D01*
X115920028Y-59923658D01*
X115639139Y-60087012D01*
X115585881Y-60117826D01*
X115493734Y-60170332D01*
X115417967Y-60212456D01*
X115365280Y-60240500D01*
X115342375Y-60250767D01*
X115339288Y-60236890D01*
X115335817Y-60185327D01*
X115332743Y-60100229D01*
X115330169Y-59986419D01*
X115328200Y-59848716D01*
X115326942Y-59691941D01*
X115326500Y-59520917D01*
X115326683Y-59411781D01*
X115327823Y-59238297D01*
X115329918Y-59087583D01*
X115332864Y-58963551D01*
X115336558Y-58870112D01*
X115340896Y-58811180D01*
X115345776Y-58790667D01*
X115352472Y-58792724D01*
G36*
X116711523Y-58804609D02*
G01*
X116714774Y-58856251D01*
X116717653Y-58941422D01*
X116720064Y-59055299D01*
X116721907Y-59193057D01*
X116723085Y-59349871D01*
X116723500Y-59520917D01*
X116723278Y-59662856D01*
X116722457Y-59822515D01*
X116721103Y-59963964D01*
X116719292Y-60082379D01*
X116717102Y-60172933D01*
X116714608Y-60230804D01*
X116711888Y-60251167D01*
X116703991Y-60247933D01*
X116664966Y-60227547D01*
X116599581Y-60191529D01*
X116514391Y-60143510D01*
X116415950Y-60087125D01*
X116131623Y-59923084D01*
X116130833Y-59110720D01*
X116412301Y-58950693D01*
X116465077Y-58920836D01*
X116557486Y-58869331D01*
X116633362Y-58828048D01*
X116685985Y-58800617D01*
X116708634Y-58790667D01*
X116711523Y-58804609D01*
G37*
X116711523Y-58804609D02*
X116714774Y-58856251D01*
X116717653Y-58941422D01*
X116720064Y-59055299D01*
X116721907Y-59193057D01*
X116723085Y-59349871D01*
X116723500Y-59520917D01*
X116723278Y-59662856D01*
X116722457Y-59822515D01*
X116721103Y-59963964D01*
X116719292Y-60082379D01*
X116717102Y-60172933D01*
X116714608Y-60230804D01*
X116711888Y-60251167D01*
X116703991Y-60247933D01*
X116664966Y-60227547D01*
X116599581Y-60191529D01*
X116514391Y-60143510D01*
X116415950Y-60087125D01*
X116131623Y-59923084D01*
X116130833Y-59110720D01*
X116412301Y-58950693D01*
X116465077Y-58920836D01*
X116557486Y-58869331D01*
X116633362Y-58828048D01*
X116685985Y-58800617D01*
X116708634Y-58790667D01*
X116711523Y-58804609D01*
G36*
X117649886Y-56401899D02*
G01*
X117693978Y-56421608D01*
X117759872Y-56455862D01*
X117840193Y-56500313D01*
X117927570Y-56550612D01*
X118014628Y-56602413D01*
X118093997Y-56651367D01*
X118158301Y-56693126D01*
X118200169Y-56723342D01*
X118212228Y-56737669D01*
X118196473Y-56747715D01*
X118146733Y-56777445D01*
X118066380Y-56824725D01*
X117958705Y-56887640D01*
X117826998Y-56964276D01*
X117674550Y-57052718D01*
X117504652Y-57151053D01*
X117320594Y-57257366D01*
X117125666Y-57369743D01*
X116959550Y-57465202D01*
X116772948Y-57571888D01*
X116599610Y-57670409D01*
X116442873Y-57758899D01*
X116306075Y-57835491D01*
X116192551Y-57898319D01*
X116105639Y-57945513D01*
X116048676Y-57975209D01*
X116025000Y-57985539D01*
X116012108Y-57980752D01*
X115965440Y-57957342D01*
X115889265Y-57916456D01*
X115787486Y-57860350D01*
X115664005Y-57791277D01*
X115522727Y-57711491D01*
X115367553Y-57623246D01*
X115202388Y-57528797D01*
X115031134Y-57430397D01*
X114857694Y-57330302D01*
X114685972Y-57230764D01*
X114519871Y-57134038D01*
X114363293Y-57042378D01*
X114220142Y-56958039D01*
X114094321Y-56883274D01*
X113989733Y-56820338D01*
X113910282Y-56771484D01*
X113859870Y-56738967D01*
X113842400Y-56725041D01*
X113842905Y-56723665D01*
X113865764Y-56704120D01*
X113916878Y-56669801D01*
X113988383Y-56625266D01*
X114072414Y-56575074D01*
X114161104Y-56523785D01*
X114246590Y-56475957D01*
X114321006Y-56436150D01*
X114376486Y-56408922D01*
X114405166Y-56398834D01*
X114416011Y-56402953D01*
X114460695Y-56425442D01*
X114535675Y-56465610D01*
X114637057Y-56521294D01*
X114760948Y-56590334D01*
X114903454Y-56670568D01*
X115060682Y-56759835D01*
X115228739Y-56855975D01*
X116024927Y-57313117D01*
X116820773Y-56855975D01*
X116928219Y-56794367D01*
X117089403Y-56702377D01*
X117237068Y-56618618D01*
X117367357Y-56545250D01*
X117476414Y-56484429D01*
X117560384Y-56438315D01*
X117615410Y-56409063D01*
X117637638Y-56398834D01*
X117649886Y-56401899D01*
G37*
X117649886Y-56401899D02*
X117693978Y-56421608D01*
X117759872Y-56455862D01*
X117840193Y-56500313D01*
X117927570Y-56550612D01*
X118014628Y-56602413D01*
X118093997Y-56651367D01*
X118158301Y-56693126D01*
X118200169Y-56723342D01*
X118212228Y-56737669D01*
X118196473Y-56747715D01*
X118146733Y-56777445D01*
X118066380Y-56824725D01*
X117958705Y-56887640D01*
X117826998Y-56964276D01*
X117674550Y-57052718D01*
X117504652Y-57151053D01*
X117320594Y-57257366D01*
X117125666Y-57369743D01*
X116959550Y-57465202D01*
X116772948Y-57571888D01*
X116599610Y-57670409D01*
X116442873Y-57758899D01*
X116306075Y-57835491D01*
X116192551Y-57898319D01*
X116105639Y-57945513D01*
X116048676Y-57975209D01*
X116025000Y-57985539D01*
X116012108Y-57980752D01*
X115965440Y-57957342D01*
X115889265Y-57916456D01*
X115787486Y-57860350D01*
X115664005Y-57791277D01*
X115522727Y-57711491D01*
X115367553Y-57623246D01*
X115202388Y-57528797D01*
X115031134Y-57430397D01*
X114857694Y-57330302D01*
X114685972Y-57230764D01*
X114519871Y-57134038D01*
X114363293Y-57042378D01*
X114220142Y-56958039D01*
X114094321Y-56883274D01*
X113989733Y-56820338D01*
X113910282Y-56771484D01*
X113859870Y-56738967D01*
X113842400Y-56725041D01*
X113842905Y-56723665D01*
X113865764Y-56704120D01*
X113916878Y-56669801D01*
X113988383Y-56625266D01*
X114072414Y-56575074D01*
X114161104Y-56523785D01*
X114246590Y-56475957D01*
X114321006Y-56436150D01*
X114376486Y-56408922D01*
X114405166Y-56398834D01*
X114416011Y-56402953D01*
X114460695Y-56425442D01*
X114535675Y-56465610D01*
X114637057Y-56521294D01*
X114760948Y-56590334D01*
X114903454Y-56670568D01*
X115060682Y-56759835D01*
X115228739Y-56855975D01*
X116024927Y-57313117D01*
X116820773Y-56855975D01*
X116928219Y-56794367D01*
X117089403Y-56702377D01*
X117237068Y-56618618D01*
X117367357Y-56545250D01*
X117476414Y-56484429D01*
X117560384Y-56438315D01*
X117615410Y-56409063D01*
X117637638Y-56398834D01*
X117649886Y-56401899D01*
%TD*%
D11*
%TO.C,H1*%
X128575000Y-11475000D03*
%TD*%
D12*
%TO.C,J105*%
X177305358Y-61950001D03*
X174765358Y-61950001D03*
X172225358Y-61950001D03*
X169685358Y-61950001D03*
%TD*%
D11*
%TO.C,H101*%
X171225000Y-11475000D03*
%TD*%
D13*
%TO.C,MO1*%
X59000000Y-98057500D03*
X55300000Y-98057500D03*
X56780000Y-98057500D03*
X57520000Y-98057500D03*
X58260000Y-98057500D03*
X56040000Y-98057500D03*
%TD*%
%TO.C,MO7*%
X265205000Y-111532500D03*
X264465000Y-111532500D03*
X266685000Y-111532500D03*
X263725000Y-111532500D03*
X267425000Y-111532500D03*
X265945000Y-111532500D03*
%TD*%
%TO.C,MO5*%
X259958568Y-116570000D03*
X259958568Y-115090000D03*
X259958568Y-114350000D03*
X259958568Y-118050000D03*
X259958568Y-115830000D03*
X259958568Y-117310000D03*
%TD*%
%TO.C,MO6*%
X282850000Y-105035000D03*
X282850000Y-104295000D03*
X282850000Y-103555000D03*
X282850000Y-102815000D03*
X282850000Y-102075000D03*
X282850000Y-105775000D03*
%TD*%
%TO.C,MO4*%
X105145000Y-5765000D03*
X103665000Y-5765000D03*
X102925000Y-5765000D03*
X106625000Y-5765000D03*
X105885000Y-5765000D03*
X104405000Y-5765000D03*
%TD*%
D14*
%TO.C,S1*%
X126390120Y-79718971D03*
X120226991Y-102720080D03*
D15*
X141110829Y-83663374D03*
X134947701Y-106664482D03*
%TD*%
D13*
%TO.C,MO3*%
X132678017Y-113401149D03*
X134822373Y-113975727D03*
X133392803Y-113592675D03*
X131963232Y-113209623D03*
X131248447Y-113018096D03*
X134107588Y-113784201D03*
%TD*%
D12*
%TO.C,J5*%
X127114642Y-61950001D03*
X129654642Y-61950001D03*
X132194642Y-61950001D03*
X134734642Y-61950001D03*
%TD*%
D14*
%TO.C,S101*%
X178518675Y-79719745D03*
D15*
X163797966Y-83664148D03*
X169961094Y-106665256D03*
D14*
X184681804Y-102720854D03*
%TD*%
D13*
%TO.C,MO2*%
X45775000Y-2907500D03*
X49475000Y-2907500D03*
X48735000Y-2907500D03*
X47255000Y-2907500D03*
X46515000Y-2907500D03*
X47995000Y-2907500D03*
%TD*%
%TO.C,MO101*%
X198175000Y-5765000D03*
X201875000Y-5765000D03*
X200395000Y-5765000D03*
X201135000Y-5765000D03*
X198915000Y-5765000D03*
X199655000Y-5765000D03*
%TD*%
D14*
%TO.C,MX_SW1*%
X9525000Y-15240000D03*
D16*
X4445000Y-15240000D03*
X14605000Y-15240000D03*
D17*
X2165000Y-12700000D03*
X15615000Y-10160000D03*
%TD*%
D18*
%TO.C,C9*%
X132639642Y-49430874D03*
X132639642Y-50390874D03*
%TD*%
D19*
%TO.C,J8*%
X276158568Y-124107500D03*
X278658568Y-124107500D03*
X281158568Y-124107500D03*
X283658568Y-124107500D03*
%TD*%
D20*
%TO.C,C5*%
X137639642Y-50390874D03*
X137639642Y-49430874D03*
%TD*%
D21*
%TO.C,D2*%
X56200000Y-16128125D03*
X58100000Y-16128125D03*
X57150000Y-18003125D03*
%TD*%
D16*
%TO.C,MX_SW7*%
X4445000Y-34290000D03*
X14605000Y-34290000D03*
D14*
X9525000Y-34290000D03*
D17*
X2165000Y-31750000D03*
X15615000Y-29210000D03*
%TD*%
D22*
%TO.C,UG106*%
X208743568Y-64851250D03*
X208743568Y-63751250D03*
X210573568Y-63751250D03*
X210573568Y-64851250D03*
%TD*%
D23*
%TO.C,CH_SW20*%
X33795000Y-68190000D03*
D24*
X28575000Y-72390000D03*
D25*
X34075000Y-72390000D03*
X23075000Y-72390000D03*
D26*
X20330000Y-76140000D03*
X31820000Y-78340000D03*
%TD*%
D27*
%TO.C,W103*%
X160454284Y-73566746D03*
%TD*%
D14*
%TO.C,MX_SW108*%
X276333568Y-34290000D03*
D16*
X271253568Y-34290000D03*
X281413568Y-34290000D03*
D17*
X268973568Y-31750000D03*
X282423568Y-29210000D03*
%TD*%
D28*
%TO.C,U2*%
X295183568Y-117107500D03*
X294233568Y-117107500D03*
X293283568Y-117182500D03*
X293283568Y-114757500D03*
X294233568Y-114757500D03*
X295183568Y-114757500D03*
%TD*%
D14*
%TO.C,MX_SW101*%
X295383568Y-15240000D03*
D16*
X290303568Y-15240000D03*
X300463568Y-15240000D03*
D17*
X288023568Y-12700000D03*
X301473568Y-10160000D03*
%TD*%
D29*
%TO.C,UG103*%
X210573568Y-25651250D03*
X210573568Y-26751250D03*
X208743568Y-26751250D03*
X208743568Y-25651250D03*
%TD*%
D18*
%TO.C,C118*%
X166933568Y-49315001D03*
X166933568Y-50275001D03*
%TD*%
D24*
%TO.C,CH_SW6*%
X104775000Y-15240000D03*
D25*
X99275000Y-15240000D03*
D23*
X109995000Y-11040000D03*
D25*
X110275000Y-15240000D03*
D26*
X96530000Y-18990000D03*
X108020000Y-21190000D03*
%TD*%
D21*
%TO.C,D105*%
X246808568Y-37956250D03*
X248708568Y-37956250D03*
X247758568Y-39831250D03*
%TD*%
%TO.C,D9*%
X94300000Y-59943125D03*
X96200000Y-59943125D03*
X95250000Y-61818125D03*
%TD*%
D27*
%TO.C,W101*%
X160454284Y-8715000D03*
%TD*%
D21*
%TO.C,D8*%
X56200000Y-54228125D03*
X58100000Y-54228125D03*
X57150000Y-56103125D03*
%TD*%
D20*
%TO.C,C111*%
X172933568Y-50275001D03*
X172933568Y-49315001D03*
%TD*%
D16*
%TO.C,MX_SW22*%
X61595000Y-66675000D03*
X71755000Y-66675000D03*
D14*
X66675000Y-66675000D03*
D17*
X59315000Y-64135000D03*
X72765000Y-61595000D03*
%TD*%
D18*
%TO.C,C8*%
X133639643Y-49430874D03*
X133639643Y-50390874D03*
%TD*%
%TO.C,C108*%
X176208569Y-49315001D03*
X176208569Y-50275001D03*
%TD*%
D20*
%TO.C,C114*%
X170933568Y-50275001D03*
X170933568Y-49315001D03*
%TD*%
D27*
%TO.C,W104*%
X187133568Y-8715000D03*
%TD*%
D30*
%TO.C,R104*%
X167908568Y-61800000D03*
X167908568Y-62820000D03*
%TD*%
D21*
%TO.C,D114*%
X245221068Y-94312500D03*
X247121068Y-94312500D03*
X246171068Y-96187500D03*
%TD*%
D31*
%TO.C,U102*%
X161258568Y-51875001D03*
X159358568Y-51875001D03*
X160308568Y-50000001D03*
%TD*%
D32*
%TO.C,R4*%
X136997858Y-62450001D03*
X136997858Y-60625001D03*
%TD*%
D33*
%TO.C,R5*%
X131150000Y-64800000D03*
X129325000Y-64800000D03*
%TD*%
D29*
%TO.C,UG102*%
X248673568Y-22793750D03*
X248673568Y-23893750D03*
X246843568Y-23893750D03*
X246843568Y-22793750D03*
%TD*%
D16*
%TO.C,MX_SW4*%
X61595000Y-9525000D03*
D14*
X66675000Y-9525000D03*
D16*
X71755000Y-9525000D03*
D17*
X59315000Y-6985000D03*
X72765000Y-4445000D03*
%TD*%
D14*
%TO.C,MX_SW30*%
X128816795Y-102557295D03*
D16*
X133723698Y-103872096D03*
X123909892Y-101242494D03*
D34*
X122364981Y-98198935D03*
X136014084Y-99226600D03*
%TD*%
D16*
%TO.C,MX_SW23*%
X90805000Y-69532500D03*
D14*
X85725000Y-69532500D03*
D16*
X80645000Y-69532500D03*
D17*
X78365000Y-66992500D03*
X91815000Y-64452500D03*
%TD*%
D35*
%TO.C,F101*%
X8750000Y-109542500D03*
X8750000Y-111367500D03*
%TD*%
D36*
%TO.C,C103*%
X159008568Y-53437500D03*
X159968568Y-53437500D03*
%TD*%
D24*
%TO.C,CH_SW27*%
X66675000Y-85725000D03*
D25*
X72175000Y-85725000D03*
D23*
X71895000Y-81525000D03*
D25*
X61175000Y-85725000D03*
D26*
X58430000Y-89475000D03*
X69920000Y-91675000D03*
%TD*%
D18*
%TO.C,C20*%
X122364642Y-49430874D03*
X122364642Y-50390874D03*
%TD*%
D21*
%TO.C,D11*%
X56200000Y-73278125D03*
X58100000Y-73278125D03*
X57150000Y-75153125D03*
%TD*%
D23*
%TO.C,CH_SW13*%
X14745000Y-49140000D03*
D25*
X15025000Y-53340000D03*
D24*
X9525000Y-53340000D03*
D25*
X4025000Y-53340000D03*
D26*
X1280000Y-57090000D03*
X12770000Y-59290000D03*
%TD*%
D25*
%TO.C,CH_SW7*%
X15025000Y-34290000D03*
X4025000Y-34290000D03*
D23*
X14745000Y-30090000D03*
D24*
X9525000Y-34290000D03*
D26*
X1280000Y-38040000D03*
X12770000Y-40240000D03*
%TD*%
D37*
%TO.C,D117*%
X177758568Y-47625001D03*
X174458568Y-47625001D03*
%TD*%
D13*
%TO.C,MO107*%
X40443568Y-111532500D03*
X39703568Y-111532500D03*
X38223568Y-111532500D03*
X38963568Y-111532500D03*
X37483568Y-111532500D03*
X41183568Y-111532500D03*
%TD*%
D16*
%TO.C,MX_SW21*%
X42545000Y-69532500D03*
X52705000Y-69532500D03*
D14*
X47625000Y-69532500D03*
D17*
X40265000Y-66992500D03*
X53715000Y-64452500D03*
%TD*%
D18*
%TO.C,C120*%
X164933568Y-49315001D03*
X164933568Y-50275001D03*
%TD*%
D38*
%TO.C,M101*%
X161225000Y-39725001D03*
D39*
X181225000Y-39725001D03*
D40*
X161975000Y-45000001D03*
X162225000Y-37450001D03*
X162475000Y-45000001D03*
X162725000Y-37450001D03*
X162975000Y-45000001D03*
X163225000Y-37450001D03*
X163475000Y-45000001D03*
X163725000Y-37450001D03*
X163975000Y-45000001D03*
X164225000Y-37450001D03*
X164475000Y-45000001D03*
X164725000Y-37450001D03*
X164975000Y-45000001D03*
X165225000Y-37450001D03*
X165475000Y-45000001D03*
X165725000Y-37450001D03*
X165975000Y-45000001D03*
X166225000Y-37450001D03*
X166475000Y-45000001D03*
X166725000Y-37450001D03*
X166975000Y-45000001D03*
X167225000Y-37450001D03*
X167475000Y-45000001D03*
X169725000Y-37450001D03*
X169975000Y-45000001D03*
X170225000Y-37450001D03*
X170475000Y-45000001D03*
X170725000Y-37450001D03*
X170975000Y-45000001D03*
X171225000Y-37450001D03*
X171475000Y-45000001D03*
X171725000Y-37450001D03*
X171975000Y-45000001D03*
X172225000Y-37450001D03*
X172475000Y-45000001D03*
X172725000Y-37450001D03*
X172975000Y-45000001D03*
X173225000Y-37450001D03*
X173475000Y-45000001D03*
X173725000Y-37450001D03*
X173975000Y-45000001D03*
X174225000Y-37450001D03*
X174475000Y-45000001D03*
X174725000Y-37450001D03*
X174975000Y-45000001D03*
X175225000Y-37450001D03*
X175475000Y-45000001D03*
X175725000Y-37450001D03*
X175975000Y-45000001D03*
X176225000Y-37450001D03*
X176475000Y-45000001D03*
X176725000Y-37450001D03*
X176975000Y-45000001D03*
X177225000Y-37450001D03*
X177475000Y-45000001D03*
X177725000Y-37450001D03*
X177975000Y-45000001D03*
X178225000Y-37450001D03*
X178475000Y-45000001D03*
X178725000Y-37450001D03*
X178975000Y-45000001D03*
X179225000Y-37450001D03*
X179475000Y-45000001D03*
X179725000Y-37450001D03*
X179975000Y-45000001D03*
X180225000Y-37450001D03*
X180475000Y-45000001D03*
D41*
X160875000Y-44225001D03*
X181575000Y-44225001D03*
%TD*%
D42*
%TO.C,R105*%
X179496068Y-62000000D03*
X181321068Y-62000000D03*
%TD*%
D20*
%TO.C,C117*%
X167933568Y-50275001D03*
X167933568Y-49315001D03*
%TD*%
D43*
%TO.C,J1*%
X298473568Y-120177501D03*
X298473568Y-112677501D03*
D44*
X297273568Y-113227501D03*
X297273568Y-113977501D03*
D45*
X297273568Y-115177501D03*
X297273568Y-116177501D03*
X297273568Y-116677501D03*
X297273568Y-117677501D03*
D44*
X297273568Y-118877501D03*
X297273568Y-119627501D03*
X297273568Y-119627501D03*
X297273568Y-118877501D03*
D45*
X297273568Y-118177501D03*
X297273568Y-117177501D03*
X297273568Y-115677501D03*
X297273568Y-114677501D03*
D44*
X297273568Y-113977501D03*
X297273568Y-113227501D03*
D46*
X298553568Y-110852501D03*
X298553568Y-122002501D03*
X303153568Y-121982501D03*
X303153568Y-110832501D03*
%TD*%
D14*
%TO.C,MX_SW129*%
X196792772Y-97010479D03*
D16*
X191885869Y-98325280D03*
X201699675Y-95695678D03*
D47*
X189026158Y-96461936D03*
X201360460Y-90527368D03*
%TD*%
D24*
%TO.C,CH_SW10*%
X66675000Y-28575000D03*
D25*
X72175000Y-28575000D03*
D23*
X71895000Y-24375000D03*
D25*
X61175000Y-28575000D03*
D26*
X58430000Y-32325000D03*
X69920000Y-34525000D03*
%TD*%
D14*
%TO.C,MX_SW14*%
X28575000Y-53340000D03*
D16*
X33655000Y-53340000D03*
X23495000Y-53340000D03*
D17*
X21215000Y-50800000D03*
X34665000Y-48260000D03*
%TD*%
D22*
%TO.C,UG1*%
X18135000Y-27100000D03*
X18135000Y-26000000D03*
X19965000Y-26000000D03*
X19965000Y-27100000D03*
%TD*%
D14*
%TO.C,MX_SW10*%
X66675000Y-28575000D03*
D16*
X61595000Y-28575000D03*
X71755000Y-28575000D03*
D17*
X59315000Y-26035000D03*
X72765000Y-23495000D03*
%TD*%
D14*
%TO.C,MX_SW31*%
X129779515Y-92565186D03*
D16*
X131094316Y-87658283D03*
X128464714Y-97472089D03*
D48*
X134137875Y-86113372D03*
X133110210Y-99762475D03*
%TD*%
D49*
%TO.C,J102*%
X167350000Y-65725000D03*
X166850000Y-65725000D03*
X166350000Y-65725000D03*
X165850000Y-65725000D03*
X165350000Y-65725000D03*
X164850000Y-65725000D03*
X164350000Y-65725000D03*
X163850000Y-65725000D03*
D50*
X168575000Y-68425000D03*
X162625000Y-68425000D03*
%TD*%
D14*
%TO.C,MX_SW16*%
X66675000Y-47625000D03*
D16*
X61595000Y-47625000D03*
X71755000Y-47625000D03*
D17*
X59315000Y-45085000D03*
X72765000Y-42545000D03*
%TD*%
D21*
%TO.C,D4*%
X18100000Y-40893125D03*
X20000000Y-40893125D03*
X19050000Y-42768125D03*
%TD*%
D16*
%TO.C,MX_SW117*%
X224263568Y-50482500D03*
D14*
X219183568Y-50482500D03*
D16*
X214103568Y-50482500D03*
D17*
X211823568Y-47942500D03*
X225273568Y-45402500D03*
%TD*%
D20*
%TO.C,C3*%
X114050000Y-35750000D03*
X114050000Y-34790000D03*
%TD*%
D51*
%TO.C,R102*%
X9424999Y-112707500D03*
X10444999Y-112707500D03*
%TD*%
D52*
%TO.C,D13*%
X115001946Y-86033989D03*
X116837205Y-86525746D03*
X115434290Y-88090978D03*
%TD*%
D16*
%TO.C,MX_SW8*%
X33655000Y-34290000D03*
X23495000Y-34290000D03*
D14*
X28575000Y-34290000D03*
D17*
X21215000Y-31750000D03*
X34665000Y-29210000D03*
%TD*%
D16*
%TO.C,MX_SW24*%
X99695000Y-72390000D03*
D14*
X104775000Y-72390000D03*
D16*
X109855000Y-72390000D03*
D17*
X97415000Y-69850000D03*
X110865000Y-67310000D03*
%TD*%
D23*
%TO.C,CH_SW28*%
X90945000Y-84382500D03*
D25*
X91225000Y-88582500D03*
D24*
X85725000Y-88582500D03*
D25*
X80225000Y-88582500D03*
D26*
X77480000Y-92332500D03*
X88970000Y-94532500D03*
%TD*%
D20*
%TO.C,C13*%
X129364642Y-50390874D03*
X129364642Y-49430874D03*
%TD*%
D23*
%TO.C,CH_SW22*%
X71895000Y-62475000D03*
D24*
X66675000Y-66675000D03*
D25*
X72175000Y-66675000D03*
X61175000Y-66675000D03*
D26*
X58430000Y-70425000D03*
X69920000Y-72625000D03*
%TD*%
D25*
%TO.C,CH_SW21*%
X42125000Y-69532500D03*
D23*
X52845000Y-65332500D03*
D25*
X53125000Y-69532500D03*
D24*
X47625000Y-69532500D03*
D26*
X39380000Y-73282500D03*
X50870000Y-75482500D03*
%TD*%
D16*
%TO.C,MX_SW25*%
X126540284Y-82225294D03*
X136354090Y-84854896D03*
D14*
X131447187Y-83540095D03*
D34*
X124995373Y-79181735D03*
X138644476Y-80209400D03*
%TD*%
D21*
%TO.C,D10*%
X18100000Y-78834375D03*
X20000000Y-78834375D03*
X19050000Y-80709375D03*
%TD*%
D25*
%TO.C,CH_SW102*%
X281833568Y-15240000D03*
D23*
X281553568Y-11040000D03*
D25*
X270833568Y-15240000D03*
D24*
X276333568Y-15240000D03*
D26*
X268088568Y-18990000D03*
X279578568Y-21190000D03*
%TD*%
D33*
%TO.C,R3*%
X138595000Y-47710000D03*
X136770000Y-47710000D03*
%TD*%
D25*
%TO.C,CH_SW9*%
X42125000Y-31432500D03*
D24*
X47625000Y-31432500D03*
D25*
X53125000Y-31432500D03*
D23*
X52845000Y-27232500D03*
D26*
X39380000Y-35182500D03*
X50870000Y-37382500D03*
%TD*%
D16*
%TO.C,MX_SW3*%
X42545000Y-12382500D03*
D14*
X47625000Y-12382500D03*
D16*
X52705000Y-12382500D03*
D17*
X40265000Y-9842500D03*
X53715000Y-7302500D03*
%TD*%
D25*
%TO.C,CH_SW3*%
X53125000Y-12382500D03*
X42125000Y-12382500D03*
D23*
X52845000Y-8182500D03*
D24*
X47625000Y-12382500D03*
D26*
X39380000Y-16132500D03*
X50870000Y-18332500D03*
%TD*%
D21*
%TO.C,D3*%
X94300000Y-21843125D03*
X96200000Y-21843125D03*
X95250000Y-23718125D03*
%TD*%
D20*
%TO.C,C17*%
X125364642Y-50390874D03*
X125364642Y-49430874D03*
%TD*%
D29*
%TO.C,UG4*%
X19965000Y-64100000D03*
X19965000Y-65200000D03*
X18135000Y-65200000D03*
X18135000Y-64100000D03*
%TD*%
D16*
%TO.C,MX_SW110*%
X243313568Y-28575000D03*
X233153568Y-28575000D03*
D14*
X238233568Y-28575000D03*
D17*
X230873568Y-26035000D03*
X244323568Y-23495000D03*
%TD*%
D18*
%TO.C,C107*%
X178208568Y-49315001D03*
X178208568Y-50275001D03*
%TD*%
%TO.C,C110*%
X174208568Y-49315001D03*
X174208568Y-50275001D03*
%TD*%
D22*
%TO.C,UG105*%
X246843568Y-61993750D03*
X246843568Y-60893750D03*
X248673568Y-60893750D03*
X248673568Y-61993750D03*
%TD*%
D16*
%TO.C,MX_SW17*%
X80645000Y-50482500D03*
X90805000Y-50482500D03*
D14*
X85725000Y-50482500D03*
D17*
X78365000Y-47942500D03*
X91815000Y-45402500D03*
%TD*%
D25*
%TO.C,CH_SW8*%
X34075000Y-34290000D03*
D23*
X33795000Y-30090000D03*
D24*
X28575000Y-34290000D03*
D25*
X23075000Y-34290000D03*
D26*
X20330000Y-38040000D03*
X31820000Y-40240000D03*
%TD*%
D18*
%TO.C,C6*%
X134639641Y-49430874D03*
X134639641Y-50390874D03*
%TD*%
D16*
%TO.C,MX_SW28*%
X80645000Y-88582500D03*
D14*
X85725000Y-88582500D03*
D16*
X90805000Y-88582500D03*
D17*
X78365000Y-86042500D03*
X91815000Y-83502500D03*
%TD*%
D25*
%TO.C,CH_SW30*%
X134129387Y-103980800D03*
X123504203Y-101133790D03*
D23*
X134945968Y-99851442D03*
D24*
X128816795Y-102557295D03*
D53*
X119882165Y-104045554D03*
X130411251Y-109144421D03*
%TD*%
D16*
%TO.C,MX_SW13*%
X14605000Y-53340000D03*
D14*
X9525000Y-53340000D03*
D16*
X4445000Y-53340000D03*
D17*
X2165000Y-50800000D03*
X15615000Y-48260000D03*
%TD*%
D54*
%TO.C,LO2*%
X115200000Y-43400000D03*
D55*
X112250000Y-42750000D03*
%TD*%
D16*
%TO.C,MX_SW114*%
X271253568Y-53340000D03*
X281413568Y-53340000D03*
D14*
X276333568Y-53340000D03*
D17*
X268973568Y-50800000D03*
X282423568Y-48260000D03*
%TD*%
D27*
%TO.C,W3*%
X117775000Y-66418053D03*
%TD*%
D14*
%TO.C,MX_SW118*%
X200133568Y-53340000D03*
D16*
X195053568Y-53340000D03*
X205213568Y-53340000D03*
D17*
X192773568Y-50800000D03*
X206223568Y-48260000D03*
%TD*%
D20*
%TO.C,C2*%
X115400000Y-35750000D03*
X115400000Y-34790000D03*
%TD*%
D25*
%TO.C,CH_SW114*%
X281833568Y-53340000D03*
D23*
X281553568Y-49140000D03*
D25*
X270833568Y-53340000D03*
D24*
X276333568Y-53340000D03*
D26*
X268088568Y-57090000D03*
X279578568Y-59290000D03*
%TD*%
D14*
%TO.C,MX_SW106*%
X200133568Y-15240000D03*
D16*
X195053568Y-15240000D03*
X205213568Y-15240000D03*
D17*
X192773568Y-12700000D03*
X206223568Y-10160000D03*
%TD*%
D16*
%TO.C,MX_SW11*%
X80645000Y-31432500D03*
X90805000Y-31432500D03*
D14*
X85725000Y-31432500D03*
D17*
X78365000Y-28892500D03*
X91815000Y-26352500D03*
%TD*%
D25*
%TO.C,CH_SW16*%
X61175000Y-47625000D03*
X72175000Y-47625000D03*
D23*
X71895000Y-43425000D03*
D24*
X66675000Y-47625000D03*
D26*
X58430000Y-51375000D03*
X69920000Y-53575000D03*
%TD*%
D13*
%TO.C,MO103*%
X171515766Y-113592675D03*
X172230552Y-113401149D03*
X170800981Y-113784201D03*
X172945337Y-113209623D03*
X173660122Y-113018096D03*
X170086196Y-113975727D03*
%TD*%
D24*
%TO.C,CH_SW5*%
X85725000Y-12382500D03*
D25*
X80225000Y-12382500D03*
X91225000Y-12382500D03*
D23*
X90945000Y-8182500D03*
D26*
X77480000Y-16132500D03*
X88970000Y-18332500D03*
%TD*%
D14*
%TO.C,MX_SW112*%
X200133568Y-34290000D03*
D16*
X205213568Y-34290000D03*
X195053568Y-34290000D03*
D17*
X192773568Y-31750000D03*
X206223568Y-29210000D03*
%TD*%
D23*
%TO.C,CH_SW12*%
X109995000Y-30090000D03*
D24*
X104775000Y-34290000D03*
D25*
X99275000Y-34290000D03*
X110275000Y-34290000D03*
D26*
X96530000Y-38040000D03*
X108020000Y-40240000D03*
%TD*%
D18*
%TO.C,C10*%
X131639642Y-49430874D03*
X131639642Y-50390874D03*
%TD*%
D25*
%TO.C,CH_SW24*%
X99275000Y-72390000D03*
D23*
X109995000Y-68190000D03*
D25*
X110275000Y-72390000D03*
D24*
X104775000Y-72390000D03*
D26*
X96530000Y-76140000D03*
X108020000Y-78340000D03*
%TD*%
D16*
%TO.C,MX_SW9*%
X52705000Y-31432500D03*
D14*
X47625000Y-31432500D03*
D16*
X42545000Y-31432500D03*
D17*
X40265000Y-28892500D03*
X53715000Y-26352500D03*
%TD*%
D16*
%TO.C,MX_SW121*%
X252203568Y-69532500D03*
X262363568Y-69532500D03*
D14*
X257283568Y-69532500D03*
D17*
X249923568Y-66992500D03*
X263373568Y-64452500D03*
%TD*%
D16*
%TO.C,MX_SW130*%
X171184871Y-103872096D03*
D14*
X176091774Y-102557295D03*
D16*
X180998677Y-101242494D03*
D47*
X168325160Y-102008752D03*
X180659462Y-96074184D03*
%TD*%
D16*
%TO.C,MX_SW119*%
X300463568Y-72390000D03*
D14*
X295383568Y-72390000D03*
D16*
X290303568Y-72390000D03*
D17*
X288023568Y-69850000D03*
X301473568Y-67310000D03*
%TD*%
D20*
%TO.C,C113*%
X171933568Y-50275001D03*
X171933568Y-49315001D03*
%TD*%
D14*
%TO.C,MX_SW26*%
X47625000Y-88582500D03*
D16*
X52705000Y-88582500D03*
X42545000Y-88582500D03*
D17*
X40265000Y-86042500D03*
X53715000Y-83502500D03*
%TD*%
D23*
%TO.C,CH_SW104*%
X243453568Y-5325000D03*
D24*
X238233568Y-9525000D03*
D25*
X243733568Y-9525000D03*
X232733568Y-9525000D03*
D26*
X229988568Y-13275000D03*
X241478568Y-15475000D03*
%TD*%
D21*
%TO.C,D109*%
X208708568Y-59863750D03*
X210608568Y-59863750D03*
X209658568Y-61738750D03*
%TD*%
D14*
%TO.C,MX_SW116*%
X238233568Y-47625000D03*
D16*
X233153568Y-47625000D03*
X243313568Y-47625000D03*
D17*
X230873568Y-45085000D03*
X244323568Y-42545000D03*
%TD*%
D16*
%TO.C,MX_SW127*%
X233153568Y-85725000D03*
X243313568Y-85725000D03*
D14*
X238233568Y-85725000D03*
D17*
X230873568Y-83185000D03*
X244323568Y-80645000D03*
%TD*%
D21*
%TO.C,D104*%
X284908568Y-40813750D03*
X286808568Y-40813750D03*
X285858568Y-42688750D03*
%TD*%
D56*
%TO.C,J104*%
X16500000Y-113757500D03*
X18500000Y-113757500D03*
D57*
X14150000Y-108007500D03*
X20850000Y-108007500D03*
%TD*%
D16*
%TO.C,MX_SW19*%
X14605000Y-72390000D03*
D14*
X9525000Y-72390000D03*
D16*
X4445000Y-72390000D03*
D17*
X2165000Y-69850000D03*
X15615000Y-67310000D03*
%TD*%
D25*
%TO.C,CH_SW123*%
X213683568Y-69532500D03*
D24*
X219183568Y-69532500D03*
D25*
X224683568Y-69532500D03*
D23*
X224403568Y-65332500D03*
D26*
X210938568Y-73282500D03*
X222428568Y-75482500D03*
%TD*%
D16*
%TO.C,MX_SW120*%
X281413568Y-72390000D03*
D14*
X276333568Y-72390000D03*
D16*
X271253568Y-72390000D03*
D17*
X268973568Y-69850000D03*
X282423568Y-67310000D03*
%TD*%
D14*
%TO.C,MX_SW18*%
X104775000Y-53340000D03*
D16*
X99695000Y-53340000D03*
X109855000Y-53340000D03*
D17*
X97415000Y-50800000D03*
X110865000Y-48260000D03*
%TD*%
D24*
%TO.C,CH_SW23*%
X85725000Y-69532500D03*
D25*
X91225000Y-69532500D03*
D23*
X90945000Y-65332500D03*
D25*
X80225000Y-69532500D03*
D26*
X77480000Y-73282500D03*
X88970000Y-75482500D03*
%TD*%
D25*
%TO.C,CH_SW103*%
X262783568Y-12382500D03*
D24*
X257283568Y-12382500D03*
D25*
X251783568Y-12382500D03*
D23*
X262503568Y-8182500D03*
D26*
X249038568Y-16132500D03*
X260528568Y-18332500D03*
%TD*%
D25*
%TO.C,CH_SW15*%
X53125000Y-50482500D03*
D23*
X52845000Y-46282500D03*
D25*
X42125000Y-50482500D03*
D24*
X47625000Y-50482500D03*
D26*
X39380000Y-54232500D03*
X50870000Y-56432500D03*
%TD*%
D18*
%TO.C,C119*%
X165933567Y-49315001D03*
X165933567Y-50275001D03*
%TD*%
D16*
%TO.C,MX_SW113*%
X300463568Y-53340000D03*
X290303568Y-53340000D03*
D14*
X295383568Y-53340000D03*
D17*
X288023568Y-50800000D03*
X301473568Y-48260000D03*
%TD*%
D58*
%TO.C,J4*%
X114510000Y-49075000D03*
D59*
X117050000Y-49075000D03*
X114510000Y-51615000D03*
X117050000Y-51615000D03*
X114510000Y-54155000D03*
X117050000Y-54155000D03*
%TD*%
D25*
%TO.C,CH_SW106*%
X194633568Y-15240000D03*
D23*
X205353568Y-11040000D03*
D24*
X200133568Y-15240000D03*
D25*
X205633568Y-15240000D03*
D26*
X191888568Y-18990000D03*
X203378568Y-21190000D03*
%TD*%
D18*
%TO.C,C106*%
X177208567Y-49315001D03*
X177208567Y-50275001D03*
%TD*%
D20*
%TO.C,C15*%
X127364643Y-50390874D03*
X127364643Y-49430874D03*
%TD*%
D30*
%TO.C,R103*%
X166808568Y-61799999D03*
X166808568Y-62819999D03*
%TD*%
D60*
%TO.C,D116*%
X185479546Y-105702823D03*
X187314805Y-105211066D03*
X186882461Y-107268055D03*
%TD*%
D13*
%TO.C,MO106*%
X22058568Y-102075000D03*
X22058568Y-105775000D03*
X22058568Y-102815000D03*
X22058568Y-104295000D03*
X22058568Y-105035000D03*
X22058568Y-103555000D03*
%TD*%
D24*
%TO.C,CH_SW4*%
X66675000Y-9525000D03*
D23*
X71895000Y-5325000D03*
D25*
X72175000Y-9525000D03*
X61175000Y-9525000D03*
D26*
X58430000Y-13275000D03*
X69920000Y-15475000D03*
%TD*%
D16*
%TO.C,MX_SW111*%
X224263568Y-31432500D03*
D14*
X219183568Y-31432500D03*
D16*
X214103568Y-31432500D03*
D17*
X211823568Y-28892500D03*
X225273568Y-26352500D03*
%TD*%
D29*
%TO.C,UG5*%
X58065000Y-58385000D03*
X58065000Y-59485000D03*
X56235000Y-59485000D03*
X56235000Y-58385000D03*
%TD*%
D21*
%TO.C,D110*%
X284908568Y-78913750D03*
X286808568Y-78913750D03*
X285858568Y-80788750D03*
%TD*%
D18*
%TO.C,C7*%
X135639642Y-49430874D03*
X135639642Y-50390874D03*
%TD*%
D21*
%TO.C,D12*%
X94300000Y-78993125D03*
X96200000Y-78993125D03*
X95250000Y-80868125D03*
%TD*%
D23*
%TO.C,CH_SW116*%
X243453568Y-43425000D03*
D25*
X243733568Y-47625000D03*
D24*
X238233568Y-47625000D03*
D25*
X232733568Y-47625000D03*
D26*
X229988568Y-51375000D03*
X241478568Y-53575000D03*
%TD*%
D24*
%TO.C,CH_SW115*%
X257283568Y-50482500D03*
D25*
X251783568Y-50482500D03*
X262783568Y-50482500D03*
D23*
X262503568Y-46282500D03*
D26*
X249038568Y-54232500D03*
X260528568Y-56432500D03*
%TD*%
D42*
%TO.C,R107*%
X173734315Y-64900000D03*
X175559315Y-64900000D03*
%TD*%
D23*
%TO.C,CH_SW117*%
X224403568Y-46282500D03*
D25*
X213683568Y-50482500D03*
D24*
X219183568Y-50482500D03*
D25*
X224683568Y-50482500D03*
D26*
X210938568Y-54232500D03*
X222428568Y-56432500D03*
%TD*%
D18*
%TO.C,C19*%
X123364641Y-49430874D03*
X123364641Y-50390874D03*
%TD*%
D20*
%TO.C,C104*%
X179208568Y-50275001D03*
X179208568Y-49315001D03*
%TD*%
D21*
%TO.C,D1*%
X18100000Y-21843125D03*
X20000000Y-21843125D03*
X19050000Y-23718125D03*
%TD*%
%TO.C,D102*%
X246808568Y-18906250D03*
X248708568Y-18906250D03*
X247758568Y-20781250D03*
%TD*%
D29*
%TO.C,UG7*%
X134262858Y-64100000D03*
X134262858Y-65200000D03*
X132432858Y-65200000D03*
X132432858Y-64100000D03*
%TD*%
D28*
%TO.C,U101*%
X11625000Y-117107500D03*
X10675000Y-117107500D03*
X9725000Y-117182500D03*
X9725000Y-114757500D03*
X10675000Y-114757500D03*
X11625000Y-114757500D03*
%TD*%
D21*
%TO.C,D107*%
X284908568Y-59863750D03*
X286808568Y-59863750D03*
X285858568Y-61738750D03*
%TD*%
D16*
%TO.C,MX_SW27*%
X71755000Y-85725000D03*
D14*
X66675000Y-85725000D03*
D16*
X61595000Y-85725000D03*
D17*
X59315000Y-83185000D03*
X72765000Y-80645000D03*
%TD*%
D21*
%TO.C,D101*%
X284908568Y-21763750D03*
X286808568Y-21763750D03*
X285858568Y-23638750D03*
%TD*%
D61*
%TO.C,UG9*%
X121676173Y-90193060D03*
X121391472Y-91255579D03*
X119623827Y-90781940D03*
X119908528Y-89719421D03*
%TD*%
D20*
%TO.C,C116*%
X168933568Y-50275001D03*
X168933568Y-49315001D03*
%TD*%
D16*
%TO.C,MX_SW15*%
X52705000Y-50482500D03*
D14*
X47625000Y-50482500D03*
D16*
X42545000Y-50482500D03*
D17*
X40265000Y-47942500D03*
X53715000Y-45402500D03*
%TD*%
D23*
%TO.C,CH_SW1*%
X14745000Y-11040000D03*
D25*
X15025000Y-15240000D03*
D24*
X9525000Y-15240000D03*
D25*
X4025000Y-15240000D03*
D26*
X1280000Y-18990000D03*
X12770000Y-21190000D03*
%TD*%
D14*
%TO.C,MX_SW12*%
X104775000Y-34290000D03*
D16*
X99695000Y-34290000D03*
X109855000Y-34290000D03*
D17*
X97415000Y-31750000D03*
X110865000Y-29210000D03*
%TD*%
D22*
%TO.C,UG107*%
X170537142Y-65200000D03*
X170537142Y-64100000D03*
X172367142Y-64100000D03*
X172367142Y-65200000D03*
%TD*%
D58*
%TO.C,J103*%
X188908568Y-53000000D03*
D59*
X186368568Y-53000000D03*
X188908568Y-50460000D03*
X186368568Y-50460000D03*
X188908568Y-47920000D03*
X186368568Y-47920000D03*
%TD*%
D43*
%TO.C,J101*%
X6435000Y-112677501D03*
X6435000Y-120177501D03*
D44*
X7635000Y-119627501D03*
X7635000Y-118877501D03*
D45*
X7635000Y-117677501D03*
X7635000Y-116677501D03*
X7635000Y-116177501D03*
X7635000Y-115177501D03*
D44*
X7635000Y-113977501D03*
X7635000Y-113227501D03*
X7635000Y-113227501D03*
X7635000Y-113977501D03*
D45*
X7635000Y-114677501D03*
X7635000Y-115677501D03*
X7635000Y-117177501D03*
X7635000Y-118177501D03*
D44*
X7635000Y-118877501D03*
X7635000Y-119627501D03*
D46*
X6355000Y-122002501D03*
X1755000Y-122022501D03*
X1755000Y-110872501D03*
X6355000Y-110852501D03*
%TD*%
D25*
%TO.C,CH_SW130*%
X181404366Y-101133790D03*
X170779182Y-103980800D03*
D24*
X176091774Y-102557295D03*
D23*
X180046867Y-97149371D03*
D62*
X169098287Y-108313480D03*
X180766177Y-107464686D03*
%TD*%
D22*
%TO.C,UG104*%
X284943568Y-64851250D03*
X284943568Y-63751250D03*
X286773568Y-63751250D03*
X286773568Y-64851250D03*
%TD*%
D24*
%TO.C,CH_SW29*%
X108115797Y-97010479D03*
D25*
X102803205Y-95586974D03*
X113428389Y-98433984D03*
D23*
X114244970Y-94304626D03*
D53*
X99181167Y-98498738D03*
X109710253Y-103597605D03*
%TD*%
D63*
%TO.C,UG108*%
X183408528Y-91255579D03*
X183123827Y-90193060D03*
X184891472Y-89719421D03*
X185176173Y-90781940D03*
%TD*%
D25*
%TO.C,CH_SW18*%
X110275000Y-53340000D03*
D23*
X109995000Y-49140000D03*
D24*
X104775000Y-53340000D03*
D25*
X99275000Y-53340000D03*
D26*
X96530000Y-57090000D03*
X108020000Y-59290000D03*
%TD*%
D27*
%TO.C,W1*%
X117775000Y-8715000D03*
%TD*%
D16*
%TO.C,MX_SW115*%
X262363568Y-50482500D03*
D14*
X257283568Y-50482500D03*
D16*
X252203568Y-50482500D03*
D17*
X249923568Y-47942500D03*
X263373568Y-45402500D03*
%TD*%
D14*
%TO.C,MX_SW104*%
X238233568Y-9525000D03*
D16*
X243313568Y-9525000D03*
X233153568Y-9525000D03*
D17*
X230873568Y-6985000D03*
X244323568Y-4445000D03*
%TD*%
D16*
%TO.C,MX_SW102*%
X271253568Y-15240000D03*
X281413568Y-15240000D03*
D14*
X276333568Y-15240000D03*
D17*
X268973568Y-12700000D03*
X282423568Y-10160000D03*
%TD*%
D64*
%TO.C,J7*%
X266098568Y-117450000D03*
X266098568Y-116950000D03*
X266098568Y-116450000D03*
X266098568Y-115950000D03*
X266098568Y-115450000D03*
X266098568Y-114950000D03*
X266098568Y-114450000D03*
X266098568Y-113950000D03*
D65*
X263398568Y-118675000D03*
X263398568Y-112725000D03*
%TD*%
D20*
%TO.C,C11*%
X130364642Y-50390874D03*
X130364642Y-49430874D03*
%TD*%
D21*
%TO.C,D112*%
X208708568Y-78913750D03*
X210608568Y-78913750D03*
X209658568Y-80788750D03*
%TD*%
D39*
%TO.C,M1*%
X138575000Y-39725001D03*
D38*
X118575000Y-39725001D03*
D40*
X119325000Y-45000001D03*
X119575000Y-37450001D03*
X119825000Y-45000001D03*
X120075000Y-37450001D03*
X120325000Y-45000001D03*
X120575000Y-37450001D03*
X120825000Y-45000001D03*
X121075000Y-37450001D03*
X121325000Y-45000001D03*
X121575000Y-37450001D03*
X121825000Y-45000001D03*
X122075000Y-37450001D03*
X122325000Y-45000001D03*
X122575000Y-37450001D03*
X122825000Y-45000001D03*
X123075000Y-37450001D03*
X123325000Y-45000001D03*
X123575000Y-37450001D03*
X123825000Y-45000001D03*
X124075000Y-37450001D03*
X124325000Y-45000001D03*
X124575000Y-37450001D03*
X124825000Y-45000001D03*
X127075000Y-37450001D03*
X127325000Y-45000001D03*
X127575000Y-37450001D03*
X127825000Y-45000001D03*
X128075000Y-37450001D03*
X128325000Y-45000001D03*
X128575000Y-37450001D03*
X128825000Y-45000001D03*
X129075000Y-37450001D03*
X129325000Y-45000001D03*
X129575000Y-37450001D03*
X129825000Y-45000001D03*
X130075000Y-37450001D03*
X130325000Y-45000001D03*
X130575000Y-37450001D03*
X130825000Y-45000001D03*
X131075000Y-37450001D03*
X131325000Y-45000001D03*
X131575000Y-37450001D03*
X131825000Y-45000001D03*
X132075000Y-37450001D03*
X132325000Y-45000001D03*
X132575000Y-37450001D03*
X132825000Y-45000001D03*
X133075000Y-37450001D03*
X133325000Y-45000001D03*
X133575000Y-37450001D03*
X133825000Y-45000001D03*
X134075000Y-37450001D03*
X134325000Y-45000001D03*
X134575000Y-37450001D03*
X134825000Y-45000001D03*
X135075000Y-37450001D03*
X135325000Y-45000001D03*
X135575000Y-37450001D03*
X135825000Y-45000001D03*
X136075000Y-37450001D03*
X136325000Y-45000001D03*
X136575000Y-37450001D03*
X136825000Y-45000001D03*
X137075000Y-37450001D03*
X137325000Y-45000001D03*
X137575000Y-37450001D03*
X137825000Y-45000001D03*
D41*
X118225000Y-44225001D03*
X138925000Y-44225001D03*
%TD*%
D25*
%TO.C,CH_SW17*%
X80225000Y-50482500D03*
D23*
X90945000Y-46282500D03*
D25*
X91225000Y-50482500D03*
D24*
X85725000Y-50482500D03*
D26*
X77480000Y-54232500D03*
X88970000Y-56432500D03*
%TD*%
D49*
%TO.C,J6*%
X138364642Y-52365873D03*
X137864642Y-52365873D03*
X137364642Y-52365873D03*
X136864642Y-52365873D03*
X136364642Y-52365873D03*
X135864642Y-52365873D03*
X135364642Y-52365873D03*
X134864642Y-52365873D03*
X134364642Y-52365873D03*
X133864642Y-52365873D03*
X133364642Y-52365873D03*
X132864642Y-52365873D03*
X132364642Y-52365873D03*
X131864642Y-52365873D03*
X131364642Y-52365873D03*
X130864642Y-52365873D03*
X130364642Y-52365873D03*
X129864642Y-52365873D03*
X129364642Y-52365873D03*
X128864642Y-52365873D03*
X128364642Y-52365873D03*
X127864642Y-52365873D03*
X127364642Y-52365873D03*
X126864642Y-52365873D03*
X126364642Y-52365873D03*
X125864642Y-52365873D03*
X125364642Y-52365873D03*
X124864642Y-52365873D03*
X124364642Y-52365873D03*
X123864642Y-52365873D03*
D50*
X139589642Y-55065873D03*
X122639642Y-55065873D03*
%TD*%
D66*
%TO.C,R6*%
X124010000Y-62159999D03*
X124010000Y-61139999D03*
%TD*%
D23*
%TO.C,CH_SW11*%
X90945000Y-27232500D03*
D25*
X91225000Y-31432500D03*
X80225000Y-31432500D03*
D24*
X85725000Y-31432500D03*
D26*
X77480000Y-35182500D03*
X88970000Y-37382500D03*
%TD*%
D36*
%TO.C,C101*%
X160808568Y-48437500D03*
X161768568Y-48437500D03*
%TD*%
D21*
%TO.C,D103*%
X208708568Y-21763750D03*
X210608568Y-21763750D03*
X209658568Y-23638750D03*
%TD*%
D27*
%TO.C,W2*%
X144454284Y-8715000D03*
%TD*%
D14*
%TO.C,MX_SW105*%
X219183568Y-12382500D03*
D16*
X214103568Y-12382500D03*
X224263568Y-12382500D03*
D17*
X211823568Y-9842500D03*
X225273568Y-7302500D03*
%TD*%
D60*
%TO.C,D113*%
X187860796Y-86255948D03*
X189696055Y-85764191D03*
X189263711Y-87821180D03*
%TD*%
D16*
%TO.C,MX_SW122*%
X243313568Y-66675000D03*
X233153568Y-66675000D03*
D14*
X238233568Y-66675000D03*
D17*
X230873568Y-64135000D03*
X244323568Y-61595000D03*
%TD*%
D36*
%TO.C,C12*%
X129604642Y-47540874D03*
X130564642Y-47540874D03*
%TD*%
D24*
%TO.C,CH_SW111*%
X219183568Y-31432500D03*
D25*
X213683568Y-31432500D03*
X224683568Y-31432500D03*
D23*
X224403568Y-27232500D03*
D26*
X210938568Y-35182500D03*
X222428568Y-37382500D03*
%TD*%
D27*
%TO.C,M102*%
X8500000Y-103107500D03*
%TD*%
D16*
%TO.C,MX_SW107*%
X300463568Y-34290000D03*
D14*
X295383568Y-34290000D03*
D16*
X290303568Y-34290000D03*
D17*
X288023568Y-31750000D03*
X301473568Y-29210000D03*
%TD*%
D27*
%TO.C,W102*%
X187133568Y-66418053D03*
%TD*%
D56*
%TO.C,J3*%
X286408568Y-113757500D03*
X288408568Y-113757500D03*
D57*
X290758568Y-108007500D03*
X284058568Y-108007500D03*
%TD*%
D49*
%TO.C,J2*%
X140950000Y-65725000D03*
X140450000Y-65725000D03*
X139950000Y-65725000D03*
X139450000Y-65725000D03*
X138950000Y-65725000D03*
X138450000Y-65725000D03*
X137950000Y-65725000D03*
X137450000Y-65725000D03*
D50*
X142175000Y-68425000D03*
X136225000Y-68425000D03*
%TD*%
D23*
%TO.C,CH_SW105*%
X224403568Y-8182500D03*
D24*
X219183568Y-12382500D03*
D25*
X224683568Y-12382500D03*
X213683568Y-12382500D03*
D26*
X210938568Y-16132500D03*
X222428568Y-18332500D03*
%TD*%
D25*
%TO.C,CH_SW2*%
X34075000Y-15240000D03*
D23*
X33795000Y-11040000D03*
D25*
X23075000Y-15240000D03*
D24*
X28575000Y-15240000D03*
D26*
X20330000Y-18990000D03*
X31820000Y-21190000D03*
%TD*%
D22*
%TO.C,UG3*%
X94335000Y-27100000D03*
X94335000Y-26000000D03*
X96165000Y-26000000D03*
X96165000Y-27100000D03*
%TD*%
D36*
%TO.C,C112*%
X172173568Y-47425001D03*
X173133568Y-47425001D03*
%TD*%
D20*
%TO.C,C4*%
X136639642Y-50390874D03*
X136639642Y-49430874D03*
%TD*%
D22*
%TO.C,UG2*%
X56235000Y-21385000D03*
X56235000Y-20285000D03*
X58065000Y-20285000D03*
X58065000Y-21385000D03*
%TD*%
D23*
%TO.C,CH_SW120*%
X281553568Y-68190000D03*
D25*
X281833568Y-72390000D03*
X270833568Y-72390000D03*
D24*
X276333568Y-72390000D03*
D26*
X268088568Y-76140000D03*
X279578568Y-78340000D03*
%TD*%
D23*
%TO.C,CH_SW101*%
X300603568Y-11040000D03*
D25*
X300883568Y-15240000D03*
D24*
X295383568Y-15240000D03*
D25*
X289883568Y-15240000D03*
D26*
X287138568Y-18990000D03*
X298628568Y-21190000D03*
%TD*%
D14*
%TO.C,MX_SW131*%
X173626522Y-93356851D03*
D16*
X172311721Y-88449948D03*
X174941323Y-98263754D03*
D67*
X173077979Y-101123465D03*
X167143411Y-88789163D03*
%TD*%
D23*
%TO.C,CH_SW113*%
X300603568Y-49140000D03*
D25*
X300883568Y-53340000D03*
X289883568Y-53340000D03*
D24*
X295383568Y-53340000D03*
D26*
X287138568Y-57090000D03*
X298628568Y-59290000D03*
%TD*%
D20*
%TO.C,C14*%
X128364642Y-50390874D03*
X128364642Y-49430874D03*
%TD*%
D66*
%TO.C,R7*%
X125100000Y-62169999D03*
X125100000Y-61149999D03*
%TD*%
D23*
%TO.C,CH_SW14*%
X33795000Y-49140000D03*
D25*
X23075000Y-53340000D03*
X34075000Y-53340000D03*
D24*
X28575000Y-53340000D03*
D26*
X20330000Y-57090000D03*
X31820000Y-59290000D03*
%TD*%
D16*
%TO.C,MX_SW6*%
X109855000Y-15240000D03*
D14*
X104775000Y-15240000D03*
D16*
X99695000Y-15240000D03*
D17*
X97415000Y-12700000D03*
X110865000Y-10160000D03*
%TD*%
D29*
%TO.C,UG6*%
X96165000Y-64100000D03*
X96165000Y-65200000D03*
X94335000Y-65200000D03*
X94335000Y-64100000D03*
%TD*%
D23*
%TO.C,CH_SW125*%
X177416475Y-78132171D03*
D25*
X168148790Y-84963600D03*
X178773974Y-82116590D03*
D24*
X173461382Y-83540095D03*
D62*
X166467895Y-89296280D03*
X178135785Y-88447486D03*
%TD*%
D24*
%TO.C,CH_SW124*%
X200133568Y-72390000D03*
D25*
X194633568Y-72390000D03*
D23*
X205353568Y-68190000D03*
D25*
X205633568Y-72390000D03*
D26*
X191888568Y-76140000D03*
X203378568Y-78340000D03*
%TD*%
D68*
%TO.C,SW101*%
X1920000Y-106957500D03*
X1920000Y-103957500D03*
D69*
X3920000Y-107707500D03*
X3920000Y-104707500D03*
X3920000Y-103207500D03*
D70*
X770000Y-101757500D03*
X3070000Y-109157500D03*
X770000Y-109157500D03*
X3070000Y-101757500D03*
%TD*%
D42*
%TO.C,R106*%
X179338926Y-47800000D03*
X181163926Y-47800000D03*
%TD*%
D71*
%TO.C,C102*%
X159808568Y-48437500D03*
X158848568Y-48437500D03*
%TD*%
D30*
%TO.C,R2*%
X295508568Y-118597500D03*
X295508568Y-119617500D03*
%TD*%
D23*
%TO.C,CH_SW118*%
X205353568Y-49140000D03*
D24*
X200133568Y-53340000D03*
D25*
X205633568Y-53340000D03*
X194633568Y-53340000D03*
D26*
X191888568Y-57090000D03*
X203378568Y-59290000D03*
%TD*%
D13*
%TO.C,MO105*%
X44950000Y-115090000D03*
X44950000Y-117310000D03*
X44950000Y-115830000D03*
X44950000Y-116570000D03*
X44950000Y-118050000D03*
X44950000Y-114350000D03*
%TD*%
D35*
%TO.C,F1*%
X296200000Y-109287500D03*
X296200000Y-111112500D03*
%TD*%
D16*
%TO.C,MX_SW123*%
X224263568Y-69532500D03*
D14*
X219183568Y-69532500D03*
D16*
X214103568Y-69532500D03*
D17*
X211823568Y-66992500D03*
X225273568Y-64452500D03*
%TD*%
D14*
%TO.C,MX_SW109*%
X257283568Y-31432500D03*
D16*
X252203568Y-31432500D03*
X262363568Y-31432500D03*
D17*
X249923568Y-28892500D03*
X263373568Y-26352500D03*
%TD*%
D21*
%TO.C,D111*%
X246808568Y-76056250D03*
X248708568Y-76056250D03*
X247758568Y-77931250D03*
%TD*%
D24*
%TO.C,CH_SW110*%
X238233568Y-28575000D03*
D25*
X232733568Y-28575000D03*
D23*
X243453568Y-24375000D03*
D25*
X243733568Y-28575000D03*
D26*
X229988568Y-32325000D03*
X241478568Y-34525000D03*
%TD*%
D13*
%TO.C,MO104*%
X246648568Y-98057500D03*
X245908568Y-98057500D03*
X249608568Y-98057500D03*
X247388568Y-98057500D03*
X248128568Y-98057500D03*
X248868568Y-98057500D03*
%TD*%
D23*
%TO.C,CH_SW19*%
X14745000Y-68190000D03*
D25*
X15025000Y-72390000D03*
X4025000Y-72390000D03*
D24*
X9525000Y-72390000D03*
D26*
X1280000Y-76140000D03*
X12770000Y-78340000D03*
%TD*%
D19*
%TO.C,J107*%
X21250000Y-124107500D03*
X23750000Y-124107500D03*
X26250000Y-124107500D03*
X28750000Y-124107500D03*
%TD*%
D25*
%TO.C,CH_SW112*%
X205633568Y-34290000D03*
D24*
X200133568Y-34290000D03*
D23*
X205353568Y-30090000D03*
D25*
X194633568Y-34290000D03*
D26*
X191888568Y-38040000D03*
X203378568Y-40240000D03*
%TD*%
D16*
%TO.C,MX_SW126*%
X262363568Y-88582500D03*
X252203568Y-88582500D03*
D14*
X257283568Y-88582500D03*
D17*
X249923568Y-86042500D03*
X263373568Y-83502500D03*
%TD*%
D23*
%TO.C,CH_SW126*%
X262503568Y-84382500D03*
D24*
X257283568Y-88582500D03*
D25*
X251783568Y-88582500D03*
X262783568Y-88582500D03*
D26*
X249038568Y-92332500D03*
X260528568Y-94532500D03*
%TD*%
D16*
%TO.C,MX_SW128*%
X224263568Y-88582500D03*
X214103568Y-88582500D03*
D14*
X219183568Y-88582500D03*
D17*
X211823568Y-86042500D03*
X225273568Y-83502500D03*
%TD*%
D14*
%TO.C,MX_SW125*%
X173461382Y-83540095D03*
D16*
X178368285Y-82225294D03*
X168554479Y-84854896D03*
D47*
X165694768Y-82991552D03*
X178029070Y-77056984D03*
%TD*%
D14*
%TO.C,MX_SW5*%
X85725000Y-12382500D03*
D16*
X80645000Y-12382500D03*
X90805000Y-12382500D03*
D17*
X78365000Y-9842500D03*
X91815000Y-7302500D03*
%TD*%
D21*
%TO.C,D7*%
X18100000Y-59943125D03*
X20000000Y-59943125D03*
X19050000Y-61818125D03*
%TD*%
D14*
%TO.C,MX_SW20*%
X28575000Y-72390000D03*
D16*
X23495000Y-72390000D03*
X33655000Y-72390000D03*
D17*
X21215000Y-69850000D03*
X34665000Y-67310000D03*
%TD*%
D18*
%TO.C,C109*%
X175208568Y-49315001D03*
X175208568Y-50275001D03*
%TD*%
D25*
%TO.C,CH_SW119*%
X300883568Y-72390000D03*
D24*
X295383568Y-72390000D03*
D23*
X300603568Y-68190000D03*
D25*
X289883568Y-72390000D03*
D26*
X287138568Y-76140000D03*
X298628568Y-78340000D03*
%TD*%
D21*
%TO.C,D106*%
X208708568Y-40813750D03*
X210608568Y-40813750D03*
X209658568Y-42688750D03*
%TD*%
D24*
%TO.C,CH_SW109*%
X257283568Y-31432500D03*
D25*
X251783568Y-31432500D03*
D23*
X262503568Y-27232500D03*
D25*
X262783568Y-31432500D03*
D26*
X249038568Y-35182500D03*
X260528568Y-37382500D03*
%TD*%
D27*
%TO.C,M103*%
X33000000Y-116307500D03*
%TD*%
D25*
%TO.C,CH_SW121*%
X262783568Y-69532500D03*
X251783568Y-69532500D03*
D24*
X257283568Y-69532500D03*
D23*
X262503568Y-65332500D03*
D26*
X249038568Y-73282500D03*
X260528568Y-75482500D03*
%TD*%
D27*
%TO.C,M2*%
X296408568Y-103107500D03*
%TD*%
D25*
%TO.C,CH_SW107*%
X300883568Y-34290000D03*
D24*
X295383568Y-34290000D03*
D25*
X289883568Y-34290000D03*
D23*
X300603568Y-30090000D03*
D26*
X287138568Y-38040000D03*
X298628568Y-40240000D03*
%TD*%
D21*
%TO.C,D115*%
X208708568Y-96693750D03*
X210608568Y-96693750D03*
X209658568Y-98568750D03*
%TD*%
D25*
%TO.C,CH_SW128*%
X224683568Y-88582500D03*
X213683568Y-88582500D03*
D24*
X219183568Y-88582500D03*
D23*
X224403568Y-84382500D03*
D26*
X210938568Y-92332500D03*
X222428568Y-94532500D03*
%TD*%
D20*
%TO.C,C1*%
X116450000Y-35750000D03*
X116450000Y-34790000D03*
%TD*%
%TO.C,C105*%
X180208568Y-50275001D03*
X180208568Y-49315001D03*
%TD*%
D14*
%TO.C,MX_SW29*%
X108115797Y-97010479D03*
D16*
X113022700Y-98325280D03*
X103208894Y-95695678D03*
D34*
X101663983Y-92652119D03*
X115313086Y-93679784D03*
%TD*%
D72*
%TO.C,U1*%
X114050000Y-39000000D03*
X114050000Y-37100000D03*
X115925000Y-38050000D03*
%TD*%
D21*
%TO.C,D108*%
X246808568Y-57006250D03*
X248708568Y-57006250D03*
X247758568Y-58881250D03*
%TD*%
D16*
%TO.C,MX_SW124*%
X195053568Y-72390000D03*
D14*
X200133568Y-72390000D03*
D16*
X205213568Y-72390000D03*
D17*
X192773568Y-69850000D03*
X206223568Y-67310000D03*
%TD*%
D27*
%TO.C,W4*%
X144454284Y-73566746D03*
%TD*%
D16*
%TO.C,MX_SW103*%
X262363568Y-12382500D03*
D14*
X257283568Y-12382500D03*
D16*
X252203568Y-12382500D03*
D17*
X249923568Y-9842500D03*
X263373568Y-7302500D03*
%TD*%
D25*
%TO.C,CH_SW26*%
X42125000Y-88582500D03*
D23*
X52845000Y-84382500D03*
D24*
X47625000Y-88582500D03*
D25*
X53125000Y-88582500D03*
D26*
X39380000Y-92332500D03*
X50870000Y-94532500D03*
%TD*%
D23*
%TO.C,CH_SW25*%
X137576361Y-80834243D03*
D24*
X131447188Y-83540096D03*
D25*
X136759780Y-84963601D03*
X126134596Y-82116591D03*
D53*
X122512558Y-85028355D03*
X133041644Y-90127222D03*
%TD*%
D23*
%TO.C,CH_SW129*%
X200747865Y-91602555D03*
D24*
X196792772Y-97010479D03*
D25*
X202105364Y-95586974D03*
X191480180Y-98433984D03*
D62*
X189799285Y-102766664D03*
X201467175Y-101917870D03*
%TD*%
D52*
%TO.C,D16*%
X115075013Y-104348566D03*
X116910272Y-104840323D03*
X115507357Y-106405555D03*
%TD*%
D37*
%TO.C,D17*%
X135189642Y-47740874D03*
X131889642Y-47740874D03*
%TD*%
D64*
%TO.C,J106*%
X38810000Y-113950000D03*
X38810000Y-114450000D03*
X38810000Y-114950000D03*
X38810000Y-115450000D03*
X38810000Y-115950000D03*
X38810000Y-116450000D03*
X38810000Y-116950000D03*
X38810000Y-117450000D03*
D65*
X41510000Y-112725000D03*
X41510000Y-118675000D03*
%TD*%
D21*
%TO.C,D6*%
X94300000Y-40893125D03*
X96200000Y-40893125D03*
X95250000Y-42768125D03*
%TD*%
D66*
%TO.C,R101*%
X9400000Y-119617500D03*
X9400000Y-118597500D03*
%TD*%
D21*
%TO.C,D15*%
X92315625Y-96693750D03*
X94215625Y-96693750D03*
X93265625Y-98568750D03*
%TD*%
D49*
%TO.C,J108*%
X180933568Y-52250000D03*
X180433568Y-52250000D03*
X179933568Y-52250000D03*
X179433568Y-52250000D03*
X178933568Y-52250000D03*
X178433568Y-52250000D03*
X177933568Y-52250000D03*
X177433568Y-52250000D03*
X176933568Y-52250000D03*
X176433568Y-52250000D03*
X175933568Y-52250000D03*
X175433568Y-52250000D03*
X174933568Y-52250000D03*
X174433568Y-52250000D03*
X173933568Y-52250000D03*
X173433568Y-52250000D03*
X172933568Y-52250000D03*
X172433568Y-52250000D03*
X171933568Y-52250000D03*
X171433568Y-52250000D03*
X170933568Y-52250000D03*
X170433568Y-52250000D03*
X169933568Y-52250000D03*
X169433568Y-52250000D03*
X168933568Y-52250000D03*
X168433568Y-52250000D03*
X167933568Y-52250000D03*
X167433568Y-52250000D03*
X166933568Y-52250000D03*
X166433568Y-52250000D03*
D50*
X182158568Y-54950000D03*
X165208568Y-54950000D03*
%TD*%
D18*
%TO.C,C18*%
X124364642Y-49430874D03*
X124364642Y-50390874D03*
%TD*%
D73*
%TO.C,LO102*%
X186300000Y-44025000D03*
D74*
X189250000Y-44675000D03*
%TD*%
D51*
%TO.C,R1*%
X294480000Y-113100000D03*
X295500000Y-113100000D03*
%TD*%
D13*
%TO.C,MO102*%
X258393568Y-2907500D03*
X257653568Y-2907500D03*
X256173568Y-2907500D03*
X256913568Y-2907500D03*
X255433568Y-2907500D03*
X259133568Y-2907500D03*
%TD*%
D68*
%TO.C,SW1*%
X302988568Y-106957500D03*
X302988568Y-103957500D03*
D75*
X300988568Y-103207500D03*
X300988568Y-106207500D03*
X300988568Y-107707500D03*
D76*
X304138568Y-101757500D03*
X301838568Y-109157500D03*
X304138568Y-109157500D03*
X301838568Y-101757500D03*
%TD*%
D29*
%TO.C,UG101*%
X286773568Y-25651250D03*
X286773568Y-26751250D03*
X284943568Y-26751250D03*
X284943568Y-25651250D03*
%TD*%
D24*
%TO.C,CH_SW122*%
X238233568Y-66675000D03*
D23*
X243453568Y-62475000D03*
D25*
X243733568Y-66675000D03*
X232733568Y-66675000D03*
D26*
X229988568Y-70425000D03*
X241478568Y-72625000D03*
%TD*%
D21*
%TO.C,D5*%
X56200000Y-35178125D03*
X58100000Y-35178125D03*
X57150000Y-37053125D03*
%TD*%
D27*
%TO.C,M3*%
X271908568Y-116307500D03*
%TD*%
D24*
%TO.C,CH_SW127*%
X238233568Y-85725000D03*
D25*
X243733568Y-85725000D03*
D23*
X243453568Y-81525000D03*
D25*
X232733568Y-85725000D03*
D26*
X229988568Y-89475000D03*
X241478568Y-91675000D03*
%TD*%
D25*
%TO.C,CH_SW108*%
X270833568Y-34290000D03*
X281833568Y-34290000D03*
D23*
X281553568Y-30090000D03*
D24*
X276333568Y-34290000D03*
D26*
X268088568Y-38040000D03*
X279578568Y-40240000D03*
%TD*%
D14*
%TO.C,MX_SW2*%
X28575000Y-15240000D03*
D16*
X23495000Y-15240000D03*
X33655000Y-15240000D03*
D17*
X21215000Y-12700000D03*
X34665000Y-10160000D03*
%TD*%
D21*
%TO.C,D14*%
X56200000Y-92328125D03*
X58100000Y-92328125D03*
X57150000Y-94203125D03*
%TD*%
D20*
%TO.C,C115*%
X169933569Y-50275001D03*
X169933569Y-49315001D03*
%TD*%
%TO.C,C16*%
X126364642Y-50390874D03*
X126364642Y-49430874D03*
%TD*%
M02*
