%TF.GenerationSoftware,KiCad,Pcbnew,6.0.11-3.fc37*%
%TF.CreationDate,2023-03-28T23:22:27+01:00*%
%TF.ProjectId,ISS,4953532e-6b69-4636-9164-5f7063625858,1*%
%TF.SameCoordinates,Original*%
%TF.FileFunction,Paste,Bot*%
%TF.FilePolarity,Positive*%
%FSLAX46Y46*%
G04 Gerber Fmt 4.6, Leading zero omitted, Abs format (unit mm)*
G04 Created by KiCad (PCBNEW 6.0.11-3.fc37) date 2023-03-28 23:22:27*
%MOMM*%
%LPD*%
G01*
G04 APERTURE LIST*
G04 Aperture macros list*
%AMRoundRect*
0 Rectangle with rounded corners*
0 $1 Rounding radius*
0 $2 $3 $4 $5 $6 $7 $8 $9 X,Y pos of 4 corners*
0 Add a 4 corners polygon primitive as box body*
4,1,4,$2,$3,$4,$5,$6,$7,$8,$9,$2,$3,0*
0 Add four circle primitives for the rounded corners*
1,1,$1+$1,$2,$3*
1,1,$1+$1,$4,$5*
1,1,$1+$1,$6,$7*
1,1,$1+$1,$8,$9*
0 Add four rect primitives between the rounded corners*
20,1,$1+$1,$2,$3,$4,$5,0*
20,1,$1+$1,$4,$5,$6,$7,0*
20,1,$1+$1,$6,$7,$8,$9,0*
20,1,$1+$1,$8,$9,$2,$3,0*%
G04 Aperture macros list end*
%ADD10RoundRect,0.250000X1.025000X1.000000X-1.025000X1.000000X-1.025000X-1.000000X1.025000X-1.000000X0*%
%ADD11RoundRect,0.140000X-0.170000X0.140000X-0.170000X-0.140000X0.170000X-0.140000X0.170000X0.140000X0*%
%ADD12RoundRect,0.140000X0.170000X-0.140000X0.170000X0.140000X-0.170000X0.140000X-0.170000X-0.140000X0*%
%ADD13RoundRect,0.150000X-0.150000X0.587500X-0.150000X-0.587500X0.150000X-0.587500X0.150000X0.587500X0*%
%ADD14RoundRect,0.105000X-0.245000X-0.245000X0.245000X-0.245000X0.245000X0.245000X-0.245000X0.245000X0*%
%ADD15RoundRect,0.260000X1.065000X1.040000X-1.065000X1.040000X-1.065000X-1.040000X1.065000X-1.040000X0*%
%ADD16RoundRect,0.150000X0.150000X-0.475000X0.150000X0.475000X-0.150000X0.475000X-0.150000X-0.475000X0*%
%ADD17RoundRect,0.105000X0.245000X0.245000X-0.245000X0.245000X-0.245000X-0.245000X0.245000X-0.245000X0*%
%ADD18RoundRect,0.135000X-0.185000X0.135000X-0.185000X-0.135000X0.185000X-0.135000X0.185000X0.135000X0*%
%ADD19RoundRect,0.150000X0.150000X-0.587500X0.150000X0.587500X-0.150000X0.587500X-0.150000X-0.587500X0*%
%ADD20RoundRect,0.250000X0.450000X-0.262500X0.450000X0.262500X-0.450000X0.262500X-0.450000X-0.262500X0*%
%ADD21RoundRect,0.250000X0.262500X0.450000X-0.262500X0.450000X-0.262500X-0.450000X0.262500X-0.450000X0*%
%ADD22RoundRect,0.250000X1.248893X0.700636X-0.731255X1.231215X-1.248893X-0.700636X0.731255X-1.231215X0*%
%ADD23RoundRect,0.250000X-0.450000X0.262500X-0.450000X-0.262500X0.450000X-0.262500X0.450000X0.262500X0*%
%ADD24RoundRect,0.140000X-0.140000X-0.170000X0.140000X-0.170000X0.140000X0.170000X-0.140000X0.170000X0*%
%ADD25R,0.900000X1.200000*%
%ADD26R,0.300000X1.550000*%
%ADD27R,1.200000X2.750000*%
%ADD28RoundRect,0.250000X-0.262500X-0.450000X0.262500X-0.450000X0.262500X0.450000X-0.262500X0.450000X0*%
%ADD29R,1.100000X0.540000*%
%ADD30R,1.100000X0.300000*%
%ADD31RoundRect,0.250000X0.731255X1.231215X-1.248893X0.700636X-0.731255X-1.231215X1.248893X-0.700636X0*%
%ADD32RoundRect,0.250000X0.700636X-1.248893X1.231215X0.731255X-0.700636X1.248893X-1.231215X-0.731255X0*%
%ADD33R,0.300000X0.800000*%
%ADD34R,0.950000X1.000000*%
%ADD35RoundRect,0.135000X-0.135000X-0.185000X0.135000X-0.185000X0.135000X0.185000X-0.135000X0.185000X0*%
%ADD36RoundRect,0.150000X0.007167X0.606304X-0.296945X-0.528659X-0.007167X-0.606304X0.296945X0.528659X0*%
%ADD37RoundRect,0.260000X1.297883X0.728921X-0.759539X1.280205X-1.297883X-0.728921X0.759539X-1.280205X0*%
%ADD38RoundRect,0.250000X-0.250000X-1.500000X0.250000X-1.500000X0.250000X1.500000X-0.250000X1.500000X0*%
%ADD39RoundRect,0.250001X-0.499999X-1.449999X0.499999X-1.449999X0.499999X1.449999X-0.499999X1.449999X0*%
%ADD40RoundRect,0.150000X-0.296945X0.528659X0.007167X-0.606304X0.296945X-0.528659X-0.007167X0.606304X0*%
%ADD41RoundRect,0.105000X0.300062X0.173241X-0.173241X0.300062X-0.300062X-0.173241X0.173241X-0.300062X0*%
%ADD42RoundRect,0.260000X0.759539X1.280205X-1.297883X0.728921X-0.759539X-1.280205X1.297883X-0.728921X0*%
%ADD43RoundRect,0.105000X-0.173241X-0.300062X0.300062X-0.173241X0.173241X0.300062X-0.300062X0.173241X0*%
%ADD44R,0.800000X0.300000*%
%ADD45R,1.000000X0.950000*%
%ADD46RoundRect,0.135000X0.185000X-0.135000X0.185000X0.135000X-0.185000X0.135000X-0.185000X-0.135000X0*%
%ADD47RoundRect,0.250000X-1.231215X0.731255X-0.700636X-1.248893X1.231215X-0.731255X0.700636X1.248893X0*%
%ADD48RoundRect,0.090000X0.535000X-0.210000X0.535000X0.210000X-0.535000X0.210000X-0.535000X-0.210000X0*%
%ADD49RoundRect,0.105000X-0.245000X-0.445000X0.245000X-0.445000X0.245000X0.445000X-0.245000X0.445000X0*%
%ADD50RoundRect,0.140000X0.140000X0.170000X-0.140000X0.170000X-0.140000X-0.170000X0.140000X-0.170000X0*%
%ADD51RoundRect,0.150000X-0.587500X-0.150000X0.587500X-0.150000X0.587500X0.150000X-0.587500X0.150000X0*%
%ADD52RoundRect,0.090000X-0.535000X0.210000X-0.535000X-0.210000X0.535000X-0.210000X0.535000X0.210000X0*%
%ADD53RoundRect,0.105000X0.245000X0.445000X-0.245000X0.445000X-0.245000X-0.445000X0.245000X-0.445000X0*%
G04 APERTURE END LIST*
D10*
%TO.C,MX_SW1*%
X2165000Y-12700000D03*
X15615000Y-10160000D03*
%TD*%
D11*
%TO.C,C9*%
X132639642Y-49430874D03*
X132639642Y-50390874D03*
%TD*%
D12*
%TO.C,C5*%
X137639642Y-50390874D03*
X137639642Y-49430874D03*
%TD*%
D13*
%TO.C,D2*%
X56200000Y-16128125D03*
X58100000Y-16128125D03*
X57150000Y-18003125D03*
%TD*%
D10*
%TO.C,MX_SW7*%
X2165000Y-31750000D03*
X15615000Y-29210000D03*
%TD*%
D14*
%TO.C,UG106*%
X208743568Y-64851250D03*
X208743568Y-63751250D03*
X210573568Y-63751250D03*
X210573568Y-64851250D03*
%TD*%
D15*
%TO.C,CH_SW20*%
X20330000Y-76140000D03*
X31820000Y-78340000D03*
%TD*%
D10*
%TO.C,MX_SW108*%
X268973568Y-31750000D03*
X282423568Y-29210000D03*
%TD*%
D16*
%TO.C,U2*%
X295183568Y-117107500D03*
X294233568Y-117107500D03*
X293283568Y-117182500D03*
X293283568Y-114757500D03*
X294233568Y-114757500D03*
X295183568Y-114757500D03*
%TD*%
D10*
%TO.C,MX_SW101*%
X288023568Y-12700000D03*
X301473568Y-10160000D03*
%TD*%
D17*
%TO.C,UG103*%
X210573568Y-25651250D03*
X210573568Y-26751250D03*
X208743568Y-26751250D03*
X208743568Y-25651250D03*
%TD*%
D11*
%TO.C,C118*%
X166933568Y-49315001D03*
X166933568Y-50275001D03*
%TD*%
D15*
%TO.C,CH_SW6*%
X96530000Y-18990000D03*
X108020000Y-21190000D03*
%TD*%
D13*
%TO.C,D105*%
X246808568Y-37956250D03*
X248708568Y-37956250D03*
X247758568Y-39831250D03*
%TD*%
%TO.C,D9*%
X94300000Y-59943125D03*
X96200000Y-59943125D03*
X95250000Y-61818125D03*
%TD*%
%TO.C,D8*%
X56200000Y-54228125D03*
X58100000Y-54228125D03*
X57150000Y-56103125D03*
%TD*%
D12*
%TO.C,C111*%
X172933568Y-50275001D03*
X172933568Y-49315001D03*
%TD*%
D10*
%TO.C,MX_SW22*%
X59315000Y-64135000D03*
X72765000Y-61595000D03*
%TD*%
D11*
%TO.C,C8*%
X133639643Y-49430874D03*
X133639643Y-50390874D03*
%TD*%
%TO.C,C108*%
X176208569Y-49315001D03*
X176208569Y-50275001D03*
%TD*%
D12*
%TO.C,C114*%
X170933568Y-50275001D03*
X170933568Y-49315001D03*
%TD*%
D18*
%TO.C,R104*%
X167908568Y-61800000D03*
X167908568Y-62820000D03*
%TD*%
D13*
%TO.C,D114*%
X245221068Y-94312500D03*
X247121068Y-94312500D03*
X246171068Y-96187500D03*
%TD*%
D19*
%TO.C,U102*%
X161258568Y-51875001D03*
X159358568Y-51875001D03*
X160308568Y-50000001D03*
%TD*%
D20*
%TO.C,R4*%
X136997858Y-62450001D03*
X136997858Y-60625001D03*
%TD*%
D21*
%TO.C,R5*%
X131150000Y-64800000D03*
X129325000Y-64800000D03*
%TD*%
D17*
%TO.C,UG102*%
X248673568Y-22793750D03*
X248673568Y-23893750D03*
X246843568Y-23893750D03*
X246843568Y-22793750D03*
%TD*%
D10*
%TO.C,MX_SW4*%
X59315000Y-6985000D03*
X72765000Y-4445000D03*
%TD*%
D22*
%TO.C,MX_SW30*%
X122364981Y-98198935D03*
X136014084Y-99226600D03*
%TD*%
D10*
%TO.C,MX_SW23*%
X78365000Y-66992500D03*
X91815000Y-64452500D03*
%TD*%
D23*
%TO.C,F101*%
X8750000Y-109542500D03*
X8750000Y-111367500D03*
%TD*%
D24*
%TO.C,C103*%
X159008568Y-53437500D03*
X159968568Y-53437500D03*
%TD*%
D15*
%TO.C,CH_SW27*%
X58430000Y-89475000D03*
X69920000Y-91675000D03*
%TD*%
D11*
%TO.C,C20*%
X122364642Y-49430874D03*
X122364642Y-50390874D03*
%TD*%
D13*
%TO.C,D11*%
X56200000Y-73278125D03*
X58100000Y-73278125D03*
X57150000Y-75153125D03*
%TD*%
D15*
%TO.C,CH_SW13*%
X1280000Y-57090000D03*
X12770000Y-59290000D03*
%TD*%
%TO.C,CH_SW7*%
X1280000Y-38040000D03*
X12770000Y-40240000D03*
%TD*%
D25*
%TO.C,D117*%
X177758568Y-47625001D03*
X174458568Y-47625001D03*
%TD*%
D10*
%TO.C,MX_SW21*%
X40265000Y-66992500D03*
X53715000Y-64452500D03*
%TD*%
D11*
%TO.C,C120*%
X164933568Y-49315001D03*
X164933568Y-50275001D03*
%TD*%
D26*
%TO.C,M101*%
X161975000Y-45000001D03*
X162225000Y-37450001D03*
X162475000Y-45000001D03*
X162725000Y-37450001D03*
X162975000Y-45000001D03*
X163225000Y-37450001D03*
X163475000Y-45000001D03*
X163725000Y-37450001D03*
X163975000Y-45000001D03*
X164225000Y-37450001D03*
X164475000Y-45000001D03*
X164725000Y-37450001D03*
X164975000Y-45000001D03*
X165225000Y-37450001D03*
X165475000Y-45000001D03*
X165725000Y-37450001D03*
X165975000Y-45000001D03*
X166225000Y-37450001D03*
X166475000Y-45000001D03*
X166725000Y-37450001D03*
X166975000Y-45000001D03*
X167225000Y-37450001D03*
X167475000Y-45000001D03*
X169725000Y-37450001D03*
X169975000Y-45000001D03*
X170225000Y-37450001D03*
X170475000Y-45000001D03*
X170725000Y-37450001D03*
X170975000Y-45000001D03*
X171225000Y-37450001D03*
X171475000Y-45000001D03*
X171725000Y-37450001D03*
X171975000Y-45000001D03*
X172225000Y-37450001D03*
X172475000Y-45000001D03*
X172725000Y-37450001D03*
X172975000Y-45000001D03*
X173225000Y-37450001D03*
X173475000Y-45000001D03*
X173725000Y-37450001D03*
X173975000Y-45000001D03*
X174225000Y-37450001D03*
X174475000Y-45000001D03*
X174725000Y-37450001D03*
X174975000Y-45000001D03*
X175225000Y-37450001D03*
X175475000Y-45000001D03*
X175725000Y-37450001D03*
X175975000Y-45000001D03*
X176225000Y-37450001D03*
X176475000Y-45000001D03*
X176725000Y-37450001D03*
X176975000Y-45000001D03*
X177225000Y-37450001D03*
X177475000Y-45000001D03*
X177725000Y-37450001D03*
X177975000Y-45000001D03*
X178225000Y-37450001D03*
X178475000Y-45000001D03*
X178725000Y-37450001D03*
X178975000Y-45000001D03*
X179225000Y-37450001D03*
X179475000Y-45000001D03*
X179725000Y-37450001D03*
X179975000Y-45000001D03*
X180225000Y-37450001D03*
X180475000Y-45000001D03*
D27*
X160875000Y-44225001D03*
X181575000Y-44225001D03*
%TD*%
D28*
%TO.C,R105*%
X179496068Y-62000000D03*
X181321068Y-62000000D03*
%TD*%
D12*
%TO.C,C117*%
X167933568Y-50275001D03*
X167933568Y-49315001D03*
%TD*%
D29*
%TO.C,J1*%
X297273568Y-113227501D03*
X297273568Y-113977501D03*
D30*
X297273568Y-115177501D03*
X297273568Y-116177501D03*
X297273568Y-116677501D03*
X297273568Y-117677501D03*
D29*
X297273568Y-118877501D03*
X297273568Y-119627501D03*
X297273568Y-119627501D03*
X297273568Y-118877501D03*
D30*
X297273568Y-118177501D03*
X297273568Y-117177501D03*
X297273568Y-115677501D03*
X297273568Y-114677501D03*
D29*
X297273568Y-113977501D03*
X297273568Y-113227501D03*
%TD*%
D31*
%TO.C,MX_SW129*%
X189026158Y-96461936D03*
X201360460Y-90527368D03*
%TD*%
D15*
%TO.C,CH_SW10*%
X58430000Y-32325000D03*
X69920000Y-34525000D03*
%TD*%
D10*
%TO.C,MX_SW14*%
X21215000Y-50800000D03*
X34665000Y-48260000D03*
%TD*%
D14*
%TO.C,UG1*%
X18135000Y-27100000D03*
X18135000Y-26000000D03*
X19965000Y-26000000D03*
X19965000Y-27100000D03*
%TD*%
D10*
%TO.C,MX_SW10*%
X59315000Y-26035000D03*
X72765000Y-23495000D03*
%TD*%
D32*
%TO.C,MX_SW31*%
X134137875Y-86113372D03*
X133110210Y-99762475D03*
%TD*%
D33*
%TO.C,J102*%
X167350000Y-65725000D03*
X166850000Y-65725000D03*
X166350000Y-65725000D03*
X165850000Y-65725000D03*
X165350000Y-65725000D03*
X164850000Y-65725000D03*
X164350000Y-65725000D03*
X163850000Y-65725000D03*
D34*
X168575000Y-68425000D03*
X162625000Y-68425000D03*
%TD*%
D10*
%TO.C,MX_SW16*%
X59315000Y-45085000D03*
X72765000Y-42545000D03*
%TD*%
D13*
%TO.C,D4*%
X18100000Y-40893125D03*
X20000000Y-40893125D03*
X19050000Y-42768125D03*
%TD*%
D10*
%TO.C,MX_SW117*%
X211823568Y-47942500D03*
X225273568Y-45402500D03*
%TD*%
D12*
%TO.C,C3*%
X114050000Y-35750000D03*
X114050000Y-34790000D03*
%TD*%
D35*
%TO.C,R102*%
X9424999Y-112707500D03*
X10444999Y-112707500D03*
%TD*%
D36*
%TO.C,D13*%
X115001946Y-86033989D03*
X116837205Y-86525746D03*
X115434290Y-88090978D03*
%TD*%
D10*
%TO.C,MX_SW8*%
X21215000Y-31750000D03*
X34665000Y-29210000D03*
%TD*%
%TO.C,MX_SW24*%
X97415000Y-69850000D03*
X110865000Y-67310000D03*
%TD*%
D15*
%TO.C,CH_SW28*%
X77480000Y-92332500D03*
X88970000Y-94532500D03*
%TD*%
D12*
%TO.C,C13*%
X129364642Y-50390874D03*
X129364642Y-49430874D03*
%TD*%
D15*
%TO.C,CH_SW22*%
X58430000Y-70425000D03*
X69920000Y-72625000D03*
%TD*%
%TO.C,CH_SW21*%
X39380000Y-73282500D03*
X50870000Y-75482500D03*
%TD*%
D22*
%TO.C,MX_SW25*%
X124995373Y-79181735D03*
X138644476Y-80209400D03*
%TD*%
D13*
%TO.C,D10*%
X18100000Y-78834375D03*
X20000000Y-78834375D03*
X19050000Y-80709375D03*
%TD*%
D15*
%TO.C,CH_SW102*%
X268088568Y-18990000D03*
X279578568Y-21190000D03*
%TD*%
D21*
%TO.C,R3*%
X138595000Y-47710000D03*
X136770000Y-47710000D03*
%TD*%
D15*
%TO.C,CH_SW9*%
X39380000Y-35182500D03*
X50870000Y-37382500D03*
%TD*%
D10*
%TO.C,MX_SW3*%
X40265000Y-9842500D03*
X53715000Y-7302500D03*
%TD*%
D15*
%TO.C,CH_SW3*%
X39380000Y-16132500D03*
X50870000Y-18332500D03*
%TD*%
D13*
%TO.C,D3*%
X94300000Y-21843125D03*
X96200000Y-21843125D03*
X95250000Y-23718125D03*
%TD*%
D12*
%TO.C,C17*%
X125364642Y-50390874D03*
X125364642Y-49430874D03*
%TD*%
D17*
%TO.C,UG4*%
X19965000Y-64100000D03*
X19965000Y-65200000D03*
X18135000Y-65200000D03*
X18135000Y-64100000D03*
%TD*%
D10*
%TO.C,MX_SW110*%
X230873568Y-26035000D03*
X244323568Y-23495000D03*
%TD*%
D11*
%TO.C,C107*%
X178208568Y-49315001D03*
X178208568Y-50275001D03*
%TD*%
%TO.C,C110*%
X174208568Y-49315001D03*
X174208568Y-50275001D03*
%TD*%
D14*
%TO.C,UG105*%
X246843568Y-61993750D03*
X246843568Y-60893750D03*
X248673568Y-60893750D03*
X248673568Y-61993750D03*
%TD*%
D10*
%TO.C,MX_SW17*%
X78365000Y-47942500D03*
X91815000Y-45402500D03*
%TD*%
D15*
%TO.C,CH_SW8*%
X20330000Y-38040000D03*
X31820000Y-40240000D03*
%TD*%
D11*
%TO.C,C6*%
X134639641Y-49430874D03*
X134639641Y-50390874D03*
%TD*%
D10*
%TO.C,MX_SW28*%
X78365000Y-86042500D03*
X91815000Y-83502500D03*
%TD*%
D37*
%TO.C,CH_SW30*%
X119882165Y-104045554D03*
X130411251Y-109144421D03*
%TD*%
D10*
%TO.C,MX_SW13*%
X2165000Y-50800000D03*
X15615000Y-48260000D03*
%TD*%
%TO.C,MX_SW114*%
X268973568Y-50800000D03*
X282423568Y-48260000D03*
%TD*%
%TO.C,MX_SW118*%
X192773568Y-50800000D03*
X206223568Y-48260000D03*
%TD*%
D12*
%TO.C,C2*%
X115400000Y-35750000D03*
X115400000Y-34790000D03*
%TD*%
D15*
%TO.C,CH_SW114*%
X268088568Y-57090000D03*
X279578568Y-59290000D03*
%TD*%
D10*
%TO.C,MX_SW106*%
X192773568Y-12700000D03*
X206223568Y-10160000D03*
%TD*%
%TO.C,MX_SW11*%
X78365000Y-28892500D03*
X91815000Y-26352500D03*
%TD*%
D15*
%TO.C,CH_SW16*%
X58430000Y-51375000D03*
X69920000Y-53575000D03*
%TD*%
%TO.C,CH_SW5*%
X77480000Y-16132500D03*
X88970000Y-18332500D03*
%TD*%
D10*
%TO.C,MX_SW112*%
X192773568Y-31750000D03*
X206223568Y-29210000D03*
%TD*%
D15*
%TO.C,CH_SW12*%
X96530000Y-38040000D03*
X108020000Y-40240000D03*
%TD*%
D11*
%TO.C,C10*%
X131639642Y-49430874D03*
X131639642Y-50390874D03*
%TD*%
D15*
%TO.C,CH_SW24*%
X96530000Y-76140000D03*
X108020000Y-78340000D03*
%TD*%
D10*
%TO.C,MX_SW9*%
X40265000Y-28892500D03*
X53715000Y-26352500D03*
%TD*%
%TO.C,MX_SW121*%
X249923568Y-66992500D03*
X263373568Y-64452500D03*
%TD*%
D31*
%TO.C,MX_SW130*%
X168325160Y-102008752D03*
X180659462Y-96074184D03*
%TD*%
D10*
%TO.C,MX_SW119*%
X288023568Y-69850000D03*
X301473568Y-67310000D03*
%TD*%
D12*
%TO.C,C113*%
X171933568Y-50275001D03*
X171933568Y-49315001D03*
%TD*%
D10*
%TO.C,MX_SW26*%
X40265000Y-86042500D03*
X53715000Y-83502500D03*
%TD*%
D15*
%TO.C,CH_SW104*%
X229988568Y-13275000D03*
X241478568Y-15475000D03*
%TD*%
D13*
%TO.C,D109*%
X208708568Y-59863750D03*
X210608568Y-59863750D03*
X209658568Y-61738750D03*
%TD*%
D10*
%TO.C,MX_SW116*%
X230873568Y-45085000D03*
X244323568Y-42545000D03*
%TD*%
%TO.C,MX_SW127*%
X230873568Y-83185000D03*
X244323568Y-80645000D03*
%TD*%
D13*
%TO.C,D104*%
X284908568Y-40813750D03*
X286808568Y-40813750D03*
X285858568Y-42688750D03*
%TD*%
D38*
%TO.C,J104*%
X16500000Y-113757500D03*
X18500000Y-113757500D03*
D39*
X14150000Y-108007500D03*
X20850000Y-108007500D03*
%TD*%
D10*
%TO.C,MX_SW19*%
X2165000Y-69850000D03*
X15615000Y-67310000D03*
%TD*%
D15*
%TO.C,CH_SW123*%
X210938568Y-73282500D03*
X222428568Y-75482500D03*
%TD*%
D10*
%TO.C,MX_SW120*%
X268973568Y-69850000D03*
X282423568Y-67310000D03*
%TD*%
%TO.C,MX_SW18*%
X97415000Y-50800000D03*
X110865000Y-48260000D03*
%TD*%
D15*
%TO.C,CH_SW23*%
X77480000Y-73282500D03*
X88970000Y-75482500D03*
%TD*%
%TO.C,CH_SW103*%
X249038568Y-16132500D03*
X260528568Y-18332500D03*
%TD*%
%TO.C,CH_SW15*%
X39380000Y-54232500D03*
X50870000Y-56432500D03*
%TD*%
D11*
%TO.C,C119*%
X165933567Y-49315001D03*
X165933567Y-50275001D03*
%TD*%
D10*
%TO.C,MX_SW113*%
X288023568Y-50800000D03*
X301473568Y-48260000D03*
%TD*%
D15*
%TO.C,CH_SW106*%
X191888568Y-18990000D03*
X203378568Y-21190000D03*
%TD*%
D11*
%TO.C,C106*%
X177208567Y-49315001D03*
X177208567Y-50275001D03*
%TD*%
D12*
%TO.C,C15*%
X127364643Y-50390874D03*
X127364643Y-49430874D03*
%TD*%
D18*
%TO.C,R103*%
X166808568Y-61799999D03*
X166808568Y-62819999D03*
%TD*%
D40*
%TO.C,D116*%
X185479546Y-105702823D03*
X187314805Y-105211066D03*
X186882461Y-107268055D03*
%TD*%
D15*
%TO.C,CH_SW4*%
X58430000Y-13275000D03*
X69920000Y-15475000D03*
%TD*%
D10*
%TO.C,MX_SW111*%
X211823568Y-28892500D03*
X225273568Y-26352500D03*
%TD*%
D17*
%TO.C,UG5*%
X58065000Y-58385000D03*
X58065000Y-59485000D03*
X56235000Y-59485000D03*
X56235000Y-58385000D03*
%TD*%
D13*
%TO.C,D110*%
X284908568Y-78913750D03*
X286808568Y-78913750D03*
X285858568Y-80788750D03*
%TD*%
D11*
%TO.C,C7*%
X135639642Y-49430874D03*
X135639642Y-50390874D03*
%TD*%
D13*
%TO.C,D12*%
X94300000Y-78993125D03*
X96200000Y-78993125D03*
X95250000Y-80868125D03*
%TD*%
D15*
%TO.C,CH_SW116*%
X229988568Y-51375000D03*
X241478568Y-53575000D03*
%TD*%
%TO.C,CH_SW115*%
X249038568Y-54232500D03*
X260528568Y-56432500D03*
%TD*%
D28*
%TO.C,R107*%
X173734315Y-64900000D03*
X175559315Y-64900000D03*
%TD*%
D15*
%TO.C,CH_SW117*%
X210938568Y-54232500D03*
X222428568Y-56432500D03*
%TD*%
D11*
%TO.C,C19*%
X123364641Y-49430874D03*
X123364641Y-50390874D03*
%TD*%
D12*
%TO.C,C104*%
X179208568Y-50275001D03*
X179208568Y-49315001D03*
%TD*%
D13*
%TO.C,D1*%
X18100000Y-21843125D03*
X20000000Y-21843125D03*
X19050000Y-23718125D03*
%TD*%
%TO.C,D102*%
X246808568Y-18906250D03*
X248708568Y-18906250D03*
X247758568Y-20781250D03*
%TD*%
D17*
%TO.C,UG7*%
X134262858Y-64100000D03*
X134262858Y-65200000D03*
X132432858Y-65200000D03*
X132432858Y-64100000D03*
%TD*%
D16*
%TO.C,U101*%
X11625000Y-117107500D03*
X10675000Y-117107500D03*
X9725000Y-117182500D03*
X9725000Y-114757500D03*
X10675000Y-114757500D03*
X11625000Y-114757500D03*
%TD*%
D13*
%TO.C,D107*%
X284908568Y-59863750D03*
X286808568Y-59863750D03*
X285858568Y-61738750D03*
%TD*%
D10*
%TO.C,MX_SW27*%
X59315000Y-83185000D03*
X72765000Y-80645000D03*
%TD*%
D13*
%TO.C,D101*%
X284908568Y-21763750D03*
X286808568Y-21763750D03*
X285858568Y-23638750D03*
%TD*%
D41*
%TO.C,UG9*%
X121676173Y-90193060D03*
X121391472Y-91255579D03*
X119623827Y-90781940D03*
X119908528Y-89719421D03*
%TD*%
D12*
%TO.C,C116*%
X168933568Y-50275001D03*
X168933568Y-49315001D03*
%TD*%
D10*
%TO.C,MX_SW15*%
X40265000Y-47942500D03*
X53715000Y-45402500D03*
%TD*%
D15*
%TO.C,CH_SW1*%
X1280000Y-18990000D03*
X12770000Y-21190000D03*
%TD*%
D10*
%TO.C,MX_SW12*%
X97415000Y-31750000D03*
X110865000Y-29210000D03*
%TD*%
D14*
%TO.C,UG107*%
X170537142Y-65200000D03*
X170537142Y-64100000D03*
X172367142Y-64100000D03*
X172367142Y-65200000D03*
%TD*%
D29*
%TO.C,J101*%
X7635000Y-119627501D03*
X7635000Y-118877501D03*
D30*
X7635000Y-117677501D03*
X7635000Y-116677501D03*
X7635000Y-116177501D03*
X7635000Y-115177501D03*
D29*
X7635000Y-113977501D03*
X7635000Y-113227501D03*
X7635000Y-113227501D03*
X7635000Y-113977501D03*
D30*
X7635000Y-114677501D03*
X7635000Y-115677501D03*
X7635000Y-117177501D03*
X7635000Y-118177501D03*
D29*
X7635000Y-118877501D03*
X7635000Y-119627501D03*
%TD*%
D42*
%TO.C,CH_SW130*%
X169098287Y-108313480D03*
X180766177Y-107464686D03*
%TD*%
D14*
%TO.C,UG104*%
X284943568Y-64851250D03*
X284943568Y-63751250D03*
X286773568Y-63751250D03*
X286773568Y-64851250D03*
%TD*%
D37*
%TO.C,CH_SW29*%
X99181167Y-98498738D03*
X109710253Y-103597605D03*
%TD*%
D43*
%TO.C,UG108*%
X183408528Y-91255579D03*
X183123827Y-90193060D03*
X184891472Y-89719421D03*
X185176173Y-90781940D03*
%TD*%
D15*
%TO.C,CH_SW18*%
X96530000Y-57090000D03*
X108020000Y-59290000D03*
%TD*%
D10*
%TO.C,MX_SW115*%
X249923568Y-47942500D03*
X263373568Y-45402500D03*
%TD*%
%TO.C,MX_SW104*%
X230873568Y-6985000D03*
X244323568Y-4445000D03*
%TD*%
%TO.C,MX_SW102*%
X268973568Y-12700000D03*
X282423568Y-10160000D03*
%TD*%
D44*
%TO.C,J7*%
X266098568Y-117450000D03*
X266098568Y-116950000D03*
X266098568Y-116450000D03*
X266098568Y-115950000D03*
X266098568Y-115450000D03*
X266098568Y-114950000D03*
X266098568Y-114450000D03*
X266098568Y-113950000D03*
D45*
X263398568Y-118675000D03*
X263398568Y-112725000D03*
%TD*%
D12*
%TO.C,C11*%
X130364642Y-50390874D03*
X130364642Y-49430874D03*
%TD*%
D13*
%TO.C,D112*%
X208708568Y-78913750D03*
X210608568Y-78913750D03*
X209658568Y-80788750D03*
%TD*%
D26*
%TO.C,M1*%
X119325000Y-45000001D03*
X119575000Y-37450001D03*
X119825000Y-45000001D03*
X120075000Y-37450001D03*
X120325000Y-45000001D03*
X120575000Y-37450001D03*
X120825000Y-45000001D03*
X121075000Y-37450001D03*
X121325000Y-45000001D03*
X121575000Y-37450001D03*
X121825000Y-45000001D03*
X122075000Y-37450001D03*
X122325000Y-45000001D03*
X122575000Y-37450001D03*
X122825000Y-45000001D03*
X123075000Y-37450001D03*
X123325000Y-45000001D03*
X123575000Y-37450001D03*
X123825000Y-45000001D03*
X124075000Y-37450001D03*
X124325000Y-45000001D03*
X124575000Y-37450001D03*
X124825000Y-45000001D03*
X127075000Y-37450001D03*
X127325000Y-45000001D03*
X127575000Y-37450001D03*
X127825000Y-45000001D03*
X128075000Y-37450001D03*
X128325000Y-45000001D03*
X128575000Y-37450001D03*
X128825000Y-45000001D03*
X129075000Y-37450001D03*
X129325000Y-45000001D03*
X129575000Y-37450001D03*
X129825000Y-45000001D03*
X130075000Y-37450001D03*
X130325000Y-45000001D03*
X130575000Y-37450001D03*
X130825000Y-45000001D03*
X131075000Y-37450001D03*
X131325000Y-45000001D03*
X131575000Y-37450001D03*
X131825000Y-45000001D03*
X132075000Y-37450001D03*
X132325000Y-45000001D03*
X132575000Y-37450001D03*
X132825000Y-45000001D03*
X133075000Y-37450001D03*
X133325000Y-45000001D03*
X133575000Y-37450001D03*
X133825000Y-45000001D03*
X134075000Y-37450001D03*
X134325000Y-45000001D03*
X134575000Y-37450001D03*
X134825000Y-45000001D03*
X135075000Y-37450001D03*
X135325000Y-45000001D03*
X135575000Y-37450001D03*
X135825000Y-45000001D03*
X136075000Y-37450001D03*
X136325000Y-45000001D03*
X136575000Y-37450001D03*
X136825000Y-45000001D03*
X137075000Y-37450001D03*
X137325000Y-45000001D03*
X137575000Y-37450001D03*
X137825000Y-45000001D03*
D27*
X118225000Y-44225001D03*
X138925000Y-44225001D03*
%TD*%
D15*
%TO.C,CH_SW17*%
X77480000Y-54232500D03*
X88970000Y-56432500D03*
%TD*%
D33*
%TO.C,J6*%
X138364642Y-52365873D03*
X137864642Y-52365873D03*
X137364642Y-52365873D03*
X136864642Y-52365873D03*
X136364642Y-52365873D03*
X135864642Y-52365873D03*
X135364642Y-52365873D03*
X134864642Y-52365873D03*
X134364642Y-52365873D03*
X133864642Y-52365873D03*
X133364642Y-52365873D03*
X132864642Y-52365873D03*
X132364642Y-52365873D03*
X131864642Y-52365873D03*
X131364642Y-52365873D03*
X130864642Y-52365873D03*
X130364642Y-52365873D03*
X129864642Y-52365873D03*
X129364642Y-52365873D03*
X128864642Y-52365873D03*
X128364642Y-52365873D03*
X127864642Y-52365873D03*
X127364642Y-52365873D03*
X126864642Y-52365873D03*
X126364642Y-52365873D03*
X125864642Y-52365873D03*
X125364642Y-52365873D03*
X124864642Y-52365873D03*
X124364642Y-52365873D03*
X123864642Y-52365873D03*
D34*
X139589642Y-55065873D03*
X122639642Y-55065873D03*
%TD*%
D46*
%TO.C,R6*%
X124010000Y-62159999D03*
X124010000Y-61139999D03*
%TD*%
D15*
%TO.C,CH_SW11*%
X77480000Y-35182500D03*
X88970000Y-37382500D03*
%TD*%
D24*
%TO.C,C101*%
X160808568Y-48437500D03*
X161768568Y-48437500D03*
%TD*%
D13*
%TO.C,D103*%
X208708568Y-21763750D03*
X210608568Y-21763750D03*
X209658568Y-23638750D03*
%TD*%
D10*
%TO.C,MX_SW105*%
X211823568Y-9842500D03*
X225273568Y-7302500D03*
%TD*%
D40*
%TO.C,D113*%
X187860796Y-86255948D03*
X189696055Y-85764191D03*
X189263711Y-87821180D03*
%TD*%
D10*
%TO.C,MX_SW122*%
X230873568Y-64135000D03*
X244323568Y-61595000D03*
%TD*%
D24*
%TO.C,C12*%
X129604642Y-47540874D03*
X130564642Y-47540874D03*
%TD*%
D15*
%TO.C,CH_SW111*%
X210938568Y-35182500D03*
X222428568Y-37382500D03*
%TD*%
D10*
%TO.C,MX_SW107*%
X288023568Y-31750000D03*
X301473568Y-29210000D03*
%TD*%
D38*
%TO.C,J3*%
X286408568Y-113757500D03*
X288408568Y-113757500D03*
D39*
X290758568Y-108007500D03*
X284058568Y-108007500D03*
%TD*%
D33*
%TO.C,J2*%
X140950000Y-65725000D03*
X140450000Y-65725000D03*
X139950000Y-65725000D03*
X139450000Y-65725000D03*
X138950000Y-65725000D03*
X138450000Y-65725000D03*
X137950000Y-65725000D03*
X137450000Y-65725000D03*
D34*
X142175000Y-68425000D03*
X136225000Y-68425000D03*
%TD*%
D15*
%TO.C,CH_SW105*%
X210938568Y-16132500D03*
X222428568Y-18332500D03*
%TD*%
%TO.C,CH_SW2*%
X20330000Y-18990000D03*
X31820000Y-21190000D03*
%TD*%
D14*
%TO.C,UG3*%
X94335000Y-27100000D03*
X94335000Y-26000000D03*
X96165000Y-26000000D03*
X96165000Y-27100000D03*
%TD*%
D24*
%TO.C,C112*%
X172173568Y-47425001D03*
X173133568Y-47425001D03*
%TD*%
D12*
%TO.C,C4*%
X136639642Y-50390874D03*
X136639642Y-49430874D03*
%TD*%
D14*
%TO.C,UG2*%
X56235000Y-21385000D03*
X56235000Y-20285000D03*
X58065000Y-20285000D03*
X58065000Y-21385000D03*
%TD*%
D15*
%TO.C,CH_SW120*%
X268088568Y-76140000D03*
X279578568Y-78340000D03*
%TD*%
%TO.C,CH_SW101*%
X287138568Y-18990000D03*
X298628568Y-21190000D03*
%TD*%
D47*
%TO.C,MX_SW131*%
X173077979Y-101123465D03*
X167143411Y-88789163D03*
%TD*%
D15*
%TO.C,CH_SW113*%
X287138568Y-57090000D03*
X298628568Y-59290000D03*
%TD*%
D12*
%TO.C,C14*%
X128364642Y-50390874D03*
X128364642Y-49430874D03*
%TD*%
D46*
%TO.C,R7*%
X125100000Y-62169999D03*
X125100000Y-61149999D03*
%TD*%
D15*
%TO.C,CH_SW14*%
X20330000Y-57090000D03*
X31820000Y-59290000D03*
%TD*%
D10*
%TO.C,MX_SW6*%
X97415000Y-12700000D03*
X110865000Y-10160000D03*
%TD*%
D17*
%TO.C,UG6*%
X96165000Y-64100000D03*
X96165000Y-65200000D03*
X94335000Y-65200000D03*
X94335000Y-64100000D03*
%TD*%
D42*
%TO.C,CH_SW125*%
X166467895Y-89296280D03*
X178135785Y-88447486D03*
%TD*%
D15*
%TO.C,CH_SW124*%
X191888568Y-76140000D03*
X203378568Y-78340000D03*
%TD*%
D48*
%TO.C,SW101*%
X3920000Y-107707500D03*
X3920000Y-104707500D03*
X3920000Y-103207500D03*
D49*
X770000Y-101757500D03*
X3070000Y-109157500D03*
X770000Y-109157500D03*
X3070000Y-101757500D03*
%TD*%
D28*
%TO.C,R106*%
X179338926Y-47800000D03*
X181163926Y-47800000D03*
%TD*%
D50*
%TO.C,C102*%
X159808568Y-48437500D03*
X158848568Y-48437500D03*
%TD*%
D18*
%TO.C,R2*%
X295508568Y-118597500D03*
X295508568Y-119617500D03*
%TD*%
D15*
%TO.C,CH_SW118*%
X191888568Y-57090000D03*
X203378568Y-59290000D03*
%TD*%
D23*
%TO.C,F1*%
X296200000Y-109287500D03*
X296200000Y-111112500D03*
%TD*%
D10*
%TO.C,MX_SW123*%
X211823568Y-66992500D03*
X225273568Y-64452500D03*
%TD*%
%TO.C,MX_SW109*%
X249923568Y-28892500D03*
X263373568Y-26352500D03*
%TD*%
D13*
%TO.C,D111*%
X246808568Y-76056250D03*
X248708568Y-76056250D03*
X247758568Y-77931250D03*
%TD*%
D15*
%TO.C,CH_SW110*%
X229988568Y-32325000D03*
X241478568Y-34525000D03*
%TD*%
%TO.C,CH_SW19*%
X1280000Y-76140000D03*
X12770000Y-78340000D03*
%TD*%
%TO.C,CH_SW112*%
X191888568Y-38040000D03*
X203378568Y-40240000D03*
%TD*%
D10*
%TO.C,MX_SW126*%
X249923568Y-86042500D03*
X263373568Y-83502500D03*
%TD*%
D15*
%TO.C,CH_SW126*%
X249038568Y-92332500D03*
X260528568Y-94532500D03*
%TD*%
D10*
%TO.C,MX_SW128*%
X211823568Y-86042500D03*
X225273568Y-83502500D03*
%TD*%
D31*
%TO.C,MX_SW125*%
X165694768Y-82991552D03*
X178029070Y-77056984D03*
%TD*%
D10*
%TO.C,MX_SW5*%
X78365000Y-9842500D03*
X91815000Y-7302500D03*
%TD*%
D13*
%TO.C,D7*%
X18100000Y-59943125D03*
X20000000Y-59943125D03*
X19050000Y-61818125D03*
%TD*%
D10*
%TO.C,MX_SW20*%
X21215000Y-69850000D03*
X34665000Y-67310000D03*
%TD*%
D11*
%TO.C,C109*%
X175208568Y-49315001D03*
X175208568Y-50275001D03*
%TD*%
D15*
%TO.C,CH_SW119*%
X287138568Y-76140000D03*
X298628568Y-78340000D03*
%TD*%
D13*
%TO.C,D106*%
X208708568Y-40813750D03*
X210608568Y-40813750D03*
X209658568Y-42688750D03*
%TD*%
D15*
%TO.C,CH_SW109*%
X249038568Y-35182500D03*
X260528568Y-37382500D03*
%TD*%
%TO.C,CH_SW121*%
X249038568Y-73282500D03*
X260528568Y-75482500D03*
%TD*%
%TO.C,CH_SW107*%
X287138568Y-38040000D03*
X298628568Y-40240000D03*
%TD*%
D13*
%TO.C,D115*%
X208708568Y-96693750D03*
X210608568Y-96693750D03*
X209658568Y-98568750D03*
%TD*%
D15*
%TO.C,CH_SW128*%
X210938568Y-92332500D03*
X222428568Y-94532500D03*
%TD*%
D12*
%TO.C,C1*%
X116450000Y-35750000D03*
X116450000Y-34790000D03*
%TD*%
%TO.C,C105*%
X180208568Y-50275001D03*
X180208568Y-49315001D03*
%TD*%
D22*
%TO.C,MX_SW29*%
X101663983Y-92652119D03*
X115313086Y-93679784D03*
%TD*%
D51*
%TO.C,U1*%
X114050000Y-39000000D03*
X114050000Y-37100000D03*
X115925000Y-38050000D03*
%TD*%
D13*
%TO.C,D108*%
X246808568Y-57006250D03*
X248708568Y-57006250D03*
X247758568Y-58881250D03*
%TD*%
D10*
%TO.C,MX_SW124*%
X192773568Y-69850000D03*
X206223568Y-67310000D03*
%TD*%
%TO.C,MX_SW103*%
X249923568Y-9842500D03*
X263373568Y-7302500D03*
%TD*%
D15*
%TO.C,CH_SW26*%
X39380000Y-92332500D03*
X50870000Y-94532500D03*
%TD*%
D37*
%TO.C,CH_SW25*%
X122512558Y-85028355D03*
X133041644Y-90127222D03*
%TD*%
D42*
%TO.C,CH_SW129*%
X189799285Y-102766664D03*
X201467175Y-101917870D03*
%TD*%
D36*
%TO.C,D16*%
X115075013Y-104348566D03*
X116910272Y-104840323D03*
X115507357Y-106405555D03*
%TD*%
D25*
%TO.C,D17*%
X135189642Y-47740874D03*
X131889642Y-47740874D03*
%TD*%
D44*
%TO.C,J106*%
X38810000Y-113950000D03*
X38810000Y-114450000D03*
X38810000Y-114950000D03*
X38810000Y-115450000D03*
X38810000Y-115950000D03*
X38810000Y-116450000D03*
X38810000Y-116950000D03*
X38810000Y-117450000D03*
D45*
X41510000Y-112725000D03*
X41510000Y-118675000D03*
%TD*%
D13*
%TO.C,D6*%
X94300000Y-40893125D03*
X96200000Y-40893125D03*
X95250000Y-42768125D03*
%TD*%
D46*
%TO.C,R101*%
X9400000Y-119617500D03*
X9400000Y-118597500D03*
%TD*%
D13*
%TO.C,D15*%
X92315625Y-96693750D03*
X94215625Y-96693750D03*
X93265625Y-98568750D03*
%TD*%
D33*
%TO.C,J108*%
X180933568Y-52250000D03*
X180433568Y-52250000D03*
X179933568Y-52250000D03*
X179433568Y-52250000D03*
X178933568Y-52250000D03*
X178433568Y-52250000D03*
X177933568Y-52250000D03*
X177433568Y-52250000D03*
X176933568Y-52250000D03*
X176433568Y-52250000D03*
X175933568Y-52250000D03*
X175433568Y-52250000D03*
X174933568Y-52250000D03*
X174433568Y-52250000D03*
X173933568Y-52250000D03*
X173433568Y-52250000D03*
X172933568Y-52250000D03*
X172433568Y-52250000D03*
X171933568Y-52250000D03*
X171433568Y-52250000D03*
X170933568Y-52250000D03*
X170433568Y-52250000D03*
X169933568Y-52250000D03*
X169433568Y-52250000D03*
X168933568Y-52250000D03*
X168433568Y-52250000D03*
X167933568Y-52250000D03*
X167433568Y-52250000D03*
X166933568Y-52250000D03*
X166433568Y-52250000D03*
D34*
X182158568Y-54950000D03*
X165208568Y-54950000D03*
%TD*%
D11*
%TO.C,C18*%
X124364642Y-49430874D03*
X124364642Y-50390874D03*
%TD*%
D35*
%TO.C,R1*%
X294480000Y-113100000D03*
X295500000Y-113100000D03*
%TD*%
D52*
%TO.C,SW1*%
X300988568Y-103207500D03*
X300988568Y-106207500D03*
X300988568Y-107707500D03*
D53*
X304138568Y-101757500D03*
X301838568Y-109157500D03*
X304138568Y-109157500D03*
X301838568Y-101757500D03*
%TD*%
D17*
%TO.C,UG101*%
X286773568Y-25651250D03*
X286773568Y-26751250D03*
X284943568Y-26751250D03*
X284943568Y-25651250D03*
%TD*%
D15*
%TO.C,CH_SW122*%
X229988568Y-70425000D03*
X241478568Y-72625000D03*
%TD*%
D13*
%TO.C,D5*%
X56200000Y-35178125D03*
X58100000Y-35178125D03*
X57150000Y-37053125D03*
%TD*%
D15*
%TO.C,CH_SW127*%
X229988568Y-89475000D03*
X241478568Y-91675000D03*
%TD*%
%TO.C,CH_SW108*%
X268088568Y-38040000D03*
X279578568Y-40240000D03*
%TD*%
D10*
%TO.C,MX_SW2*%
X21215000Y-12700000D03*
X34665000Y-10160000D03*
%TD*%
D13*
%TO.C,D14*%
X56200000Y-92328125D03*
X58100000Y-92328125D03*
X57150000Y-94203125D03*
%TD*%
D12*
%TO.C,C115*%
X169933569Y-50275001D03*
X169933569Y-49315001D03*
%TD*%
%TO.C,C16*%
X126364642Y-50390874D03*
X126364642Y-49430874D03*
%TD*%
M02*
