M48
; DRILL file {KiCad 6.0.11-3.fc37} date Tue 28 Mar 2023 23:22:29 BST
; FORMAT={-:-/ absolute / metric / decimal}
; #@! TF.CreationDate,2023-03-28T23:22:29+01:00
; #@! TF.GenerationSoftware,Kicad,Pcbnew,6.0.11-3.fc37
; #@! TF.FileFunction,Plated,1,2,PTH
FMAT,2
METRIC
; #@! TA.AperFunction,Plated,PTH,ViaDrill
T1C0.400
; #@! TA.AperFunction,Plated,PTH,ComponentDrill
T2C0.600
; #@! TA.AperFunction,Plated,PTH,ComponentDrill
T3C0.700
; #@! TA.AperFunction,Plated,PTH,ComponentDrill
T4C1.000
; #@! TA.AperFunction,Plated,PTH,ComponentDrill
T5C2.200
; #@! TA.AperFunction,Plated,PTH,ComponentDrill
T6C3.000
; #@! TA.AperFunction,Plated,PTH,ComponentDrill
T7C3.200
%
G90
G05
T1
X1.587Y-7.938
X3.9Y-105.9
X7.65Y-120.75
X9.35Y-9.975
X9.4Y-47.457
X10.45Y-111.5
X11.741Y-109.559
X12.675Y-110.7
X13.15Y-114.6
X15.75Y-63.55
X17.066Y-25.797
X17.1Y-64.7
X17.35Y-31.3
X18.275Y-119.325
X18.3Y-63.15
X19.844Y-66.278
X19.875Y-113.75
X19.95Y-28.35
X28.4Y-9.975
X28.45Y-47.457
X30.5Y-120.85
X36.3Y-115.9
X40.1Y-114.7
X40.2Y-116.1
X40.2Y-117.6
X45.0Y-94.0
X47.45Y-7.117
X47.5Y-44.6
X47.5Y-82.7
X51.594Y-28.575
X57.15Y-60.722
X59.531Y-19.05
X60.2Y-56.9
X66.5Y-4.26
X66.55Y-41.742
X66.55Y-79.843
X70.5Y-56.9
X70.644Y-25.717
X72.35Y-57.35
X74.55Y-57.35
X77.6Y-43.4
X83.05Y-25.35
X84.5Y-27.8
X85.328Y-25.4
X85.55Y-7.117
X85.6Y-44.6
X85.6Y-82.7
X89.297Y-30.559
X90.091Y-28.575
X93.275Y-95.15
X93.4Y-61.0
X94.2Y-62.7
X94.4Y-24.9
X95.3Y-28.45
X95.366Y-44.834
X95.647Y-66.278
X96.225Y-61.85
X96.5Y-80.875
X103.45Y-24.55
X103.469Y-25.877
X103.487Y-26.827
X103.525Y-27.775
X103.525Y-28.725
X104.6Y-9.975
X104.8Y-29.7
X107.315Y-24.827
X112.4Y-37.1
X112.8Y-28.05
X115.175Y-41.45
X118.525Y-37.65
X118.7Y-90.0
X118.71Y-46.25
X119.9Y-88.65
X120.4Y-46.8
X120.5Y-36.05
X121.047Y-92.472
X121.26Y-49.96
X124.65Y-34.65
X124.684Y-46.484
X125.365Y-48.541
X125.4Y-40.125
X125.865Y-53.391
X126.125Y-40.8
X126.182Y-47.457
X126.25Y-64.9
X126.365Y-48.541
X126.865Y-53.391
X127.1Y-41.9
X127.352Y-46.422
X127.365Y-48.541
X127.475Y-47.525
X127.651Y-43.228
X127.75Y-38.975
X127.865Y-53.391
X127.909Y-64.8
X127.966Y-68.216
X128.365Y-48.541
X128.6Y-43.2
X128.865Y-53.391
X129.3Y-59.899
X129.365Y-48.541
X129.575Y-43.225
X129.865Y-53.391
X130.365Y-48.541
X130.55Y-43.2
X130.629Y-66.45
X130.865Y-53.391
X131.1Y-35.0
X131.95Y-53.65
X132.05Y-55.175
X132.331Y-40.912
X132.822Y-35.872
X133.089Y-39.832
X133.376Y-54.307
X133.425Y-34.975
X133.775Y-41.304
X134.093Y-39.656
X134.288Y-54.041
X135.047Y-54.61
X135.15Y-43.225
X135.2Y-46.5
X135.456Y-35.046
X135.997Y-54.599
X136.1Y-51.4
X136.404Y-35.089
X136.425Y-39.475
X136.946Y-54.601
X137.3Y-63.675
X137.354Y-35.101
X137.459Y-67.225
X137.66Y-46.324
X137.896Y-54.6
X138.5Y-60.6
X139.191Y-59.609
X139.634Y-63.425
X139.8Y-60.4
X140.256Y-64.272
X140.3Y-45.4
X140.4Y-51.3
X140.6Y-47.7
X159.658Y-54.205
X159.658Y-55.155
X161.36Y-54.351
X161.709Y-53.403
X161.909Y-35.9
X162.659Y-48.25
X162.7Y-46.4
X162.909Y-36.0
X163.35Y-62.871
X163.509Y-61.0
X163.509Y-66.975
X164.109Y-35.65
X164.127Y-62.093
X165.009Y-59.4
X165.944Y-48.277
X166.1Y-34.1
X166.917Y-66.739
X167.221Y-64.239
X167.909Y-43.4
X167.934Y-48.425
X167.999Y-65.017
X168.109Y-40.45
X168.109Y-41.4
X168.309Y-45.9
X168.434Y-53.275
X168.486Y-35.446
X168.689Y-63.6
X168.934Y-48.425
X169.175Y-36.1
X169.2Y-44.7
X169.434Y-53.275
X169.934Y-48.425
X169.986Y-35.347
X170.009Y-43.049
X170.134Y-40.926
X170.434Y-53.275
X170.6Y-66.4
X170.675Y-36.0
X170.934Y-48.425
X171.084Y-40.525
X171.405Y-47.601
X171.434Y-53.275
X171.444Y-35.35
X171.934Y-48.425
X171.969Y-40.175
X172.225Y-38.8
X172.432Y-42.949
X172.434Y-53.275
X172.725Y-35.975
X172.918Y-40.175
X172.934Y-48.425
X173.382Y-42.949
X173.434Y-53.275
X173.8Y-67.9
X174.225Y-35.85
X174.734Y-42.975
X174.75Y-40.9
X175.874Y-38.825
X176.225Y-33.3
X176.309Y-54.0
X176.7Y-47.6
X176.9Y-64.9
X177.05Y-40.601
X177.081Y-54.7
X177.861Y-54.01
X178.209Y-90.8
X178.568Y-54.643
X179.238Y-53.97
X179.6Y-39.1
X179.983Y-54.559
X181.244Y-50.777
X181.509Y-60.3
X182.65Y-62.0
X183.175Y-45.25
X183.8Y-46.4
X184.0Y-61.55
X184.175Y-37.1
X184.5Y-88.1
X184.509Y-60.3
X185.125Y-37.1
X185.4Y-56.8
X185.5Y-62.8
X185.7Y-39.575
X185.709Y-107.7
X186.074Y-37.1
X186.1Y-90.5
X188.109Y-88.3
X189.609Y-98.6
X190.219Y-36.124
X190.8Y-46.4
X190.918Y-35.474
X191.5Y-40.4
X191.625Y-34.825
X191.809Y-86.9
X191.9Y-45.5
X192.3Y-47.4
X192.691Y-42.809
X192.8Y-33.9
X193.256Y-44.3
X193.65Y-42.849
X194.078Y-44.776
X195.125Y-41.025
X195.525Y-23.65
X195.6Y-45.175
X197.35Y-41.175
X197.9Y-37.7
X200.209Y-93.4
X203.4Y-69.8
X205.6Y-22.7
X206.25Y-83.025
X207.0Y-77.8
X207.4Y-63.9
X207.6Y-25.7
X207.908Y-81.258
X208.575Y-94.725
X208.7Y-27.8
X208.809Y-98.6
X209.3Y-46.55
X210.5Y-51.2
X211.1Y-69.3
X211.609Y-94.8
X211.648Y-45.148
X211.9Y-25.7
X211.9Y-26.8
X212.6Y-45.2
X219.225Y-46.625
X219.225Y-65.675
X219.225Y-84.725
X223.209Y-86.2
X230.309Y-79.2
X234.424Y-40.531
X237.9Y-22.4
X238.275Y-43.767
X238.275Y-62.817
X238.275Y-81.867
X239.7Y-63.8
X240.124Y-25.8
X241.5Y-27.2
X241.5Y-65.0
X241.7Y-25.8
X242.1Y-63.8
X246.6Y-74.1
X246.8Y-36.2
X247.0Y-60.1
X248.316Y-24.905
X250.4Y-38.8
X250.6Y-76.8
X251.1Y-60.7
X251.4Y-23.9
X257.325Y-46.625
X259.824Y-40.531
X262.6Y-77.0
X264.8Y-113.95
X264.8Y-116.45
X265.0Y-60.9
X265.8Y-38.9
X266.5Y-23.8
X268.375Y-115.225
X268.454Y-116.171
X272.524Y-43.388
X273.5Y-78.1
X274.65Y-120.425
X275.35Y-121.075
X276.8Y-69.2
X278.2Y-37.6
X281.2Y-63.6
X281.9Y-25.4
X282.0Y-79.9
X282.178Y-41.672
X282.2Y-61.0
X282.3Y-22.6
X284.708Y-113.058
X285.1Y-28.7
X286.8Y-28.1
X287.75Y-63.75
X288.0Y-25.65
X293.8Y-111.688
X294.8Y-112.05
T3
X21.25Y-124.107
X23.75Y-124.107
X26.25Y-124.107
X28.75Y-124.107
X276.159Y-124.107
X278.659Y-124.107
X281.159Y-124.107
X283.659Y-124.107
T4
X114.51Y-49.075
X114.51Y-51.615
X114.51Y-54.155
X117.05Y-49.075
X117.05Y-51.615
X117.05Y-54.155
X127.115Y-61.95
X129.655Y-61.95
X132.195Y-61.95
X134.735Y-61.95
X169.685Y-61.95
X172.225Y-61.95
X174.765Y-61.95
X177.305Y-61.95
X186.369Y-47.92
X186.369Y-50.46
X186.369Y-53.0
X188.909Y-47.92
X188.909Y-50.46
X188.909Y-53.0
T5
X8.5Y-103.108
X33.0Y-116.307
X117.775Y-8.715
X117.775Y-66.418
X144.454Y-8.715
X144.454Y-73.567
X160.454Y-8.715
X160.454Y-73.567
X187.134Y-8.715
X187.134Y-66.418
X271.909Y-116.307
X296.409Y-103.108
T6
X4.525Y-18.99
X4.525Y-38.04
X4.525Y-57.09
X4.525Y-76.14
X5.715Y-12.7
X5.715Y-31.75
X5.715Y-50.8
X5.715Y-69.85
X9.525Y-21.19
X9.525Y-40.24
X9.525Y-59.29
X9.525Y-78.34
X12.065Y-10.16
X12.065Y-29.21
X12.065Y-48.26
X12.065Y-67.31
X23.575Y-18.99
X23.575Y-38.04
X23.575Y-57.09
X23.575Y-76.14
X24.765Y-12.7
X24.765Y-31.75
X24.765Y-50.8
X24.765Y-69.85
X28.575Y-21.19
X28.575Y-40.24
X28.575Y-59.29
X28.575Y-78.34
X31.115Y-10.16
X31.115Y-29.21
X31.115Y-48.26
X31.115Y-67.31
X42.625Y-16.133
X42.625Y-35.182
X42.625Y-54.232
X42.625Y-73.282
X42.625Y-92.332
X43.815Y-9.842
X43.815Y-28.892
X43.815Y-47.942
X43.815Y-66.992
X43.815Y-86.042
X47.625Y-18.332
X47.625Y-37.383
X47.625Y-56.432
X47.625Y-75.483
X47.625Y-94.532
X50.165Y-7.302
X50.165Y-26.352
X50.165Y-45.402
X50.165Y-64.453
X50.165Y-83.502
X61.675Y-13.275
X61.675Y-32.325
X61.675Y-51.375
X61.675Y-70.425
X61.675Y-89.475
X62.865Y-6.985
X62.865Y-26.035
X62.865Y-45.085
X62.865Y-64.135
X62.865Y-83.185
X66.675Y-15.475
X66.675Y-34.525
X66.675Y-53.575
X66.675Y-72.625
X66.675Y-91.675
X69.215Y-4.445
X69.215Y-23.495
X69.215Y-42.545
X69.215Y-61.595
X69.215Y-80.645
X80.725Y-16.133
X80.725Y-35.182
X80.725Y-54.232
X80.725Y-73.282
X80.725Y-92.332
X81.915Y-9.842
X81.915Y-28.892
X81.915Y-47.942
X81.915Y-66.992
X81.915Y-86.042
X85.725Y-18.332
X85.725Y-37.383
X85.725Y-56.432
X85.725Y-75.483
X85.725Y-94.532
X88.265Y-7.302
X88.265Y-26.352
X88.265Y-45.402
X88.265Y-64.453
X88.265Y-83.502
X99.775Y-18.99
X99.775Y-38.04
X99.775Y-57.09
X99.775Y-76.14
X100.965Y-12.7
X100.965Y-31.75
X100.965Y-50.8
X100.965Y-69.85
X102.316Y-99.339
X104.775Y-21.19
X104.775Y-40.24
X104.775Y-59.29
X104.775Y-78.34
X105.093Y-93.571
X106.576Y-102.758
X107.315Y-10.16
X107.315Y-29.21
X107.315Y-48.26
X107.315Y-67.31
X111.884Y-92.761
X123.017Y-104.885
X125.647Y-85.868
X125.794Y-99.118
X127.277Y-108.305
X128.424Y-80.101
X129.907Y-89.287
X132.585Y-98.308
X133.219Y-89.542
X134.029Y-96.333
X135.215Y-79.291
X168.062Y-92.218
X169.124Y-82.073
X169.602Y-88.456
X171.754Y-101.09
X172.159Y-97.694
X172.233Y-107.474
X174.6Y-77.976
X175.001Y-89.287
X177.23Y-96.993
X177.632Y-108.305
X192.455Y-95.543
X192.934Y-101.927
X195.134Y-18.99
X195.134Y-38.04
X195.134Y-57.09
X195.134Y-76.14
X196.324Y-12.7
X196.324Y-31.75
X196.324Y-50.8
X196.324Y-69.85
X197.931Y-91.446
X198.333Y-102.758
X200.134Y-21.19
X200.134Y-40.24
X200.134Y-59.29
X200.134Y-78.34
X202.674Y-10.16
X202.674Y-29.21
X202.674Y-48.26
X202.674Y-67.31
X214.184Y-16.133
X214.184Y-35.182
X214.184Y-54.232
X214.184Y-73.282
X214.184Y-92.332
X215.374Y-9.842
X215.374Y-28.892
X215.374Y-47.942
X215.374Y-66.992
X215.374Y-86.042
X219.184Y-18.332
X219.184Y-37.383
X219.184Y-56.432
X219.184Y-75.483
X219.184Y-94.532
X221.724Y-7.302
X221.724Y-26.352
X221.724Y-45.402
X221.724Y-64.453
X221.724Y-83.502
X233.234Y-13.275
X233.234Y-32.325
X233.234Y-51.375
X233.234Y-70.425
X233.234Y-89.475
X234.424Y-6.985
X234.424Y-26.035
X234.424Y-45.085
X234.424Y-64.135
X234.424Y-83.185
X238.234Y-15.475
X238.234Y-34.525
X238.234Y-53.575
X238.234Y-72.625
X238.234Y-91.675
X240.774Y-4.445
X240.774Y-23.495
X240.774Y-42.545
X240.774Y-61.595
X240.774Y-80.645
X252.284Y-16.133
X252.284Y-35.182
X252.284Y-54.232
X252.284Y-73.282
X252.284Y-92.332
X253.474Y-9.842
X253.474Y-28.892
X253.474Y-47.942
X253.474Y-66.992
X253.474Y-86.042
X257.284Y-18.332
X257.284Y-37.383
X257.284Y-56.432
X257.284Y-75.483
X257.284Y-94.532
X259.824Y-7.302
X259.824Y-26.352
X259.824Y-45.402
X259.824Y-64.453
X259.824Y-83.502
X271.334Y-18.99
X271.334Y-38.04
X271.334Y-57.09
X271.334Y-76.14
X272.524Y-12.7
X272.524Y-31.75
X272.524Y-50.8
X272.524Y-69.85
X276.334Y-21.19
X276.334Y-40.24
X276.334Y-59.29
X276.334Y-78.34
X278.874Y-10.16
X278.874Y-29.21
X278.874Y-48.26
X278.874Y-67.31
X290.384Y-18.99
X290.384Y-38.04
X290.384Y-57.09
X290.384Y-76.14
X291.574Y-12.7
X291.574Y-31.75
X291.574Y-50.8
X291.574Y-69.85
X295.384Y-21.19
X295.384Y-40.24
X295.384Y-59.29
X295.384Y-78.34
X297.924Y-10.16
X297.924Y-29.21
X297.924Y-48.26
X297.924Y-67.31
T7
X128.575Y-11.475
X171.225Y-11.475
T2
X2.28Y-110.873G85X1.23Y-110.873
G05
X2.28Y-122.023G85X1.23Y-122.023
G05
X6.88Y-110.853G85X5.83Y-110.853
G05
X6.88Y-122.003G85X5.83Y-122.003
G05
X298.029Y-110.853G85X299.079Y-110.853
G05
X298.029Y-122.003G85X299.079Y-122.003
G05
X302.629Y-110.833G85X303.679Y-110.833
G05
X302.629Y-121.983G85X303.679Y-121.983
G05
T0
M30
