M48
; DRILL file {KiCad 6.0.11-3.fc37} date Tue 28 Mar 2023 23:22:29 BST
; FORMAT={-:-/ absolute / metric / decimal}
; #@! TF.CreationDate,2023-03-28T23:22:29+01:00
; #@! TF.GenerationSoftware,Kicad,Pcbnew,6.0.11-3.fc37
; #@! TF.FileFunction,NonPlated,1,2,NPTH
FMAT,2
METRIC
; #@! TA.AperFunction,NonPlated,NPTH,ComponentDrill
T1C0.500
; #@! TA.AperFunction,NonPlated,NPTH,ComponentDrill
T2C0.650
; #@! TA.AperFunction,NonPlated,NPTH,ComponentDrill
T3C0.850
; #@! TA.AperFunction,NonPlated,NPTH,ComponentDrill
T4C1.100
; #@! TA.AperFunction,NonPlated,NPTH,ComponentDrill
T5C1.200
; #@! TA.AperFunction,NonPlated,NPTH,ComponentDrill
T6C1.600
; #@! TA.AperFunction,NonPlated,NPTH,ComponentDrill
T7C1.700
; #@! TA.AperFunction,NonPlated,NPTH,ComponentDrill
T8C1.750
; #@! TA.AperFunction,NonPlated,NPTH,ComponentDrill
T9C3.048
; #@! TA.AperFunction,NonPlated,NPTH,ComponentDrill
T10C3.400
; #@! TA.AperFunction,NonPlated,NPTH,ComponentDrill
T11C3.988
%
G90
G05
T1
X22.059Y-102.075
X22.059Y-102.815
X22.059Y-103.555
X22.059Y-104.295
X22.059Y-105.035
X22.059Y-105.775
X37.484Y-111.532
X38.224Y-111.532
X38.964Y-111.532
X39.704Y-111.532
X40.444Y-111.532
X41.184Y-111.532
X44.95Y-114.35
X44.95Y-115.09
X44.95Y-115.83
X44.95Y-116.57
X44.95Y-117.31
X44.95Y-118.05
X45.775Y-2.907
X46.515Y-2.907
X47.255Y-2.907
X47.995Y-2.907
X48.735Y-2.907
X49.475Y-2.907
X55.3Y-98.057
X56.04Y-98.057
X56.78Y-98.057
X57.52Y-98.057
X58.26Y-98.057
X59.0Y-98.057
X102.925Y-5.765
X103.665Y-5.765
X104.405Y-5.765
X105.145Y-5.765
X105.885Y-5.765
X106.625Y-5.765
X131.248Y-113.018
X131.963Y-113.21
X132.678Y-113.401
X133.393Y-113.593
X134.108Y-113.784
X134.822Y-113.976
X170.086Y-113.976
X170.801Y-113.784
X171.516Y-113.593
X172.231Y-113.401
X172.945Y-113.21
X173.66Y-113.018
X198.175Y-5.765
X198.915Y-5.765
X199.655Y-5.765
X200.395Y-5.765
X201.135Y-5.765
X201.875Y-5.765
X245.909Y-98.057
X246.649Y-98.057
X247.389Y-98.057
X248.129Y-98.057
X248.869Y-98.057
X249.609Y-98.057
X255.434Y-2.907
X256.174Y-2.907
X256.914Y-2.907
X257.654Y-2.907
X258.394Y-2.907
X259.134Y-2.907
X259.959Y-114.35
X259.959Y-115.09
X259.959Y-115.83
X259.959Y-116.57
X259.959Y-117.31
X259.959Y-118.05
X263.725Y-111.532
X264.465Y-111.532
X265.205Y-111.532
X265.945Y-111.532
X266.685Y-111.532
X267.425Y-111.532
X282.85Y-102.075
X282.85Y-102.815
X282.85Y-103.555
X282.85Y-104.295
X282.85Y-105.035
X282.85Y-105.775
T2
X6.435Y-112.678
X6.435Y-120.178
X298.474Y-112.678
X298.474Y-120.178
T3
X1.92Y-103.957
X1.92Y-106.957
X302.989Y-103.957
X302.989Y-106.957
T4
X118.575Y-39.725
X161.225Y-39.725
T5
X14.745Y-11.04
X14.745Y-30.09
X14.745Y-49.14
X14.745Y-68.19
X33.795Y-11.04
X33.795Y-30.09
X33.795Y-49.14
X33.795Y-68.19
X52.845Y-8.182
X52.845Y-27.232
X52.845Y-46.282
X52.845Y-65.332
X52.845Y-84.382
X71.895Y-5.325
X71.895Y-24.375
X71.895Y-43.425
X71.895Y-62.475
X71.895Y-81.525
X90.945Y-8.182
X90.945Y-27.232
X90.945Y-46.282
X90.945Y-65.332
X90.945Y-84.382
X109.995Y-11.04
X109.995Y-30.09
X109.995Y-49.14
X109.995Y-68.19
X114.245Y-94.305
X134.946Y-99.851
X137.576Y-80.834
X177.416Y-78.132
X180.047Y-97.149
X200.748Y-91.603
X205.354Y-11.04
X205.354Y-30.09
X205.354Y-49.14
X205.354Y-68.19
X224.404Y-8.182
X224.404Y-27.232
X224.404Y-46.282
X224.404Y-65.332
X224.404Y-84.382
X243.454Y-5.325
X243.454Y-24.375
X243.454Y-43.425
X243.454Y-62.475
X243.454Y-81.525
X262.504Y-8.182
X262.504Y-27.232
X262.504Y-46.282
X262.504Y-65.332
X262.504Y-84.382
X281.554Y-11.04
X281.554Y-30.09
X281.554Y-49.14
X281.554Y-68.19
X300.604Y-11.04
X300.604Y-30.09
X300.604Y-49.14
X300.604Y-68.19
T6
X138.575Y-39.725
X181.225Y-39.725
T7
X4.025Y-15.24
X4.025Y-34.29
X4.025Y-53.34
X4.025Y-72.39
X15.025Y-15.24
X15.025Y-34.29
X15.025Y-53.34
X15.025Y-72.39
X23.075Y-15.24
X23.075Y-34.29
X23.075Y-53.34
X23.075Y-72.39
X34.075Y-15.24
X34.075Y-34.29
X34.075Y-53.34
X34.075Y-72.39
X42.125Y-12.383
X42.125Y-31.432
X42.125Y-50.482
X42.125Y-69.532
X42.125Y-88.582
X53.125Y-12.383
X53.125Y-31.432
X53.125Y-50.482
X53.125Y-69.532
X53.125Y-88.582
X61.175Y-9.525
X61.175Y-28.575
X61.175Y-47.625
X61.175Y-66.675
X61.175Y-85.725
X72.175Y-9.525
X72.175Y-28.575
X72.175Y-47.625
X72.175Y-66.675
X72.175Y-85.725
X80.225Y-12.383
X80.225Y-31.432
X80.225Y-50.482
X80.225Y-69.532
X80.225Y-88.582
X91.225Y-12.383
X91.225Y-31.432
X91.225Y-50.482
X91.225Y-69.532
X91.225Y-88.582
X99.275Y-15.24
X99.275Y-34.29
X99.275Y-53.34
X99.275Y-72.39
X102.803Y-95.587
X110.275Y-15.24
X110.275Y-34.29
X110.275Y-53.34
X110.275Y-72.39
X113.428Y-98.434
X123.504Y-101.134
X126.135Y-82.117
X134.129Y-103.981
X136.76Y-84.964
X168.149Y-84.964
X170.779Y-103.981
X178.774Y-82.117
X181.404Y-101.134
X191.48Y-98.434
X194.634Y-15.24
X194.634Y-34.29
X194.634Y-53.34
X194.634Y-72.39
X202.105Y-95.587
X205.634Y-15.24
X205.634Y-34.29
X205.634Y-53.34
X205.634Y-72.39
X213.684Y-12.383
X213.684Y-31.432
X213.684Y-50.482
X213.684Y-69.532
X213.684Y-88.582
X224.684Y-12.383
X224.684Y-31.432
X224.684Y-50.482
X224.684Y-69.532
X224.684Y-88.582
X232.734Y-9.525
X232.734Y-28.575
X232.734Y-47.625
X232.734Y-66.675
X232.734Y-85.725
X243.734Y-9.525
X243.734Y-28.575
X243.734Y-47.625
X243.734Y-66.675
X243.734Y-85.725
X251.784Y-12.383
X251.784Y-31.432
X251.784Y-50.482
X251.784Y-69.532
X251.784Y-88.582
X262.784Y-12.383
X262.784Y-31.432
X262.784Y-50.482
X262.784Y-69.532
X262.784Y-88.582
X270.834Y-15.24
X270.834Y-34.29
X270.834Y-53.34
X270.834Y-72.39
X281.834Y-15.24
X281.834Y-34.29
X281.834Y-53.34
X281.834Y-72.39
X289.884Y-15.24
X289.884Y-34.29
X289.884Y-53.34
X289.884Y-72.39
X300.884Y-15.24
X300.884Y-34.29
X300.884Y-53.34
X300.884Y-72.39
T8
X4.445Y-15.24
X4.445Y-34.29
X4.445Y-53.34
X4.445Y-72.39
X14.605Y-15.24
X14.605Y-34.29
X14.605Y-53.34
X14.605Y-72.39
X23.495Y-15.24
X23.495Y-34.29
X23.495Y-53.34
X23.495Y-72.39
X33.655Y-15.24
X33.655Y-34.29
X33.655Y-53.34
X33.655Y-72.39
X42.545Y-12.383
X42.545Y-31.432
X42.545Y-50.482
X42.545Y-69.532
X42.545Y-88.582
X52.705Y-12.383
X52.705Y-31.432
X52.705Y-50.482
X52.705Y-69.532
X52.705Y-88.582
X61.595Y-9.525
X61.595Y-28.575
X61.595Y-47.625
X61.595Y-66.675
X61.595Y-85.725
X71.755Y-9.525
X71.755Y-28.575
X71.755Y-47.625
X71.755Y-66.675
X71.755Y-85.725
X80.645Y-12.383
X80.645Y-31.432
X80.645Y-50.482
X80.645Y-69.532
X80.645Y-88.582
X90.805Y-12.383
X90.805Y-31.432
X90.805Y-50.482
X90.805Y-69.532
X90.805Y-88.582
X99.695Y-15.24
X99.695Y-34.29
X99.695Y-53.34
X99.695Y-72.39
X103.209Y-95.696
X109.855Y-15.24
X109.855Y-34.29
X109.855Y-53.34
X109.855Y-72.39
X113.023Y-98.325
X123.91Y-101.242
X126.54Y-82.225
X128.465Y-97.472
X131.094Y-87.658
X133.724Y-103.872
X136.354Y-84.855
X168.554Y-84.855
X171.185Y-103.872
X172.312Y-88.45
X174.941Y-98.264
X178.368Y-82.225
X180.999Y-101.242
X191.886Y-98.325
X195.054Y-15.24
X195.054Y-34.29
X195.054Y-53.34
X195.054Y-72.39
X201.7Y-95.696
X205.214Y-15.24
X205.214Y-34.29
X205.214Y-53.34
X205.214Y-72.39
X214.104Y-12.383
X214.104Y-31.432
X214.104Y-50.482
X214.104Y-69.532
X214.104Y-88.582
X224.264Y-12.383
X224.264Y-31.432
X224.264Y-50.482
X224.264Y-69.532
X224.264Y-88.582
X233.154Y-9.525
X233.154Y-28.575
X233.154Y-47.625
X233.154Y-66.675
X233.154Y-85.725
X243.314Y-9.525
X243.314Y-28.575
X243.314Y-47.625
X243.314Y-66.675
X243.314Y-85.725
X252.204Y-12.383
X252.204Y-31.432
X252.204Y-50.482
X252.204Y-69.532
X252.204Y-88.582
X262.364Y-12.383
X262.364Y-31.432
X262.364Y-50.482
X262.364Y-69.532
X262.364Y-88.582
X271.254Y-15.24
X271.254Y-34.29
X271.254Y-53.34
X271.254Y-72.39
X281.414Y-15.24
X281.414Y-34.29
X281.414Y-53.34
X281.414Y-72.39
X290.304Y-15.24
X290.304Y-34.29
X290.304Y-53.34
X290.304Y-72.39
X300.464Y-15.24
X300.464Y-34.29
X300.464Y-53.34
X300.464Y-72.39
T9
X134.948Y-106.664
X141.111Y-83.663
X163.798Y-83.664
X169.961Y-106.665
T10
X9.525Y-15.24
X9.525Y-34.29
X9.525Y-53.34
X9.525Y-72.39
X28.575Y-15.24
X28.575Y-34.29
X28.575Y-53.34
X28.575Y-72.39
X47.625Y-12.383
X47.625Y-31.432
X47.625Y-50.482
X47.625Y-69.532
X47.625Y-88.582
X66.675Y-9.525
X66.675Y-28.575
X66.675Y-47.625
X66.675Y-66.675
X66.675Y-85.725
X85.725Y-12.383
X85.725Y-31.432
X85.725Y-50.482
X85.725Y-69.532
X85.725Y-88.582
X104.775Y-15.24
X104.775Y-34.29
X104.775Y-53.34
X104.775Y-72.39
X108.116Y-97.01
X128.817Y-102.557
X131.447Y-83.54
X173.461Y-83.54
X176.092Y-102.557
X196.793Y-97.01
X200.134Y-15.24
X200.134Y-34.29
X200.134Y-53.34
X200.134Y-72.39
X219.184Y-12.383
X219.184Y-31.432
X219.184Y-50.482
X219.184Y-69.532
X219.184Y-88.582
X238.234Y-9.525
X238.234Y-28.575
X238.234Y-47.625
X238.234Y-66.675
X238.234Y-85.725
X257.284Y-12.383
X257.284Y-31.432
X257.284Y-50.482
X257.284Y-69.532
X257.284Y-88.582
X276.334Y-15.24
X276.334Y-34.29
X276.334Y-53.34
X276.334Y-72.39
X295.384Y-15.24
X295.384Y-34.29
X295.384Y-53.34
X295.384Y-72.39
T11
X9.525Y-15.24
X9.525Y-34.29
X9.525Y-53.34
X9.525Y-72.39
X28.575Y-15.24
X28.575Y-34.29
X28.575Y-53.34
X28.575Y-72.39
X47.625Y-12.383
X47.625Y-31.432
X47.625Y-50.482
X47.625Y-69.532
X47.625Y-88.582
X66.675Y-9.525
X66.675Y-28.575
X66.675Y-47.625
X66.675Y-66.675
X66.675Y-85.725
X85.725Y-12.383
X85.725Y-31.432
X85.725Y-50.482
X85.725Y-69.532
X85.725Y-88.582
X104.775Y-15.24
X104.775Y-34.29
X104.775Y-53.34
X104.775Y-72.39
X108.116Y-97.01
X120.227Y-102.72
X126.39Y-79.719
X128.817Y-102.557
X129.78Y-92.565
X131.447Y-83.54
X173.461Y-83.54
X173.627Y-93.357
X176.092Y-102.557
X178.519Y-79.72
X184.682Y-102.721
X196.793Y-97.01
X200.134Y-15.24
X200.134Y-34.29
X200.134Y-53.34
X200.134Y-72.39
X219.184Y-12.383
X219.184Y-31.432
X219.184Y-50.482
X219.184Y-69.532
X219.184Y-88.582
X238.234Y-9.525
X238.234Y-28.575
X238.234Y-47.625
X238.234Y-66.675
X238.234Y-85.725
X257.284Y-12.383
X257.284Y-31.432
X257.284Y-50.482
X257.284Y-69.532
X257.284Y-88.582
X276.334Y-15.24
X276.334Y-34.29
X276.334Y-53.34
X276.334Y-72.39
X295.384Y-15.24
X295.384Y-34.29
X295.384Y-53.34
X295.384Y-72.39
T0
M30
